<svg xmlns="http://www.w3.org/2000/svg" viewBox="0 0 1466.33 105.16"><defs><style>.cls-1{fill:red;}</style></defs><g id="Layer_2" data-name="Layer 2"><g id="Ñëîé_1" data-name="Ñëîé 1"><path class="cls-1" d="M569.26,1.26c-.1,2-8.4-1.17-8.49.84-.51,1.59-3.62,1.76-5.52,2.11l2.55,3.36,3.39-2.52v5.89c-3.19-2-7-4.78-10.19-4.21,6.34-3.2-4.36-8.41-4.24-1.68-.26-4.56-11-4.49-11-.84,5.81-.77,8.11,3.77,14.43,2.52-1.08,5.74,1.87,8.82,7.65,8.41-2.78,1-2.34,4.08-1.7,6.73-5.75.19-7.42-5.51-12.31-5.47-4,.34-4.3,3.91-8.07,2.11.28-1.13.57-2.25.85-3.37-6.11,7-17.9-1.74-8.49-7.57l-6.79-5.05V5.05c-3.86-2.68-7,1.73-10.61-1.69-3.17-.64-21.28,4.29-23.35,3.37-2.45,5.08.14,8.8,5.1,10.93-6.61,1.44-6.34-6.19-11-5.88l5.09-7.57c-11,2.54-23.42,1.17-32.26,5.88l.85-2.52c-4.1-2.11-5.64,2.83-3.39,5.89-1.83-.49-2.19,1.75-2.55,3.36-5.38-1.46-2.2-7.08,0-10.93l-3.4,2.52V5.89c-11.66-1.88.09,16.77-10.18,16.82V17.66l-4.25.85c-.57-2.31,3.74-2.06,5.94-2.53-1.1-3.89-4.08-5.45-7.64-3.36V9.25c-2.52,1.51-4.55-1.72-6.79.84l.85-2.52c-11.08-1.25-8,27.4-20.38,0-1.94,2.44-4.56,3.85-7.64,3.37v1.68L394,10.94,391.4,14.3l3.39-1.68c.29,1.4.57,2.8.85,4.2L392.25,16c-.28,1.12-.57,2.24-.85,3.37-3.47-3.55-5.65-8.08-.85-10.94-7.46-1.21-9.54,6.35-16.13,4.21l.85-1.68c-5.23,2.09-10.12-2.26-13.59,0l2.55,3.36c-3.28-1.06-10.46-1.76-11-4.21-2.26,2-4.82,3.87-7.64,3.37l.84-3.37c-.41,2-2.58,1.35-4.24.85.54,5,4.68,10.3,9.34,9.25v2.52h3.39l-1.69,2.52c-1.35-2.3-5.66-1.11-8.49-.84.28-1.68.56-3.36.85-5l-6.8.84V18.51h-2.54c2.24,4-6.7,5.95-7.64,1.68,2-.77,3.92-2,3.39-4.21-4.36,0-6.34-4.85-11.88-2.52.46,2.16,3.73,1.63,5.94,1.68-3.23,3.91-5.68,3-9.34,2.1-2.8.72-3.75-5.95-6.79-4.62l1.7,1.68h-2.55V16c-2.73,0-6.61.48-6.79-2.52-3.34,1.95-5.58.61-8.07-.84-4.82,2.74-14.56,4.69-19.1,6.73C274.43,21.56,279,22,281,22.71h-4.24l2.55,3.37c-4.08,1.12-9,.18-13.59-.85L270,22.71c-2.53-7.23-10.16-3.78-14.43-7.57-1.46,2.75.67,4.4,3.39,5.05l-1.7,2.52c-3.4-5.27-22.09-11-22.92-2.52-1.58-2.18-4.1-2.82-6.79-2.53-.38,1.87.69,3.11,2.55,3.37-1.73,2.3-1.38,5,0,7.57l-2.55.84,4.24,1.68v-4.2h2.55c-3.64,7.44,3.33,10.15,2.55,16.82h2.54c-2.6-4.13,1-6.81.85-11.78h-1.69c3-12.17,4.7,4.9,2.54,10.1,4.88-.83,3.75-14.87,9.34-13.46,0,2.8.64,7.46-2.55,7.57.57,1.4,1.14,2.8,1.7,4.21.57-1.69,1.13-3.37,1.7-5.05a7.31,7.31,0,0,0,9.34-1.68c.21,3.53-6.75,8.2,0,8.41V40.38c4.64,2.48,10.95,1.24,8.49-5.05-.09,5.89,20.87,7.91,17,.84,6.6-2.19,9.53,6.11,14.43,1.68-1.91-1.25-3.91-2.8-3.4-5,3.39.17,6.15,2.4,8.49,5l2.55-2.52c-1.69,7.68,12.48,5.25,13.58,0,5.44,4.16,8.33-3.77,14.44,1.68.46-3.34-4.79-4.33-3.4-8.41,3.2,1.83,8.68,3.89,7.64,7.57h-3.39c1.88,5.61,14.2.89,6.79-3.36,2-1.83,7.92-1.62,7.64,1.68l3.39-1.68c.29.84.57,1.68.85,2.52,1.13-1.4,2.27-2.8,3.4-4.21.56,1.41,1.13,2.81,1.7,4.21,2.55-1.22,4.9-3,4.24-5.89,3.93,1.28,5.64,6.53,13.58,6.73V28.6c2.95,1.36,3.4,4,1.7,6.73,1.91-1.14,4-1.9,5.95-.84-.29.84-.57,1.68-.85,2.52,14.78-.06-1.92-15,5.94-15.14-1.28,3.84,5.3,6.78,1.7,11.78,3.35.74,2.32-3.24,6.36-1.69,2.87.87,3.39.11,3.82-1.68,4.5,3.69,11.52-4.44,11-8.41h2.55L411.77,32l5.1-.84v2.53c2,.52,2.62-2.42,3.39-4.21v1.68c3.9-1.93,8.1,4.5,11-.84.57,5.84,9.16,3.62,7.64-1.68l5.94,1.68c-2.08-3.1-.65-6.45,1.7-9.25-1.59,6.34,4.65,9.41,10.19,11.78,1.27-1.45-.26-2.6-1.7-3.37,2.14-2.75,1.29-10.33-2.55-12.62,6-2.75,10.22,6.7,16.13,5.05V18.51c2.52-.66,3.13,2,3.4,4.2h-4.24c-2.74,7.41,8.17,13.76,12.73,8.41-3.22-.27-9.27-3.56-3.82-5.47,3.39,1.69,8.1,4,14,3-.36,8.71,7.95-.05,11-3.37-1.13-.27-2.26-.56-3.39-.84,2.57,5.76-7.82,3.79-8.07-.42-.64-3.27,4.12-4.53,3-8H495q-.84-2.52-1.7-5l7.64-.85v2.53c1.67.32,3.51-1.36,5.1-2.53.52,2.39,4.39,1.06,6.79.85.45,2.73.09,8.55,3.4,7.57-.6,6.65-9.44,5.72-8.5,10.93,1.75,2.67,9.73-1.81,12.32.42,6.69,2.61,4.9-5.11,3-8.83l5.94,2.52c-1.31-2.81-.14-6.59,3.4-5.89q-.86,2.54-1.7,5.05c6.71-2.78,7.34,8.54,13.58,7.57-.56-3.89-1.5-9.63,3.4-9.25-.57,2.52-1.13,5-1.7,7.57,7.1-2.85,11.31,1.11,17,1.68V27.76c-8,.62-3.79-5.17,1.7-5.89-.31,2.1.31,4,2.54,4.21.82-3.69.75-12.92,3.4-13.46.78,2.54,1.62,5.66,4.25,5.89.76-2.7,1.43-6.56,4.24-6.73l-5.94-2.53c3.1-1.09,7.8-2.32,6.79-5.89.87,2.71,3.18,4.26,5.94,5.05-.41.9-.77,1.78-2.12,1.26-5.41-.15-1.59,7.86-5.52,9.68,1.86.26,2.93,1.5,2.55,3.36,4.64-1.92,6.5-5.24,7.21-9.25-.93-3.66,3.24-2,5.52-1.68l-3.39,3.36,3.39,3.37c2.69-4.18,8.56-3.94,8.49,1.68.28-1.4.57-2.81.85-4.21l3.4.84q-.86,2.54-1.7,5.05l3.39-.84v2.52a2.69,2.69,0,0,0-3.39,2.53l-5.1-1.69c.57-1.12,1.14-2.24,1.7-3.36l-6.79-.84c.36,1.61.73,3.85,2.55,3.36-.29,1.68-.57,3.37-.85,5.05,2.64-.3,10.1.78,11-2.52.84-4,7.18-3.08,10.18-1.69-2.69-3.59,10.59-11.27,8.49-15.14,1.58,6.36,11.73.67,17-.84.58,3.72-7.15,7.57-3.39,11.78.85-9.75,16.47-20-3.4-16.83-2.08,1.79-2.73-.93-1.7-2.52L629.11,0V1.68c-4.26-.08-4.69,10.15-11,8.41l3.4-4.2c-4.19-11.48-15.55.32-24.62-5,.43,2.7-.51,5-3.4,5.05l.85,2.52h-2.55q.86-2.94,1.7-5.89l-11,3.37.84-3.37A2.68,2.68,0,0,1,579.87,0C578.42,2.85,570.67-.83,569.26,1.26Zm85.32.42c1,1.84.36,5.12,0,7.57l-4.25-.84c1.54-3.41,1.57-7-2.54-7.57,5.18,6.4-4.57,9.87-4.25,16h2.55c.38,1.94-.81,3.36-2.55,4.21a6,6,0,0,1,5.94,5,6.18,6.18,0,0,1,5.95-2.53v-4.2L652,21c.74-2.77-2.68-3-5.09-3.37,1.76-1.09,1.52-3.16.85-5h3.39c-2,6.37,7.21,6.87,5.1.84l2.54-.84v5.89h-1.7c-1.43,12.16,6,6.23,10.62,2.1,2.69,2,1.42,4.23,7.64,2.52,5.18-3.67,17.57,9.66,15.7.42,14.11,6.63,21.54,3.81,35.23,2.52,6.59-1.13,5.56.28,8.5,1.69,2.06-.56,2.62-3.57,5.52-3.37-.3-.84-.57-1.68-.86-2.52,4.21-1.32,3.32,4.84,6.8,5.05-1.26-4.13,5.49-4.29,4.24-8.41h4.24c-1.4,2-2.83,3.92-4.24,5.88,6.57-1.67,5.73,5.3,12.73,2.53,4.91-1.72,6.15-.46,7.64,2.52.59-3.29,5.78-1.25,7.23-2.52,1.24-1.8,4.69-.63,4.66,1.68,3-1.87,6.35-1.06,9.34.84l.85-1.68-2.55-.84,4.25-.84v3.36c6.12-3.4,16.79,3.18,22.07-2.52-.29.56-.57,1.12-.85,1.68,15.7-1.16,31.53,3.42,45.85,6.73.21-2.24,2.14-2.82,4.24-2.52v3.36c2.23-.27,4.91-.85,4.24-3.36,2.68,3.28,7.86,1.27,11.89,0-.29.84-.57,1.68-.85,2.52,2.79.79,4.47-3.46,5.94-5.89.39,1.72,2,1.51,3.4.84.29,1.12.56,2.25.85,3.37l5.09-2.53v3.37h5.1L899.08,37c8.82-4.43,13.73,3.37,22.07-.84-.93,3.15,4.2,3,6.79,3.36-.82-8.14,9.1-.05,11.89-3.78,2.52-3.61,4.8-1.92,5.94,1.26l-5.94,1.68c2,4.45,9.07,4.45,11,0-1.39.67-3,.88-3.39-.84,2.44-.1,6.28.6,6.79-1.68,1.74,4.09,10.29-.31,10.19,5a2.67,2.67,0,0,0-3.39,2.52c4.46-1.34,5.25-6.89,11.88-5.05-.57,2-1.13,3.93-1.7,5.89,3.88.62,7.31-1.39,10.19-4.2l2.55,5c2.49-2.4,11.22-2,16.13-2.52v3.36c4.39-.07,9.85-.77,8.48-5.88,6.53-1.08,11.53,5.94,17,5.88.94-2.56-5.19-1.64-4.24-4.2,5.42-1.67,5.21,5.41,10.19,4.2V43.74c2.47.73,6.79,1.32,5.94,4.21,6,2.08,10.66-5.63,15.28-5.89-1.13,2-2.27,3.93-3.39,5.89l4.24-2.53c.22,3,4.56,4,6.79,2.11,2.33-2.09,7.24,2.88,9.76,1.26,2.18-1,4.33,0,6.37.84-.85-4.28,6.89-6,8.07-2.1,1.59,4.78,6.75.47,8.91-2.11.29,1.12.57,2.25.85,3.37l2.55-1.69c.8,1.26,1.56,2.66,3.39,2.11,2.68-.74,1.7,1.84,4.67.42,2-1.43,7.35,1.32,8.92,0,6.2.22,16.15,5.7,22.07.84,1.38,4.71,6.27,3.36,10.19,1.68l-2.55,1.68c21.13,2.86,56.42,3.84,75.56,10.94,1.06-1,2.36-2.75,3.82-1.68,1.11,1.43,5.15-1.33,5.94,0,1,1.34,13.38-.44,14.86.84,3.12,1.62,3.45-3,5.09-3.37,1.15,0,4.14,1.65,6,2.53-1.62.36-3.89.7-3.4,2.52,2.41-.76,5-.84,5.94,1.68,1.83-2.39,8.15.68,10.19-4.2-.39,4,3.9,7.86,6.79,4.2-.66,2.87,1.69,4.67,4.24,5.89.58-7.16,5.47.8,9.34-1.68,0,3.38,3.14,3.33,5.95,2.52v1.69h2.55l-.86-3.37h1.7V69.82c1.7,1.32,2.87,3.12,1.7,5,4.44,1,5.22-3.42,9.34-4.2.28,1.4.56,2.81.85,4.2,4.18-2.21,3.9,3.63,8.06,3.79,5.25,2.78,8.74,4,11.46-2.94,2.13,2.28,5,2.41,7.64.83.19,2.81,3.42,2.63,6,2.53v3.37c1.58-.82,3.22-.68,4.24.84-.49-1.83,1.79-2.17,3.4-2.53v2.53c5.35-1.46,5.45,3.23,10.18,2.94,3.26-.46,4.4.37,5.94,2.1,1.43-1.4,2.84-2.8,4.25-4.21v4.21c6.24-1.49,12.74,4.29,12.73-1.68,3.08,3.18,8,4.28,12.74,5-.28.57-.56,1.12-.85,1.69,4.47-.61,8-3.22,13.59-.84-3.13,3,1.13,5.89,4.24,4.21-.56-.57-1.13-1.12-1.7-1.69l2.55-.84v1.68c14.88,3.42,29.53,9.66,45.84,9.25-.07-2.14-.17-4.24,2.12-5.46,3.37-1.65,0-6.14,3.82-7.57,6.36-15-19.4-20.29-28.85-21.87-9.34-4.95-21-3.83-30.57-6.73-6.25-4.45-18.65-5.6-25.47-8,.29.84.56,1.68.85,2.52-1.25-2.11-3.86-.92-6,0V53.83c-10.67,2.45-12.94-5-25.89-4.62-19.14-2.29-35.92-7.64-53.91-8V39.53c-6.42,1.46-11.07-3.41-16.12-.84V35.33c-7.64,3.49-12.08-2.69-18.68-2.52l1.7,2.52c-4.31-.47-8.67-6.42-12.74-1.68-2.85-4.58-12.17,1.45-16.13-.84,1.52-1,1.68-2.63.85-4.21-1.69,1.33-2.69,1.6-5.1-.84-5.24-3.22-10.11-2-17-2.53.56.85,1.13,1.69,1.7,2.53-3.14-1-6.21-.53-7.64,2.52-.3-2.68.35-5.17,2.54-6.73-1.42.67-3,.88-3.4-.84-.76,3.11-3.76,3.72-6.78,3.37-.49-1.82,1.78-2.17,3.39-2.53-2.88-2.14-7.56,2.95-9.77-.42-1.19-2.05-2.16-2.21-3.82-2.1v5c-9.68-2.29,1.63-9.31-13.58-2.1-4.81.94-3.94-4.39-7.22-5.89-2.28-1.54-8-1.26-11.46-1.27v8.41q-.84-4.2-1.7-8.41c-4.22,5.48-12.4-6.53-11.88,2.53,3.89-.76,6.75,1.56,8.49,5-2.87-.07-8.53.7-8.91-2.52-.28-1.68-1.42-2.38-3.4-2.1-3.86.87-3.19-1.79-6.37-1.26,1.7,4-7.61,5.62-7.64,1.68,2.17-.25,3.13-2.1,3.4-4.21l-2.55,1.68c-1.12-4.11-4.51-5.52-8.49-4.2l4.25,2.52-3.4,1.68c.29.56.56,1.13.85,1.69-2.48.5-4.1-.87-4.24-3.37l-3.4,1.68c-.34-7.76-7-5.05-11.88-5-2.56-1-3.73.18-5.1,1.68-2.13-2.7-7.44-6.59-9.34-2.52l-2.54-2.53c-2.68,10.62-6.8-5.1-11.89,2.53-.8,1.75-2,1.75-3.4,1.68V10.09c-5.05,1.83-4.64-2-10.61-2.1-6.6-3-13.51,10-14,.42-2.79-.43-5.17.58-5.94,3.37h2.55v1.68c-2,0-11-.46-11.89-2.94-2.32-2.33-3.62-4.38-8.06-4.63-4-.79-15.28,9.63-8.92,0-5.95-1-6.78,2-12.31,2.94-3.94,1.32-10-4.69-13.16-4.2-2.89.86-4.05,6.6-7.21,2.1-1.37-2.72-8.82,1.88-10.19-.84-1.23-1.79-2.89-1.75-4.67-1.68V5.89L956,4.21c.37,1.86-.69,3.1-2.55,3.36.57-1.12,1.14-2.24,1.7-3.36H950c0,2,.31,4.63-1.7,5-.57-2-1.13-3.92-1.7-5.89-2.17.25-3.11,2.1-3.4,4.21-3-3-7.63-.66-10.18-2.1-.85-2-4.1.33-4.67-1.68-.4-1.43-1.8-1.29-3-1.27l2.54,2.53-11-2.53c-.27,1.41-.56,2.81-.84,4.21-3.58-4.16-17.88.61-19.53-4.21-7.88.68-19.87,1.48-28,0V4.21c-2.19,0-5.48-.48-5.94,1.68-1-6.23-17.65-5.61-19.52-.84.76-5-14.42-5.5-15.28-2.53a5.58,5.58,0,0,0-6.79,0C820.67-.17,796.57,2,796.36,0V2.52L793,1.68q1.27,3.38,2.54,6.73l-4.24-.84c3.52-5.29-10.12-9.22-7.64-2.52-2-2-4.28-4.77-6.79-4.21V4.21C774.33.29,768.15.78,763.24.84l3.4,2.52c-3.14,0-4.06,3-4.24,5.89l-2.55-2.52c.28,2.24.56,4.49.85,6.73l-7.64-4.21c3.79,5.36-2.82,8.2-3.4.84l-4.24,1.69c1.13-1.69,2.27-3.37,3.39-5-2.4-.75-3.9-2.52-3.39-5.05h-2.55c3.17,5.8-9.69,5.92-7.64.84-2.47,1.87-5.6,1.22-8.49,0,3.92,7.56-13.7,5.83-1.7,1.69-2.49-7.11-8.5-1.66-13.16-2.53-6.06-2.9-8.92,4.51-13.16,5.47-1.68-.48-2.09.19-2.55,1.26-1.23-2,.17-4.14,1.7-5.89-2,.77-3.92,2-3.39,4.21C688,8.21,686.35,3.26,680.9,1.68l-1.71,5.89,3.41-.84c.52,2.07-3.12,3.09-5.1,4.21,2.5.29,5,1.07,5.94,3.36-3.48-.23-7,.12-9.34,2.52-1.56-1.72,1.41-5.3,2.55-7.57l-2.55-.84c-.34,1.62-.73,3.86-2.54,3.37-1.57-4.73,7.5-2.85,5.94-7.57H675V2.52c-2.92.75-6,.88-7.65-1.68V5.05c-5.42.57-10.38-.67-13.58-5C654,.56,654.29,1.12,654.58,1.68ZM660.52.42c-1.67.38-1.78,1-1.7,2.1,2.21,0,5.49.48,5.94-1.68A6.33,6.33,0,0,0,660.52.42ZM554.4,1.68l.85.84L553.55.84ZM756,1.26l1.29.42L754.75.84ZM531.48,3.36c.28.28.56.57.85.85l-1.7-1.69Zm158.75-.42.85.42-1.69-.84Zm-123.94.42,4.24,3.37h-1.7c.62,3-2.05,5.92-4.24,8.41A15.83,15.83,0,0,1,566.29,3.36Zm233.46,0,2.55,1.69h-2.55Zm-171.49.85h4.24c-.77,1.79-1.43,4.72-3.39,4.2C629.63,6.75,630.23,4.6,628.26,4.21Zm8.49,0,1.7.84Zm31.41,0,2.55,2.52h-3.4C667.6,5.89,667.87,5.05,668.16,4.21Zm88.29,1.26V6.73c1.56.4,2.22-1.09,2.55-2.52h-2.55Zm48.39-1.26,1.7,1.68Zm-70.46.84c3.14,3.57,8.93,4.17,9.34,10.93l3.39-2.52c.29,1.4.57,2.8.86,4.2-1.86-1.9-4.47-1.15-6.8,0C744.17,9.52,727.87,12.49,734.38,5.05Zm-233.47.84,2.55,2.52Zm36.51,2.94c.81,3.61,4.92,6.56,7.64,3.79a2.69,2.69,0,0,0,3.4,2.52q-.44-3.36-.85-6.73c-3.17,1.54-9.13,2.24-8.49-2.52h-2.55C536.85,6.87,537.14,7.85,537.42,8.83Zm70.46-2.94,2.55.84Zm75.56,0,2.55.84Zm313.69.84c.51,1.06,2,.31,3,0l-3.4-.84Zm-483.06.42c2.6.42,3.13.63,3,2.1-2.34,0-5.26.23-6.8-.84C510.82,7,511.42,6.82,514.07,7.15Zm17,1.26c.57,1.81-.86,2.59-2.12,3.37,2.13,1.54,4.9,3,5.94,0h-2.54c.67-2.22,1-4.87-1.7-5ZM710.61,6.73l2.54,1.68-4.24,1.68ZM888,6.73c.58.56,1.13,1.12,1.7,1.68C889.17,7.85,888.62,7.29,888,6.73Zm34.81,0,.85,1.68ZM413.47,8.41l.85.84-1.7-1.68Zm56-.84,5.95,1.68c-1.83,1.72-1.09,3.69.85,5.05-2.42,2.87-8.65,3.3-7.65-1.68h1.7C470.07,10.94,469.79,9.25,469.5,7.57Zm133.29,0,6.79,1.68C608.17,14.7,600.28,13.22,602.79,7.57ZM407.1,9.25l-.42.84,2.55.85-1.7-2.53C407.39,8.69,407.25,9,407.1,9.25Zm30.14,1.26.85,2.11c.84-2,.7-4-1.7-4.21C436.68,9.11,437,9.81,437.24,10.51Zm228.38-2.1c.27.56.57,1.13.84,1.68C666.19,9.54,665.89,9,665.62,8.41Zm58.57,0,1.7,1.68Zm66.22,0c1.36,2.11-.47,3.48-2.55,4.21C789.61,11.76,790.79,10.35,790.41,8.41Zm127.35,0,1.69,1.68H916.9Zm-262.33.84,2.55.84Zm48.38,0h2.56v1.69ZM613,10.51c1.11.61.25,3.16,0,4.63C611.36,13.67,609.65,9.91,613,10.51Zm49.24-.42c.28.56.56,1.13.85,1.69C662.78,11.22,662.5,10.65,662.22,10.09Zm-327.7,1.27c-4.77,1.79,1.83,2.74,4.24,2.94C339.33,11.63,337,10.59,334.52,11.36Zm210.54-.42,1.7.84Zm71.31,0a5.73,5.73,0,0,1,4.25,5l-3.4.84Q616.8,13.88,616.37,10.94Zm52.64,0c2.8,2.33,2.49,6.57-1.7,5.88.29.85.56,1.69.85,2.53-1.8-.77-4.76-1.41-4.24-3.37l-2.55.84c1.72-1.73,4-1.32,5.94,0C667.89,14.86,668.44,12.9,669,10.94Zm28,0h3.39v1.68Zm-76.41.84.85,1.68Zm439.76,0,1.7,1.68-4.25,1.68ZM471.2,13l.85.42-1.7-.84Zm6.79-.42,2.55,2.52Zm40.75,0c1.51.55,1.41,5.4,4.25,4.2C521.33,21.87,512.61,12.88,518.74,12.62Zm264,0c.29,1.12.57,2.24.85,3.36-3.3-.9-2.8,4.2-5.94,4.21V15.14C780,15.34,782.58,15.16,782.77,12.62Zm-355.71.84L425.36,16Zm24.62,0,1.69,1.68Zm147.71,0,1.7,1.68Zm161.31,0h5.09C766.9,22.56,760,23.1,760.7,13.46Zm41.6,0h.84V16l3.4-.84c-.74,2-1.18,6.56-3.4,5.89V17.66a2.7,2.7,0,0,0-3.39,2.53l-1.7-.84C799.07,17.7,801.1,13.5,802.3,13.46Zm11.88,0,1.7,2.52h-1.7Zm249.6,0c1,1.52,2.64,1.66,4.25.84V16h-6Zm17.82,0,1.7,2.52C1080,17.53,1077.71,15.3,1081.6,13.46Zm3.4,0,2.55.84Zm-731.8.84,5.09.84c-2.08.73-3.9,2.1-2.55,4.21H353.2Zm350.61,0c.58.84,1.14,1.68,1.7,2.52C705,16,704.39,15.14,703.81,14.3Zm54.34,0c1.56,2.38-1.16,3.51-3.4,4.21V15.14l3.4.84Zm-382.88.84,1.7,1.68-2.55,1.69C374.7,17.38,375,16.26,375.27,15.14ZM633.78,16.4c.39,1.43,1.79,1.29,3,1.26l-3.4-2.52C633.5,15.56,633.64,16,633.78,16.4Zm129-.42-.42.84h1.69c-.28-.56-.56-1.12-.85-1.68Zm23.34-.84H787c.73,2.7-2.7,3.46-5.1,4.21C783.12,17.91,785,15.2,786.16,15.14ZM497.09,18.51c-.42.84-.84,1.68-1.27,2.52C502.15,22.45,501.75,12.27,497.09,18.51Zm-221.57-.85.42.85c-.28-.57-.57-1.13-.85-1.69C275.23,17.1,275.37,17.38,275.52,17.66Zm53.9-.84,1.7.84Zm50.09,0h2.55v2.53Zm124.8.84.85.85-1.7-1.69ZM610,16.82h1.27V21L607,19.35C607.77,18.22,608.59,16.75,610,16.82Zm12.31,2.11-1.7,2.1c3,1.83,7.76,6.25,10.19,3.36,0,3.24,3.05,3.69,5.94,3.37,9-13.74-7.13-4.3-12.74-10.94Zm59.42-2.11c.29,1.13.57,2.25.86,3.37l-3.41-.84Zm111.22,0,1.7.84Zm18.68,0c2.23.88,2.61,2.92,1.7,5.05C812.76,20.19,812.2,18.51,811.64,16.82Zm-405,.84,1.7,1.69h-2.55C406.11,18.79,406.4,18.23,406.68,17.66Zm41.6,0c3.78.76,3.17,5.05,2.55,8.42-.79-2-1.28-5.6-3.4-5C447.71,19.91,448,18.79,448.28,17.66Zm121.83.85.42.84c-.28-.56-.57-1.12-.85-1.69C569.82,17.94,570,18.23,570.11,18.51Zm106.54-.85c.56.56,1.14,1.12,1.7,1.69C677.79,18.78,677.21,18.22,676.65,17.66Zm12.74,0,.84,2.53-2.54.84c-.29-.84-.56-1.68-.86-2.52Zm-365.91.85c5.49.66,2.66,6,5.1,9.25-3.46.6-4.82,3.35-4.25,6.73h-2.55q.44-3.37.85-6.73h-4.24c-.7-2.41,5.32-2.61,7.64-3.37C323.64,23.47,323.23,21,323.48,18.51Zm335.34,0L661.37,21Zm59.43,0c.29.84.56,1.68.85,2.52C718.81,20.19,718.54,19.35,718.25,18.51Zm347.23,0,1.69.84Zm55.18,0c3.46.7,4.18,4.8,0,4.2ZM210.14,21.45c-.42.7-.84,1.4-1.27,2.1-1-1.51-2.65-1.66-4.24-.84-.19-3-4.06-2.55-6.79-2.52,1.66,4.17-5.33,6.58-3.4,10.09l5.09-2.52c.29,1.12.57,2.24.85,3.36-2-.54-2.15,2.41-2.54,4.21-1.66-5.21-9.81-3.16-6,1.68l-2.54.84c-.57-2.8-1.14-5.61-1.7-8.41h2.54c-.41-2.51-5.18-3.51-5.09-7.57l-2.55.84c1.89,4.09,2.81,8.39,1.7,12.62l-5.09-1.68c7.68-7-5.92-7.14-8.92-8.83-1.79-3.37-3.82.51-3.82,2.94,5.11-.31,16.47-.35,9.34,5.89-3.76-6.23-6.8,2.59-11-.84-.29,1.4-.57,2.8-.85,4.2l-1.7-.84-2.55,5,3.4-.84V42.9c4.5-1.49,4.83,7.38,9.34,5.89l-2.55-8.41c1.86.26,2.93,1.49,2.55,3.36-.27-4.7,17.57-4.06,18.67-1.68-1.95,1.18-1.39,3.72-.85,5.89,2.26-2.51,5.48-2.25,8.49-.85-.61-4.14,4.74-4.22,4.25-7.57l-4.25.85V37.85h4.25V35.33l3.4.84V34.49c2.28,1.44,4.74-.81,6.79-2.53.28,1.13.56,2.25.85,3.37-1.61.36-3.89.7-3.4,2.52,2.53-.5,4.32,1,5.09,3.37.91-1,1.7-1.76,3.4-1.26,6.47,1.15-1.06-6.71,2.55-8.84l-2.55-1.68,4.24-2.52c-2.17-.54-4.74-1.1-5.94.84l.85-3.37-6.79,1.69c-.29-1.13-.57-2.25-.85-3.37h2.55V21l4.24.84C218.08,19.2,210.9,19,210.14,21.45Zm165.13-2.1c2.45.2,3.1,2.71,3.39,5h-4.24C374.7,22.71,375,21,375.27,19.35Zm20.37,0c4.91.55,6.67,6.88,11,5v3.37c-4.82.12-6.13-4.42-11-3.37Zm195.27.84.84.84-1.69-1.68Zm34.8-.84c.28,1.12.57,2.24.85,3.36C626.28,21.59,626,20.47,625.71,19.35Zm-217.33.84,1.7.84Zm34.81,0,1.69.84Zm39.9,0h1.7v2.52h-1.7Zm290.77,0h1.27a2.68,2.68,0,0,1-3.4,2.52C772.11,21.58,772.4,20.11,773.86,20.19Zm11.46,0L787,21ZM224.58,21.87l.42.84c-.28-.56-.56-1.12-.85-1.68ZM379.51,21l4.25,1.68C381.77,23.53,379.72,23.43,379.51,21ZM576.9,22.71c-.14.56-.29,1.12-.43,1.68l-2.54-.84V28.6c4.5-.33,7.73-3.3,12.73,0-1.34-4.52-7.4-2.85-9.34-7.57Zm-401.14.84v1.68c1.42-.27,2.83-.56,4.25-.84l-4.25-2.52Zm107-1.68,1.7.84Zm222.85.84-.42.84h1.7c-.29-.56-.57-1.12-.85-1.68C505.87,22.15,505.73,22.43,505.58,22.71Zm238.14-.84.85,1.68Zm21.23,0c.27.84.56,1.68.84,2.52h-1.7ZM192.74,23.55l.85.84-1.7-1.68Zm106.12-.84c.29.56.57,1.12.85,1.68C299.43,23.83,299.15,23.27,298.86,22.71Zm61.13,0,1.69.84-.84,1.68C360.55,24.39,360.27,23.55,360,22.71Zm101,.84-.85.84,3.4,1.69c.28-1.13.57-2.25.85-3.37C463.21,22.69,461.87,22.62,461,23.55Zm25.47-.84,1.7,1.68h-2.55C485.92,23.83,486.2,23.27,486.48,22.71Zm324.31,0,1.69,1.68Zm-605.31.84c2.32,1.32.4,3.94-.85,5.89C204.08,27.28,203.52,24.73,205.48,23.55Zm50.93,0c1.73.38,1.53,2,.85,3.37C257,25.8,256.7,24.67,256.41,23.55Zm56,0,2.54.84Zm238.55,0h2.55c.38,1.87-.69,3.11-2.55,3.37Zm41.18,2.11c-.43.7-.85,1.4-1.27,2.1,1.53-1.12,4-2.55,2.54-4.21C593,24.25,592.6,25,592.18,25.66ZM141,26.08l-1.69,1.68c3.69.1,6.26,4.82,11,3.36v1.69c.57-1.41,1.13-2.81,1.7-4.21,2.17.45,1.65,3.69,1.7,5.89l8.49-3.37C158.79,26.5,145.71,22.9,141,26.08Zm19.11-.42c-.15.42-.29.84-.43,1.26h1.7c-.28-.84-.57-1.68-.85-2.53ZM306.5,24.39c2.54,1.4,5.61,3.06,7.64.84l1.7,2.53h-1.7v2.52c-3.25-.16-8.74-1.6-10.18.84Q305.22,27.76,306.5,24.39Zm24.62,0,1.7,1.69Zm198.23,1.69c.15.56.29,1.12.43,1.68,2.06-.25,3.94-1.15,3.4-3.37h-4.25Zm-63.67,0-.42.84.85-1.69C466,25.52,465.82,25.8,465.68,26.08ZM540,25.23c.56.29,1.13.57,1.7.85l-2.55.84C539.4,26.36,539.69,25.8,540,25.23ZM103.6,28.6c-4,3.86-7.49,0-10.19,4.63C91.83,36,91,36.11,89.17,35.33l1.7-2.52L87.47,32c.52,3.75-3.77,4.9-2.55,9.26l-4.24-3.37c-.29,1.4-.57,2.81-.85,4.21h3.4l-1.7,2.52c3,1.71,3.54-1.91,6.79,1.26,3.05,2.93,5.5,1,5.09-2.1l-4.24.84c0-3.91,4.09-9.33,7.64-5.47C97.61,43,92,51,93.41,54.68L87.47,53c4-3,3.66-5.82-1.7-5,.69,2.41.9,5-.85,6.73,5.16.66,10.89,2.06,17.83.84C93.5,44.91,119.8,54,118,43.74c3.46-.74,6.44,5.44,10.19,4.21-.51,2.66-7.19.83-10.19.84.28,2,.57,3.92.85,5.89,3.88-1.89,8.42-4,11.89-1.69,1.93-3.89,11.6-9.41,12.73-1.68l-2.55.84c3.14,2.18,10.46-6.25,9.34-9.25H146.9c.28-1.12.56-2.24.85-3.37-3.19-.55-7.37,7.54-8.49,1.69.29-2.78,4.5-3.43,4.24-6.73-5.56,2.65-8.32-7.66-11,1.68,2.12.28,4,1.2,4.25,3.36l-3.4.85c0-3.53-3.7-3.59-6.79-3.37.7-2.66-2.72-3.89-5.09-5v5c-2-.81-4-.71-4.25,1.68-.13-2.5-1.77-3.86-4.24-3.36.3-2.15,1.44-5.43-.85-5.89l1.7-.84C110.36,27.2,107.05,25.77,103.6,28.6ZM354,26.08h.85c.39,1.86-.69,3.1-2.54,3.36C352.68,28.25,352.93,26.09,354,26.08Zm7.64,0c.29.56.57,1.12.85,1.68C362.25,27.2,362,26.64,361.68,26.08Zm3.4,0,1.7,1.68h-2.55Zm31.41,0c.29.56.57,1.12.85,1.68C397.06,27.2,396.78,26.64,396.49,26.08Zm75.56,0,.85,1.68Zm149.42.84c.09,1.15,2.82,1.35,4.24,1.68-.87-1.74-2.3-2.9-4.24-2.52Zm42.87,0,.42.84-.84-1.68Zm3.82,0v.84h2.55V26.08h-2.55Zm520.41-.84h1.7l-.84,2.52ZM119.73,28.18v1.26H118c.28,1.12.57,2.24.85,3.37,1.8-.77,4.77-1.41,4.25-3.37l4.24.84c-2.26-2-4.82-3.86-7.64-3.36Zm11.46.42c-.48,1.68.2,2.08,1.27,2.52.83-1.58.68-3.2-.84-4.2C131.47,27.48,131.33,28,131.19,28.6ZM298,26.92l1.7,1.68Zm42.45.84,1.7,1.68-2.55.84C339.9,29.44,340.18,28.6,340.46,27.76Zm118,2.52c.8,3,5.55,3,8.49,3.37-.22-3.11-6.11-4.44-9.34-5.89C457.9,28.6,458.18,29.44,458.47,30.28ZM502.61,29v1.26c1.43-.33,2.95-1,2.55-2.52h-2.55Zm112.49-.84,1.27.42-2.54-.84Zm150.69,0,.85.42L765,27.76Zm-651.15,2.1V32c1.56.4,2.2-1.09,2.54-2.52l-2.54-.84Zm1101.11-.84c1.61.36,3.88.71,3.39,2.52h-3.39Zm-908.4,1.68,3.4,2.53-5.1,1.68C306.22,33.93,306.79,32.53,307.35,31.12ZM77.28,33.65c-.28.56-.56,1.12-.85,1.68,2.52.11,5.76.28,5.95-2.52-1.6.81-3.23.67-4.25-.85C77.85,32.53,77.57,33.09,77.28,33.65ZM225,34.91c-.28,1-.56,2-.85,2.94h2.55c-.28,1.12-.57,2.24-.85,3.37,3.24.3,2.71-8.34,0-9.26C225.57,33,225.29,33.93,225,34.91Zm226.68-1.68.84.42-1.69-.84ZM51.81,35.33c-1.81,2.06-6.41,1.16-9.34.84.29,1.4.57,2.8.85,4.21-3,.53-4.35-3.63-7.64-1.69.29,1.13.57,2.25.85,3.37-5.44-2.52-7.72,8.21-11,8.41l.84-12.62c-3.77.4-2.76,6.08-8.06,3.79C12,39.79,6.58,45.15,0,43.74c-.2,1.64.64,1.64,3.82,2.1,9.48.95-2.58,5.72-.43,10.52.14-2.51,1.77-3.87,4.25-3.37-.24,2.95.12,5.93,2.54,7.57l-6.79-.84c1.77,1.1,1.52,3.16.85,5,5.1,1.7,7.85-5.44,11,2.52-1.93-3.41,2.08-8.14,4.24-10.09,1.47-1.38,6.93,1,6.79-2.52,1.72,1.47,4.7,3.12,4.25,5H28c1,5.71,6.66,5.39,11,3.37C38.51,61.4,38,59.72,37.38,58c2.59-.38,6.74-.38,5.94-3.36h6.8c-1,3.08,4.9,4.31,6.79,4.2-1.56-.37-1.88-1.85-1.7-3.36,1.93-.49,3.1,2.44,4.24,4.2,1.86-3.14,7-3.2,10.19-1.68-.28-1.68-.56-3.36-.85-5,2.29,2.66,5.09,4.84,8.49,4.21V52.15h4.25c.28-6.33-6.66-5.83-10.19-10.09,2.52-.11,5.76-.28,5.94,2.52L79,42.9c-2.12-2.51-4.9-4.87-7.64-2.52V36.17a4.26,4.26,0,0,1-4.24,4.21c.56-1.69,1.13-3.37,1.69-5.05-2.24-.51-3.82,1.46-5.09,3.36C62.55,34.38,55,32.38,51.81,35.33ZM222,34.49l-.42.84h1.69l-.84-1.68C222.31,33.93,222.17,34.21,222,34.49Zm57.31,0,3.39.84Zm725.86.84h.85c-2.23,1.92-.55,5.4-4.25,6.73C1000.05,40.85,1003.89,35.41,1005.2,35.33ZM73.89,36.59l.85.42L73,36.17Zm22.92,1.26,1.7.84Zm98.48,0c.28.56.56,1.12.85,1.68C195.85,39,195.57,38.41,195.29,37.85Zm-86.6.84c.57.56,1.14,1.12,1.7,1.69C109.83,39.81,109.26,39.25,108.69,38.69Zm45,.84v.85h2.55l-2.55-1.69ZM230.1,40.8c0,2,.47,2.45,1.69,2.94V38.69H230.1Zm-24.62,0-.85,1.26c2.88,1.69,6.72,4.7,9.34,4.2V44.58l3.39.84c-.28-1.12-.57-2.24-.85-3.36C212.6,46.06,209.09,36.1,205.48,40.8ZM58.61,40.38h2.54v1.68Zm188.47.42.84.42-1.69-.84ZM36.53,42.06l1.7,1.68Zm32.69.84,2.12.84H66.25C66.74,42.49,67.2,42.07,69.22,42.9Zm42-.84,2.55.84-.85,1.68Zm41.18.84c-.15.28-.29.56-.43.84l4.25.84V42.06C155,42.07,152.91,41.85,152.42,42.9Zm25.89.42c-2.42,1.17-2.68,2-2.55,3.78,3.09-2.53,6.81-4.87,10.19-2.52V42.06C183.31,42,180.82,42,178.31,43.32Zm17.83-1.26h2.54v1.68h-2.54Zm36.93,1.68-.43.84h2.55l-1.7-1.68Zm-132,0c.29.84.57,1.68.85,2.52C101.62,45.42,101.34,44.58,101.05,43.74Zm32.26,0,1.7.84Zm26.32.84v.84h-2.54v3.37c3.13.79,4.41-2.2,5.09-5h-2.55Zm59.85.42-.42,1.26,2.55-.84-1.7-1.68Zm794.21,0,1.7,1.26a2.69,2.69,0,0,0-3.4-2.52Zm61.12-1.26c.58.84,1.13,1.68,1.7,2.52l-3.39.84Zm-943.19.84c1.11,0,1.36,2.18,1.69,3.37l-4.24.84C129.69,47.36,130.46,44.64,131.62,44.58ZM152,45.84V47.1h1.7L152,44.58ZM63.7,45.42c3.72.44,4.17,6.63,0,5.89Zm-16.13.84L49.27,48Zm139.65,1.27,1.28.42L186,47.1ZM19.55,48c.29.56.57,1.12.85,1.68C20.12,49.07,19.84,48.51,19.55,48ZM0,49.63v.84l2.54-.84L0,48.79Zm56,.84c.52,1.66,1.12,3.81-.85,4.21C55.49,53.27,55.78,51.87,56.06,50.47Zm-27.17.84c2.31.78,4.84,1.8,5.1,4.21C30.9,56.14,28.9,54.45,28.89,51.31Zm22.07,0,1.7.84c-.28.56-.56,1.12-.85,1.68L50.12,53ZM9.37,53l.84,1.69Zm56,0,1.7.84ZM17.86,55.52,18.7,58H17C17.29,57.2,17.57,56.36,17.86,55.52Zm3.39,9.67.85,1.26V63.93H20.4ZM1320.17,74h.84v2.52h-3.39C1318.28,75.58,1319.13,74,1320.17,74ZM1461.1,89.16c.56.57,1.12,1.12,1.69,1.68l-2.55,1.69Z"/></g></g></svg>