<svg xmlns="http://www.w3.org/2000/svg" viewBox="0 0 1585.3 57.84"><defs><style>.cls-1{fill:red;}</style></defs><g id="Layer_2" data-name="Layer 2"><g id="Ñëîé_1" data-name="Ñëîé 1"><path class="cls-1" d="M1027.78,2.15c-1.31,1.87-1.8,2.19-3.3,2.08l.94-2.49h-4.71c.31.83.62,1.66.94,2.49-8.88-2.61-12.79,5.65-21.67,4.17,0-.56,0-1.11,0-1.66,2.46-.06,6.1.46,6.6-1.67C1001.33,6,994.8.68,991.49,3.42c2.29.24,4.38,1.15,3.77,3.32-5-1.5-5.76,3.49-9.42,3.32,5.21-5.27.06-8.5-6.61-8.29,0,1.1,0,2.21,0,3.32-7.67-.36-19.11-5.13-23.09.43-3,3.84-15.34-1.18-11.78,7.06-4.9-1.55-10-1.55-11.31,3.33,6-.35,7.58,4,13.67,2.07,4-1.22,5.25-.63,7.07,1.24,2-3.37,5.64-4.38,9.42-2.5-.63-1.38-1.25-2.77-1.88-4.15l14.13-1.67c-1.26,2.22-2.5,4.43-3.77,6.64a96.11,96.11,0,0,1,18.85-1.66c5.53-1.5,9.18,3.78,14.15.82-.63-1.11-1.27-2.22-1.89-3.32,6.07.27,24.57-2.16,25.45.81-2.36.28-4.44,1.19-4.71,3.32-8.45-8.14-14.63,2.56-23.57,1.68,1.78,3.28,4.27,6.71,8.49,5.81l-2.83-2.49c1.87-2.69,5.39-2,8.48-.84l-1.88-2.49c6.22-1.82,19.4,10.46,22.62,1.65,1.71,6.14,29.4-.6,30.16,5.79h-6.6C1061.81,33.3,1074,30,1082,29.1c-.25,2.13.57,2.52,4.72,3.32,6.46,2.55,10,4.8,18.85,5-4.24,1.86-9.3,1.19-14.13,0v3.32l8.48-.83c-9.66,4.07,23,5.66,26.39,6.62-3.45-5.1-12.26-2.87-17.91-6.63-.15-2.51,11.6-2.36,11.78-5,.4-1.79,1.8-1.71,3.3-1.66-.32.83-.62,1.66-1,2.49h9.43l-8.48.84c1.6,4.1,18,2.46,14.13-3.33h4.72c-.43,6.22,10.93,5.22,15.07,2.48-.3.83-.62,1.66-.93,2.49L1175.3,44c-2.71-1.71-4.42-5.28,0-5.81-2.23-.76-4.36-2-3.77-4.15h2.83c-.63-.55-1.27-1.1-1.89-1.66l7.54.83-1.89,2.49c6.06,1.49,10.23-2.8,14.14-4.16V34h-2.83l1,1.66c3.83-2.22,8.15-4.76,12.24-4.16V34h-3.77v1.66h3.77V34c7.41,2.44,14.08-2.58,23.56-1.67v2.49c5.14-1.17,6.78,2,9,4.56,3.15-.78,11.52-.15,14.13-1.67,5.51-3.31,12.13-6.33,20.26-5.41-.46,11.23,9.59.16,16,.82v2.49h-2.83c.25,3.24,4.67,1.55,7.54.82-8.44-4.57,7.74-6,11.31-2.5l-9.42,4.16c10.48-.65,25.94,12.48,29.21,1.64l-2.82.84c-1.29-6.54,6.63-5.74,12.25-5-.32.83-.63,1.66-.94,2.49H1344c-.56-2.24-4.83-1.55-7.55-1.65,8.72-5,16.59,4.42,25.45,4.13V38.07c3-.59,14,9.24,13.2.82,16.64-.52,28,1.63,45.24.81v1.66H1426c-.3.84-.63,1.67-.94,2.49h2.83c-.32-.82-.63-1.66-.94-2.49,14.8.4,42.07,2.38,56.55,2,6.9,1,21.42,5.11,28.27,1.22-.31,1.11-.63,2.22-.93,3.33,3.44.1,8.81-.59,10.37,1.65l1.87-3.32c.67,3.72,4.47,4.62,8.49,4.14l-2.83-1.66c7.25-2.08,5.22-9.67,0-13.28,3.79,1.9,23.59,3.21,26.39-.84,2.26,7.07,18.93-1.76,20.74,5.8,5.1,1.18,9.6-4.41,3.76-6.65h5.66c.43-7-5-9.57-13.67-10-8.64.64-7.23-3-13.67-2.48-.16-3.37,7.78-3.08,6.6-6.64h-4.72c.63-1.11,1.25-2.22,1.89-3.32l-13.2,1.67c7,13.1-19.56,8-26.38,6.65,3-2.76,17.71-.18,24.5,0-1.27-12.86-17.73-3.39-26.39-5.8.32-.83.62-1.66.94-2.49-6.24.13-9.54-1.37-12.26-5.39-8.33-4-23.69-4.84-31.1-.4.32-.83.62-1.66.94-2.49C1469.86,1.3,1467.63,9,1459,5.64L1463.68,4c-1.76-2.52-10.55-1.41-15.08-1.65.31.56.63,1.11,1,1.66-3.73,1.1-8.12.21-12.26-.82V5.65a3,3,0,0,0-3.77,2.49c-1.91-2.58-7.51.32-8.48-2.48h2.83c-.26-7.16-25.64.19-30.63-2.47C1380.16,2.06,1359,4,1343,5.29c-16.5,0-37.27-2.91-53.72-2.46-8.8,1.22-3.51,2.35-16.49,1.67-13.11-1.25-11.45,3.33-21.21.43V7.42l-3.77-.83c.62-1.11,1.26-2.22,1.89-3.32-6.56-1.57-9.18,3.21-14.15,3.33.33.55.63,1.11,1,1.66h-4.71c.32-1.38.63-2.77.94-4.15-4.47-.13-16.48-2.48-14.14,3.33-21-4.1-31.37-5.37-55.14-2.87-32.52-1.41-55.26.67-86.23-2.86L1079.14,5l-6.59.83V3.37h2.82V1.71c-4,3.82-19.95-3.62-19.79,4.16-3.76.56-7.82-1.11-2.82-3.32a14.77,14.77,0,0,0-9.44-2.48c.53,4.59-8.83,3-12.24,2.5L1033,.9C1031,.38,1029.14-.09,1027.78,2.15Zm-633.36,2C382,8.86,297.25-2.93,298.76,12.13h4.71c-.13,3.53-6.28,1.31-9.42.83,1.51-1.52-.56-3.44-1.89-5L295,7.15c-19.07-3.06-59.61,3.2-78.23.88l1.89,3.32c-3.46-.36-7.83-1.14-10.37,0,.31.56.63,1.11.94,1.66-4.81.8-6.18-3.61-11.31-2.48V8.87c-46.77-.13-84.69,7.74-129.59,8.38-9.08-.66-14.95-1.13-8.95,2.49L47.12,18.09c-.32,5-9.95,2.61-16,2.5-10.61-1.7-17.24,1.49-24.51,5.82l3.77,1.66c-.62.56-1.25,1.11-1.88,1.66l3.77.83L9.42,33.05,17,32.22c-7.39,2.91.69,11.35-2.81,14.94l6.59,1.66c-.31.83-.62,1.66-.94,2.49a22.68,22.68,0,0,0,6.6.83c-1.13-8.89,14.14-4.84,17.9-7.9,7.85-2,20.85-9.52,30.16-6.24-1.8.35-4.32.7-3.77,2.49,6.78-1.73,12.09-6.54,20.73-4.16-.31,1.66-.62,3.32-.94,5h1.89l-.94-1.66c8-.14,5.83-8,14.6-7.48,6.57.43,5.41-1.3,9-1.67-3.44,2.13,1.59,8.16-1.88,10l11.31-1.66-2.83-2.49c6.06-4,17.75.54,13.2,7.46,6.71-.23,10.69-3.17,8.48-9.13,4.1.89,16.38.34,15.08,4.14h-2.82c-.61,2,2.7,2.1,4.71,2.49-.79,9.48-7.8,5.14-15.08,7.48,3.16,1.13,7.12,4.16,9.43,1.24,3.14-1.89,14.46,1.84,16-3.75h-4.71c0-1.38,0-2.76,0-4.15,20,1.4,4.22,14.82,32.05,5l-6.6-1.66c6-1.86,8.57-5.28,16-3.33l-7.54,1.66c-.06,3,6.31,3.32,7.55.83,2.53-3.75,23.53-.33,23.55-5.82l3.78.82-1.89.83c4.39,5.77,9.9-3.79,15.08-2.5l-2.83,2.5c4.47-.25,8.84-1.71,3.77-5,6.78-.62,40.21-.88,29.21-5.83,5.74-4.78,11.48,6.4,17.91.82v1.67h2.83c-3-1.34-4.62-6.84,0-5l-.94,1.66c2.2,0,5.18.32,5.65-1.66,2.62,3,13.52-1.12,14.14,3.31h-2.83L316.68,32l-2.83.83c.54,2,1.32,2.47,5.19,2.49,5.31-.54,4.89,2.91,8.95,2.49v2.49c14.29-2,27.63-10.79,43.35-5V32.84c-3.86.32-7.76-.17-9.42-3.31,6.46-3,20.35.91,21.67-7.49,1.24,1.73,3.55,1.48,5.66.83l-.95-2.49L394,22c-2.27,1.42-3,3.56-1.88,5.81l5.65-1.67V29.5c-2.47-.53-3.5,1.31-3.77,3.33h3.77l-.94-2.49c4.65.63,17.1,5,14.14-1.67h6.59l-3.76,2.5,3.77.82c-1.53,2.73.05,4.19,3.77,4.57,4.21.9,5.39-5.27,9.89-4.16,5.23,1.8,8.12,3.49,14.61,2.07.19-4.1-6.43-3.29-10.37-3.32,3.61-1.45,9.67-3,8.48-6.64,3.91,2.17,13.74,7.79,15.08,2.48l12.26.82c0-.55,0-1.11,0-1.66,3.67,2.44,13.62,1,19.8.82.21,4.26-7.2,3.23-11.31,3.33,2,1.08,1.69,3.12.94,5,6.29.22,9-6.88,15.55-6.65,3.49,1.05,4.79,4.57,9.9,3.31q-1.41,1.66-2.83,3.32h7.54c-.58-2.4-1.4-5.63,1.89-5.81l-6.6-1.66c.55-2.54,7.93-1.41,11.31-1.67-.32,1.11-.63,2.22-.94,3.32,2-.38,5.31-.5,4.71-2.49h6.59c3.71,6.4,15.86-.71,22.63,1.65v-2.5c4.22.23,7-5.74,12.25-4.15l-1.88-2.49c-.11,3.18-11.21-.69-11.31,2.49l1.88.83c-2.66.51-8.73,1.71-8.48-1.65-6.39.13-11.31,3.08-16,3.33V22c-3.92.14-11.13,1.34-13.2,0,2-1.07,1.43-2.77,0-4.16,4,1.64,6.57-.61,4.71-4.15,7.88-.17,3.78-13.47-1.89-5.81l1.89.83c-10.41,2.46-11.7-4.31-25.92-3.3-22.76-.54-45-2.24-66.45-2.46V4.58C417.64,2.72,403.11,1.55,394.42,4.19Zm448.63-.27c-.38,2.22-2.3,2.55-4.24,2.91L841.64,11c-4.75,1.28-7.1-2.37-10.37-2.9-5,1.56,1.2,2.74,3.77,2.9-.32.56-.62,1.11-.95,1.66,5.49,1,7.08,5.32,13.2,4.15-3.33,4.8,13.29,11,14.15,5h-5.66c.94-1.38,1.89-2.77,2.82-4.15l-11.31-.82,1.89-2.49-2.83-1.66c4.12-.37,6.72-2.47,3.76-5.82l4.72-1.66-4.72-.83L852,1.84C849.18,1.91,843.51,1.26,843.05,3.92Zm-221.49,1c-4.31,1.73-17.91-2.14-16.49,6.24,6.26-5.44,14.25,6.72,20.74,2.48-.13,3.12-5.36,2.45-8.48,2.49,5.76,3.95,13.41,2.1,18.85,0l-.95,2.49c12.78,2.6,19.84-5.54,27.34,5.8-2.15,3.4-5,7.75-9.42,5.82,3,2.93,9.17,2.51,14.14,2.48l-3.77-3.32c3.87,0,6.19-2.65,7.53-5.82H665.4c1.85-5.5,11.48.78,16.49,0,6-.3,6.21-3.72,12.72-3.33l-8.48-1.66c.28-2.36,3.08-3.38,5.65-4.15-.31-.56-.63-1.11-.94-1.66,2.79.13,4.33,1.71,3.77,4.15,8.23-6.66,12.93,1.85,2.83,2.49.32,1.1.63,2.21.94,3.32,3.88-3.07,11.12-2.09,17-1.67-2.8.29-5.51,1.07-6.6,3.32,3,.64,5.38,2.28,3.78,5,7.82,1.47,9.79-4,1.88-5.81,2.32-1.49,6.65-3.86,7.06-5.82.41-2.58,17.71-.85,18.38-3.75,6.27-7.65-24.46-12.88-27.34-6.21,3.55-.28,7,.32,9.43,2.49l-9.43-.83c-.21,3.1,10.3,1.61,11.31,5-8.78,3.35-11.13-2-17.9-4.14l3.77-1.66c-7.71-6.68-23.6-2.93-33-5l6.59,2.49c-7.52,6.27-14.46-5.55-24.5-2.47.31,2.07,1.35,3.9,3.77,4.14-.5,2.13-4.14,1.62-6.6,1.67v-5c-4.37-.43-10.79,1.81-16,3.33l9.43,4.14c-4.82-.69-22.44.5-21.68-2.48h4.71C634.58,5,624.17,2.85,621.56,4.88ZM762.47,4.8l-4.72,1.25c2.42,2.8-3.43,3.46-2.82,5.81h7.54V8.54H771c-1.73,2.84-3.82,6.68-7.54,5.82V12.69l-8.48,1.66a4.14,4.14,0,0,0,7.54,0c-.61,2.13-1.22,4.64.94,5.81-3.51-.34-14.71-.22-15.07-2.07-.4-2.78-5.1-3-7.54-2.07l2.82,2.49c-35.72-1.08,12.76,8.35,23.57,5.8-.64-1.39-1.26-2.77-1.89-4.15,4.23,2.3,12,.69,17.9,0-3.06-.69-5.42-3.87-2.35-5.81,1.86-1.76-1.35-5.17,2.35-6.65H772.84l3.76-3.32C771.85,3.9,767.18,3.43,762.47,4.8Zm51.36,0c-.91,1.75-9.42.52-12.72.42-.19,1.57.61,1.76,3.77,2.91,5.65,1.38,1.7,4.47,7.54,5,3.9.39,8.41-3.2,9.43-5.81C822.62,4.94,814.48,2.86,813.83,4.77Zm24.5-.84,1.41.41-2.82-.83Zm84.36.78c-4.22,2.52-.22,3.36,2.83,3.73-1.25,1.39-2.52,2.77-3.77,4.15,6.13,1.06,12.19.63,14.13-5-2.89-.74-7.46-1.29-6.59-4.14C927,3.42,924.58,3.34,922.69,4.71Zm17.91.82L936.83,7.6c4.17,1.79,6.85-2.67,11.31-1.66C948.19,2.72,943.86,3.58,940.6,5.53Zm381.71-1.47.94.83-1.89-1.66ZM861,5.16l-.48.83h4.72l-3.77-1.65C861.27,4.6,861.11,4.88,861,5.16ZM448.61,5.4l5.66.83ZM532,6.6c2.8,1.86,8.23.78,7.08,5.39l-4.72-.83c-.43,8.68,14.15,8.17,21.68,5.8-2.82-4-7.14,1.23-11.31-.83,3.36-7.39-7-9.77-14.14-10.78ZM742.2,6.47l-.47,1.25h3.78l-2.84-2.49C742.52,5.64,742.35,6.06,742.2,6.47ZM893.94,6c.74,1.1,4.2.23,6.13,0l-6.6-.82C893.63,5.41,893.79,5.69,893.94,6ZM965.1,5.1c3.09.36,7.33.46,7.54,3.31Zm49,0,3.77.82Zm525,.1c-6.86.43-8.67.84-12.25,2.92,5.45,9.48,15.64.45,24.51.4,5.14-.42,6-1.08,5.65-3.74C1550.81,4.73,1546.39,4.75,1539.08,5.17ZM874.62,7.64l-.94,1.66,7.54-1.66C880.76,5.37,875.59,5.42,874.62,7.64Zm188.5-1.77h7.54V7.52h-7.54ZM1355.3,5.7l1.88,1.66Zm85.76,0c2.45,0,6.1-.47,6.6,1.65C1445,7.81,1441.25,8.54,1441.06,5.65ZM1189,7l1.41.41c-.45,1.94-2.87,1.34-4.71.84C1186.54,7.45,1187.45,6.52,1189,7Zm50.42-.44,3.77,1.65Zm102.73-.07h2.83V8.19h-2.83Zm74.46,0h1.88V9h-1.88ZM1058.88,8c2.21.37,2.49.84,2.36,2.07l-5.65-.83C1056.12,8,1056.64,7.53,1058.88,8Zm-500.94,2c1.16,1.36-.11,3.14-.93,4.57,5.91,2.59,15.23-.61,22.61-2.51l-.94-1.66c-5.34,2.56-12.07-.94-18.85.84V8.65H557C557.32,9.07,557.63,9.49,557.94,9.9Zm232.33-.55-.47.83h5.65C793.85,9.68,791,8.26,790.27,9.35Zm122.05-.49-.94.42c.54,2.25,6.41,2.56,9.43,3.31C921.06,10,914.28,8.24,912.32,8.86Zm69.75.38c4.88.77,5.68,3.35,1.89,5,0-3.18-3.39-3.65-6.6-3.32C977.85,9,978.53,8.44,982.07,9.24Zm265.78-1c1.92.38,1.7,1.94.94,3.32C1248.48,10.46,1248.17,9.36,1247.85,8.25Zm238.92.69.48.83-3.77,1.66-1-2.49C1483.9,8.67,1486.16,7.87,1486.77,8.94Zm83-.46-1.42.41c.63.83,1.27,1.66,1.89,2.49-2.49.27-5.45.85-4.71,3.33l12.25-2.5C1575.59,9.63,1573.24,6.94,1569.72,8.48Zm-756.36.86,3.77.82Zm221.49-.13,6.59,3.31C1039,13.88,1032.68,12.07,1034.85,9.21ZM1434.46,9c2.1-.37,3.48.66,3.78,2.49A3,3,0,0,1,1434.46,9ZM590,12.37c.32.69.63,1.39.94,2.08-5.51.05-12.64-5-13.19,3.33l13.2-1.67c-5.37.21-10.8,5.4-3.77,7.47q-1.41,1.67-2.83,3.32c2.46.05,6.09-.46,6.6,1.66-.72-6.06,14.41.59,10.37-6.65a10.71,10.71,0,0,1-8.49.84c8-5.3,3.1-7.21.94-12.45h-4.71Zm35.81-2.09h1c-.52,2-4.12,2.08-6.6,2.49C621.85,11.89,624.57,10.28,625.8,10.28Zm52.79,1.21,2.82,1.24a13,13,0,0,1-10.36,3.33c-.55-1.79,2-2.14,3.77-2.49C673.29,10.76,675,9.64,678.59,11.49ZM856.72,11c-3.19.8-4,.94-3.77,2.49,5.23,0,12,.54,15.08-2.5C864.25,10.5,860.49,10,856.72,11Zm551.83-1.15H1410v1.66h-4.7A4.43,4.43,0,0,1,1408.55,9.82ZM316.67,11.29c1.23,0,1.51,2.15,1.88,3.32l-3.77-.83C315.16,12.83,315.5,11.26,316.67,11.29Zm10.36,0,3.77.83ZM822.79,13.9c4.52,8.9,8.26-5.26-.94-2.91C822.16,12,822.47,12.93,822.79,13.9Zm71.63-1.71c.05,1.72,5.4,1.75,7.54,2.07L894.42,11Zm54.66-.86,1.89.42c-.64,2.29-7.86,3.67-11.31,5C943.92,16.11,945.66,11.43,949.08,11.33Zm103.68-.47h2.83v1.66Zm138.54-.09c3.31.07,4,.15,4.72,1.66-8.42-.22-13.9,5.58-18.85,7.48C1176.25,13.66,1185.54,10.69,1191.3,10.77Zm44.3,0c.64.27,1.25.55,1.89.83-.31.55-.64,1.11-.94,1.66l-1.89-.83C1235,11.86,1235.29,11.3,1235.6,10.75Zm79.17-.05c1.72,1.73,3.26,3.8,1.89,5.81L1311,14Zm113.1.35,1.89.41c-4.16,3.1-10.15,4.23-16,5l1.88-2.5-2.83-1.66C1418.45,13.75,1423.47,11.73,1427.87,11.05Zm153.63,1.16v1.66h1.89c-.63-1.1-1.27-2.21-1.89-3.32ZM507.05,12h4.71v1.66Zm93.78,4.92c.59,10.19,15.35,7.19,6.13,1.66.63-1.38,1.25-2.77,1.88-4.15L599.42,12Zm58.43-4.6c3.86.41,4.64.89,5.19,2.9-6.58,2-9.35-2.28-15.08-.82C652.48,12.93,655.09,11.82,659.26,12.33Zm445.81.15c3.1.77,3.7,1.51,4.24,3.32l-8.49-2.48C1101.46,11.86,1102.11,11.79,1105.07,12.48Zm286-1,3.78.82-3.78.84ZM305.36,13c2.34-.29,4.47.29,4.71,2.49Zm20.73,0L328,14.6h-2.83C325.46,14.05,325.78,13.5,326.09,12.94Zm460,.56c-8.73,2.78,5.86,3.43,9.42,4.15q-.93,2.49-1.89,5c7.65,2.1-2.34,4.7-.93,8.3,6.33-7.14,15.13-10.68,25.44-10.8C820.32,15.36,787.4,12.59,786,13.5Zm54.66-.86c.63.56,1.24,1.11,1.89,1.66h-2.84Zm359.09-.21,2.82.83-1.87.83C1200.41,13.54,1200.11,13,1199.79,12.43Zm200.75-.12h1.88c1.41,4.21-6.47,3.71-10.36,4.16,1.84-2.38,5.18-2.73,8.48-2.5Zm-369.46,1L1033,15Zm-349.67,1,1.89,1.66Zm366.64-.21c.63.55,1.25,1.11,1.89,1.66l-2.84.83C1047.43,15.84,1047.73,15,1048.05,14.18Zm202.63-.12c2.81.29,5.5,1.07,6.61,3.32h-6.61Zm77.29.79,4.72,1.65H1328Zm15.08,0,2.82.82Zm145.14-.09,8.48.83C1493.68,15.93,1489.68,16.91,1488.19,14.75Zm85.3,1.2c-6.84,4.85,9.74,6.61,11.78,3.73C1584,16.89,1576.73,14.09,1573.49,16ZM798.28,16l3.77.82C800.49,17.48,798.71,17.68,798.28,16Zm32.05,1.22-.94,1.25,5.66.83-3.78,3.32,8.49,3.31c-1.6-2.69.72-4.33,3.77-5C839.94,20.33,835,13.89,830.33,17.21Zm77.29,0-2.83,1.24c3.15.27,7.94,1.44,9.42-.83C912.11,16.54,910.38,15.83,907.62,17.17Zm17.9.4c.93,1.83,2.3,1.32,3.78.83a4.39,4.39,0,0,0-4.72-2.49C924.89,16.47,925.21,17,925.52,17.57Zm113.1-1.31,3.78.41a10.75,10.75,0,0,1-9.43,1.67C1034.13,16.53,1035.05,15.83,1038.62,16.26Zm151.75-.5,1.88,1.66a10.73,10.73,0,0,1-8.48.83C1186.22,17.79,1191,18,1190.37,15.76Zm181-.11,4.71.83C1374.17,17,1371.78,17.58,1371.33,15.65Zm-508,2c-4.81,3.46,2.8,3,5.65,1.66C868.55,16.47,866,16.26,863.32,17.61Zm11.3.41c0,.41,0,.83,0,1.24l3.77-.83-3.78-1.66Zm102.27.77-3.3,2.07c4.06.59,8.75,1.81,7.55,5.81,5.47.43,3.48-6.8,8.47-7.48C985.56,18.08,980.35,16.3,976.89,18.79Zm188-2.19,2.82,1.66H1164C1164.28,17.71,1164.61,17.16,1164.92,16.6Zm365.69-.21,1.88,1.66ZM264.83,18l1.89,2.49h-1.89Zm155.51-.09h2.83v2.49Zm471.72,1.38,2.36,1.66c-2.75.15-8-.67-8.48,1.67,4.16.87,9.16,2.13,12.25,0-.93-3.16-4.81-4.26-8.48-5Zm40.06-.44v1.25h5.66l-5.66-2.49Zm112.15-1.31,2.83.83Zm531.58-.31,3.77.83Zm-1344.48,2c6.76.32,3.53,6.49-1.88,4.56C223.2,22.27,225.33,17.58,231.37,19.23ZM682.83,19l1.41.41c-.23,3.25-4.66,1.57-7.53.84C678.61,19.54,681.23,18.42,682.83,19Zm454.76-.68h3.77v1.66h-3.77ZM426,19.53l3.77.82Zm163-.1,2.83.83Zm372.29,2.69c2.21,3.51-4.94,6.23-2.82,8.72,5.3-1.85,6.22-6.74,5.65-11.63h-3.78C960.71,20.18,961,21.15,961.34,22.12Zm133.83-3L1099,20l-3.78.83Zm-648.9,1.21h1.41V22h-3.77C444.37,21.1,444.8,20.28,446.27,20.34Zm189.44,2.8c-2.39,8-8.11-4.42-11.78,3.74,3.57,1.9,8.06,1.13,12.25,0-1.54,4.71,5.88,5.13,10.37,5.81-1-4.07-6.92-3.44-6.6-8.3.1-3.29-1.34-3.77-3.77-4.15C636,21.2,635.87,22.17,635.71,23.14Zm517.9-3.21h4.71v1.66h-4.71Zm398.68.59,3.77.83C1554.49,22,1552.72,22.22,1552.29,20.52ZM507.06,22c2.57-.2,5.45,0,5.65,2.49C510.32,25.82,508.42,23.9,507.06,22Zm144.67,2L650.32,26h2.83v2.49H655c-1.65-1.63,1.12-3,2.83-4.15l-4.72-2.49ZM778,22.23c-3.15.35-4,1.19-5.17,2.9,3.65.42,10.23,2.22,12.24.83-.63-.83-1.24-1.66-1.88-2.49h5.66V21.8A80.49,80.49,0,0,0,778,22.23Zm92.37-.06,1.41.41L869,21.76Zm53.25.8-.94,1.24c4.08.1,5.76,3.82,8.48,4.15-.57-2.44,1-4,3.77-4.15C933.38,21.54,925.76,20.75,923.64,23Zm482.56-1.53c.63.83,1.25,1.66,1.89,2.49l-2.83-.83C1405.57,22.55,1405.88,22,1406.2,21.44ZM730.43,23.91v1.25h4.72c-.24-2.2-2.39-2.79-4.72-2.49Zm86.23-.46c.17.27.33.55.48.83l.94-1.66H816.2Zm272.86-1h1c-.33,1.38-.63,2.76-1,4.15L1083.87,25C1085.57,24.07,1088.28,22.47,1089.52,22.46ZM12.25,23.92h2.82v1.66ZM394,23.7l2.83.82Zm11.31,0c2.34-.3,4.47.29,4.71,2.49C408,25.79,404.67,25.68,405.27,23.69Zm19.32,0H427l-3.77,2.49c4.18-.61,7.71,1.22,10.37,4.14l-16-1.65,1.89-2.49-1.89-.83A19.9,19.9,0,0,1,424.59,23.68Zm450.51.56c-.15.28-.31.56-.47.83h2.84c-.65-.55-1.26-1.1-1.89-1.66ZM246,24.61l5.65.83c-.31.83-.62,1.66-.94,2.49C248.7,27.17,245.41,26.54,246,24.61Zm442,.57V26h2.83L688,24.35Zm33.46,0L721,26h5.65C725.08,25.5,722.22,24.07,721.48,25.16Zm141.84-.08.95.83c-.64-.55-1.26-1.1-1.89-1.66Zm-713.47.42h2.83L151.74,28Zm738.45,0,1.41.41-2.82-.82Zm32.05,0,2.35.42L918,25.05Zm-733.74.85c2,.76,5.29,1.39,4.71,3.32h-3.77v2.49c-5.07.49-10.21-1.18-15.09-3.31,1.77-2.8,9.32.81,13.2,1.65C186,29.08,186.3,27.69,186.61,26.31Zm171.06.31c10.36,1-6.18,7.41-7.53,6.23-.83-1.26,3.92-3.06,2.82-4.56C352.35,25.77,354.69,26.41,357.67,26.62Zm28.28,0,1.41.41-2.83-.83Zm171.53.31c.63,1.07,3.49.8,5.19.83V26.09H557C557.17,26.37,557.33,26.64,557.48,26.92Zm146.09-.09,2.36.83V26h-4.72Zm120.64.35c-.15.41-.31.83-.47,1.24h2.83c-.64-.83-1.26-1.66-1.89-2.49Zm83.88-.47,1.41.83V25.88h-2.82Zm131.48.34-.94,1.25c2-.39,5.31-.51,4.71-2.5C1041.89,25.76,1040.48,25.71,1039.57,27.05Zm9.42,0c1.07,1.52,4.36,1.23,6.61,1.24l-7.55-2.49Zm-705.93,0h6.6c1.1,3.25-5.43,2.88-8.48,3.33l1.89,2.49c-2.23,1-9.55,1-10.37-1.66l-3.77,1.67C329.4,26.66,336.1,27.31,343.06,27.05ZM196,28c3,.47,8.91.16,9.42,2.49h-7.54c-.87,2.86,3.7,3.4,6.6,4.15-1.32,4.54-17.54,8.75-11.78.84,2.32-2.37,1.89-3.39.47-5H197C196.66,29.62,196.35,28.79,196,28Zm24,0c2.58-.12,2.89,1.67,3.3,3.32h-8.48C214.27,28.36,217,27.87,220.07,28Zm31.57,0,6.6,1.66-6.59.83C251.64,29.59,251.64,28.76,251.64,27.93Zm483.51,1c-.31.42-.64.83-.95,1.25H738v-2.5A2.68,2.68,0,0,0,735.15,28.89Zm159.28-.51,1.88.83-3.77-1.66Zm-490.1.29,1.88,1.66Zm-246.94,1h3.77c0,.56,0,1.11,0,1.66Zm216.78.28c-1.85.37-2,1-1.88,2.08,3.88.17,10.61-.72,12.25,1.65-3,.58-6.37,1-8.48-.82V37C395.07,36.1,389.47,26.43,374.17,29.93Zm194.16,2.8-5.66,3.32,12.26.82c-1.51-3.06.36-5.45,3.76-6.64C575,29.37,573.49,29.75,568.33,32.73Zm53.72-2.53c-2.16.84-3,3.7-3.77,5.82h3.77l-1.89-2.48c2.26-1,7.31-2,6.6-4.16A9.3,9.3,0,0,0,622.05,30.2Zm461.82-1.1h4.71C1089.18,31.82,1083.72,32,1083.87,29.1ZM149.38,30.9l6.13.41c-5.75,3.07-12,1.17-17.91,2.5C138.09,30.12,144.26,30.82,149.38,30.9Zm17.44-.43,4.71.83Zm371.34.61c0,.28,0,.56,0,.83h4.71l-4.72-1.66Zm146.09-.5,1.89.42-3.77-.83Zm30.63,2.06-2.35,2.49,16-.84c-2.23-.76-4.36-2-3.77-4.15C721.22,30.08,717.23,29.86,714.88,32.64Zm181.43-1.77c.3,1.24,7,1.35,9.43,1.66-2.47-2.17-5.89-2.77-9.43-2.49Zm157.4-.09v.83h6.6c0-.56,0-1.11,0-1.66h-6.59Zm69.75-.87c4.36.18,11.91-.94,13.19,2.48C1132.34,33.89,1124.59,34.72,1123.46,29.91ZM.47,33.06c-.16.55-.31,1.11-.47,1.66H6.6c.61-2.08-3.42-2.56-5.66-3.32C.78,32,.63,32.51.47,33.06Zm459-.69-1.42,1.25,13.2.82C469,31.34,462.65,29.85,459.47,32.37Zm1121.1-1.9,2.83.83ZM594.24,32.71c-.15.28-.31.55-.47.83h3.77V31.88C596.37,31.88,594.74,31.72,594.24,32.71ZM893,32.12l1.41.41-2.83-.82ZM1072.56,32l-1.89.42c-.18,4.1,6.45,3.29,10.38,3.31,0-1.38,0-2.76,0-4.15C1078.31,31.59,1074.62,31.52,1072.56,32Zm181.9-.52h1c-.21,2.5-3.08,2.7-5.66,2.5C1248.94,32,1253.13,31.52,1254.46,31.49ZM899.15,33.36l.94.83-1.89-1.66Zm409-1.07,3.78,3.32-10.37.84C1304.86,36.25,1308.17,35.38,1308.18,32.29ZM173,33.79h1.41c1.17,3.65-4.08,3.88-7.54,4.15C168.58,36.43,171.17,33.77,173,33.79ZM449.1,34.87l-.47,1.25,2.83.83c.31-.84.63-1.67.94-2.5l-2.83-.82C449.41,34,449.26,34.46,449.1,34.87Zm49.48-.44c.32.27.63.55.94.83-.62-.56-1.25-1.11-1.88-1.66Zm510.37.94-.48,1.25c2.24-.43,6.28-.35,5.66-2.5C1012.32,34.15,1009.47,33.82,1009,35.37ZM1246,34l1.89,1.66-3.77.83ZM212.53,36.25l2.36.83h-3.77L213,38.75c-1.62.24-3.25-.75-4.72-1.66C209.41,36,210.25,35.39,212.53,36.25Zm138.08.34-.94,1.24,4.71-.83-2.83-1.66Zm55.61.8-8.48,1.25c8.26-.19,16.19,5.2,24.5,4.13l-2.82-2.49,13.19-1.66C422.45,39.49,417.55,35.32,406.22,37.39Zm31.57-.85,1.42.41-2.83-.83Zm66,.37c.15.28.31.56.47.83l1.88-.83-2.83-.83ZM259.19,38.72l-2.83,1.66c2.78.15,5.56-.09,7.54-1.66C262.64,37.39,261.83,37.15,259.19,38.72Zm928.36-.55.94,1.66-4.71,1.67L1194.15,44c-1.93-1.75-1.72-4.26-.94-6.64l-6.61-.83Zm14.14-.42L1199.8,39c1.34.37,2.18,1.24,1.89,2.49h-2.83c3.07,7.57,15.87-3.22,20.74.4,3.15,3.12,12.63,2.83,11.31-2.08-.23-2.46-15.59-.15-16-2.07C1213.76,35.88,1203.11,36.29,1201.69,37.75Zm-1023.56.19,2.83.82ZM189,40.42l3.3,2.49c-5.18-.47-11.16-1.18-15.08.84C180.53,41.48,185.24,37.24,189,40.42Zm114.52-1.31-2.83,1.24c4.92,7.32,16.36-1.57,25.45,1.65C324.34,38.59,306.73,37.49,303.49,39.11Zm49.95-.86-3.77.42.94,2.48c-2.07.26-3.25,1.5-2.82,3.33,5.36-1.14,13.48-1.85,14.13-6.65A60.68,60.68,0,0,0,353.44,38.25ZM704.52,38l1.41.42-2.82-.83Zm335.06-.2,1.88.42c-.31,1.11-.62,2.21-.94,3.32l5.66-.83a9.39,9.39,0,0,0-8.49-3.32Zm31.57.82-1.41,1.24h8.48C1076,39,1072.84,37.08,1071.15,38.66Zm-902.91.94,2.36.83-7.54.84C164.46,39.93,165.8,38.61,168.24,39.6ZM270,39.54c-.62,1.08-3.49.8-5.18.84v4.15c4.81-2.84,15.08,2.09,16.49-4.58C281.54,38.31,270,38.44,270,39.54Zm23.56,0-.47.83H296l-1.89-1.66Zm976.9-.16-.94,1.25C1282.84,43.82,1281.15,34.67,1270.49,39.37ZM509.9,40.65c.31.41.62.83.94,1.24l.94-2.49H509Zm236.56-1,2.83.41-5.65-.83Zm20.74,0,1.88.41-3.77-.83Zm289.82.24.46.83,1.89-.83-2.83-.83ZM1210.17,39h.94v2.49l-4.71-.83C1207.53,40,1209.1,39,1210.17,39Zm330.34.64-.46.83h4.71c0-.55,0-1.1,0-1.66C1543.32,38.81,1541.06,38.59,1540.51,39.63ZM95.2,41.31v.83H98V40.47H95.2Zm287,3.15c-.16,1.38-.31,2.77-.47,4.15h4.71c0-1.94.36-4.57-1.89-5L388.31,42l-5.65-1.65C382.5,41.69,382.35,43.07,382.19,44.46Zm357.67-3.53.95.83-1.89-1.66C739.24,40.37,739.55,40.65,739.86,40.93Zm311-.6,1.89.41-3.78-.83Zm89.54,1.19v1.66l7.54-.83c-.21-3-4.5-2.52-7.55-2.49C1140.43,40.41,1140.43,41,1140.43,41.52ZM128.66,43.36c1.69,1.34.39,3.1-.47,4.57l5.65-2.5-6.6-3.31Zm156,.32-4.71,1.67c4.61.72,9.72,1,12.25-2.5C289.82,42,288.85,42.27,284.64,43.68Zm745.51-1.26v.83l6.61-.84-6.61-.82Zm40.07.8-1.42.83h5.66V42.39A7,7,0,0,0,1070.22,43.22Zm199.33.3,1.89.41-3.78-.82ZM1529.68,43l-.94,2.49ZM1380.3,45.12l2.35,1.24a4.38,4.38,0,0,0-4.72-2.49Zm-287.47,1,1.42.41-2.83-.83Zm425.54-.67c-.31.56-.63,1.11-.94,1.66C1517.74,46.56,1518.06,46,1518.37,45.45ZM53.26,48c-1.52.82-1.06,1.59-.47,2.49a6.67,6.67,0,0,1,6.6-.83C60.22,47.35,54.67,46.93,53.26,48Zm265.31,1.51,1.89.83V48.64h-3.77Zm-105.08,3,2.35.42L211.13,52ZM214.9,57l.95.83L214,56.18Z"/></g></g></svg>