<svg xmlns="http://www.w3.org/2000/svg" viewBox="0 0 32 32"><defs><style>.cls-1{fill:#ffd4ca;}</style></defs><g id="Layer_2" data-name="Layer 2"><g id="Layer_1-2" data-name="Layer 1"><path class="cls-1" d="M16,23.65A16.06,16.06,0,0,0,8.34,16,16.06,16.06,0,0,0,16,8.35,16.06,16.06,0,0,0,23.64,16,16.14,16.14,0,0,0,16,23.65Zm14.48-9.18A13,13,0,0,1,17.53,1.53a1.53,1.53,0,0,0-3.06,0A13,13,0,0,1,1.53,14.47a1.53,1.53,0,0,0,0,3.06A13,13,0,0,1,14.47,30.47a1.53,1.53,0,0,0,3.06,0A13,13,0,0,1,30.47,17.53a1.53,1.53,0,1,0,0-3.06Z"/></g></g></svg>