<svg xmlns="http://www.w3.org/2000/svg" viewBox="0 0 29 54"><defs><style>.cls-1{fill:#f8dbd6;}</style></defs><g id="Layer_2" data-name="Layer 2"><g id="Layer_1-2" data-name="Layer 1"><path class="cls-1" d="M29,16.93c-.5-5.54-7.3-6.28-11.59-7.33l-1.94-.48L15.6,9A56.34,56.34,0,0,1,22,4.67,2.51,2.51,0,0,0,20,.1,28.16,28.16,0,0,0,10.6,4.7c-2.7,2-4.63,5.57-1.94,8.51,2.28,2.49,6.55,2.82,9.66,3.58l3.59,1.1a.49.49,0,0,0,0,.11c-.46.36-.83.91-1.26,1.32C16.17,23.55,10.1,25.68,5.43,29.68a7.82,7.82,0,0,0-2.89,4A4.83,4.83,0,0,0,5,38.86a17.14,17.14,0,0,0,5.14,1.73,12.25,12.25,0,0,1,1.94.58,24.31,24.31,0,0,1-3.81,3,36.75,36.75,0,0,1-6.55,3.57C0,48.45-.42,50.93.44,52.38c1,1.75,3,1.95,4.72,1.22A37.43,37.43,0,0,0,13,49.07c2.08-1.57,4.69-3.41,5.87-5.78,1.47-2.95-.49-6.18-3.06-7.77a17.08,17.08,0,0,0-4.89-1.58l.28-.22c.95-.71,1.95-1.35,3-2,1.94-1.2,4-2.31,5.88-3.54C23.87,25.78,29.44,22,29,16.93Z"/></g></g></svg>