<svg xmlns="http://www.w3.org/2000/svg" viewBox="0 0 59 59"><defs><style>.cls-1{fill:#ffd4ca;}</style></defs><g id="Layer_2" data-name="Layer 2"><g id="Layer_1-2" data-name="Layer 1"><path class="cls-1" d="M55.9,51.77,40.91,37a2.86,2.86,0,0,0-2-.83h0a2.85,2.85,0,0,0-2,.86,2.9,2.9,0,0,0,0,4.11l15,14.77a2.89,2.89,0,0,0,2,.84h0a2.91,2.91,0,0,0,2-5ZM29.8,7A16.15,16.15,0,0,0,7,7a16.18,16.18,0,0,0,22.85,22.9A16.24,16.24,0,0,0,29.8,7ZM59,53.81A5.16,5.16,0,0,1,53.91,59h0a5.07,5.07,0,0,1-3.6-1.48l-15-14.77a5.17,5.17,0,0,1-.68-6.51l-4-4a18.43,18.43,0,1,1,1.58-1.58l4.06,4.07a5.16,5.16,0,0,1,2.64-.75h0a5.09,5.09,0,0,1,3.61,1.48l15,14.75A5.1,5.1,0,0,1,59,53.81Z"/></g></g></svg>