<svg xmlns="http://www.w3.org/2000/svg" viewBox="0 0 90 90"><defs><style>.cls-1{fill:#feccc3;}</style></defs><g id="Layer_2" data-name="Layer 2"><g id="Layer_1-2" data-name="Layer 1"><path class="cls-1" d="M69,3H87v7.43H78a1.5,1.5,0,0,0,0,3h9v3.68H83.25a1.5,1.5,0,0,0,0,3H87v3.75H83.25a1.5,1.5,0,0,0,0,3H87V30.6H78a1.5,1.5,0,0,0,0,3h9V37.3H83.25a1.5,1.5,0,0,0,0,3H87v3.75H83.25a1.5,1.5,0,0,0,0,3H87v3.71H78a1.5,1.5,0,0,0,0,3h9V57.5H83.25a1.5,1.5,0,0,0,0,3H87v3.75H83.25a1.5,1.5,0,0,0,0,3H87v3.68H78a1.5,1.5,0,0,0,0,3h9V87H69ZM67.48,90h21A1.49,1.49,0,0,0,90,88.5V1.5A1.49,1.49,0,0,0,88.51,0h-21A1.5,1.5,0,0,0,66,1.5v87A1.51,1.51,0,0,0,67.48,90Z"/><path class="cls-1" d="M46.48,7.47v9.65H44.82a1.5,1.5,0,0,0,0,3h1.66v3.75H44.82a1.5,1.5,0,0,0,0,3h1.66v3.75H41.67a1.5,1.5,0,0,0,0,3h4.81v3.71H44.82a1.5,1.5,0,0,0,0,3h1.66v3.75H44.82a1.5,1.5,0,0,0,0,3h1.66v3.71H41.67a1.5,1.5,0,0,0,0,3h4.81v3.75H44.82a1.5,1.5,0,0,0,0,3h1.66v3.75H44.82a1.5,1.5,0,0,0,0,3h1.66v3.67H41.67a1.5,1.5,0,0,0,0,3h4.81V78H44.82a1.5,1.5,0,0,0,0,3h1.66v6H4ZM1.49,90H48a1.5,1.5,0,0,0,1.49-1.5V1.5A1.49,1.49,0,0,0,46.66.8L.18,87.79a1.48,1.48,0,0,0,0,1.48A1.51,1.51,0,0,0,1.49,90Z"/></g></g></svg>