<svg xmlns="http://www.w3.org/2000/svg" viewBox="0 0 66 65"><defs><style>.cls-1{fill:#ffc9bd;fill-rule:evenodd;}</style></defs><g id="Layer_2" data-name="Layer 2"><g id="Layer_1-2" data-name="Layer 1"><path class="cls-1" d="M60.12,34.11c-2-8.39-1.92-16.48-2.16-25a3,3,0,1,1,6-.17c.24,8.07,0,15.76,2,23.74a3,3,0,1,1-5.79,1.43Z"/><path class="cls-1" d="M42.7,50.39A188,188,0,0,1,6.53,4.47,3,3,0,0,1,7.7.38a3,3,0,0,1,4.05,1.17,181.57,181.57,0,0,0,35,44.4,3,3,0,0,1,.19,4.25A3,3,0,0,1,42.7,50.39Z"/><path class="cls-1" d="M39.18,64.38C26.46,66.5,13.35,62.89,1.79,57.79a3,3,0,0,1-1.54-4,3,3,0,0,1,3.93-1.55c10.53,4.65,22.44,8.09,34,6.17a3,3,0,0,1,1,5.93Z"/></g></g></svg>