<svg xmlns="http://www.w3.org/2000/svg" viewBox="0 0 89.78 88.12"><defs><style>.cls-1{fill:#fbb7ae;}</style></defs><g id="Layer_2" data-name="Layer 2"><g id="Layer_1-2" data-name="Layer 1"><path class="cls-1" d="M15.77,22.23c3.3,0,3.3-5.13,0-5.13S12.47,22.23,15.77,22.23Z"/><path class="cls-1" d="M6.28,31.73c3.3,0,3.3-5.13,0-5.13S3,31.73,6.28,31.73Z"/><path class="cls-1" d="M2.47,44.4c3.3,0,3.3-5.13,0-5.13S-.82,44.4,2.47,44.4Z"/><path class="cls-1" d="M3.11,57.07c3.3,0,3.3-5.13,0-5.13S-.19,57.07,3.11,57.07Z"/><path class="cls-1" d="M5.64,71c3.3,0,3.3-5.13,0-5.13S2.34,71,5.64,71Z"/><path class="cls-1" d="M13.23,81.15c3.3,0,3.3-5.13,0-5.13S9.93,81.15,13.23,81.15Z"/><path class="cls-1" d="M26.53,86.86c3.3,0,3.3-5.13,0-5.13S23.23,86.86,26.53,86.86Z"/><path class="cls-1" d="M41.09,88.12c3.3,0,3.3-5.13,0-5.13S37.79,88.12,41.09,88.12Z"/><path class="cls-1" d="M54.39,86.22c3.3,0,3.3-5.13,0-5.13S51.09,86.22,54.39,86.22Z"/><path class="cls-1" d="M68.31,80.52c3.3,0,3.3-5.13,0-5.13S65,80.52,68.31,80.52Z"/><path class="cls-1" d="M78.45,69.12h.64a1.93,1.93,0,0,0,1-.22,2,2,0,0,0,.82-.54,1.91,1.91,0,0,0,.53-.82,1.88,1.88,0,0,0,.22-1l-.09-.68a2.47,2.47,0,0,0-.65-1.13l-.52-.4A2.56,2.56,0,0,0,79.09,64h-.64a1.8,1.8,0,0,0-1,.22,1.87,1.87,0,0,0-.82.54,1.91,1.91,0,0,0-.53.82,1.87,1.87,0,0,0-.23,1l.09.68a2.49,2.49,0,0,0,.66,1.13l.52.4A2.46,2.46,0,0,0,78.45,69.12Z"/><path class="cls-1" d="M82.25,52.64c3.3,0,3.3-5.13,0-5.13S79,52.64,82.25,52.64Z"/><path class="cls-1" d="M84.14,35.54c3.3,0,3.3-5.13,0-5.13S80.84,35.54,84.14,35.54Z"/><path class="cls-1" d="M79.71,22.87c3.3,0,3.3-5.13,0-5.13S76.41,22.87,79.71,22.87Z"/><path class="cls-1" d="M74,12.73c3.3,0,3.3-5.13,0-5.13S70.72,12.73,74,12.73Z"/><path class="cls-1" d="M60.08,8.3c3.3,0,3.3-5.13,0-5.13S56.78,8.3,60.08,8.3Z"/><path class="cls-1" d="M46.8,5.13c3.3,0,3.3-5.13,0-5.13S43.5,5.13,46.8,5.13Z"/><path class="cls-1" d="M31.6,9.56c3.3,0,3.3-5.13,0-5.13S28.3,9.56,31.6,9.56Z"/><path class="cls-1" d="M29.07,24.76c3.3,0,3.3-5.13,0-5.13S25.77,24.76,29.07,24.76Z"/><path class="cls-1" d="M23.37,15.9c3.29,0,3.29-5.13,0-5.13S20.07,15.9,23.37,15.9Z"/><path class="cls-1" d="M15.13,36.17c3.3,0,3.3-5.13,0-5.13S11.83,36.17,15.13,36.17Z"/><path class="cls-1" d="M24,38.71c3.3,0,3.3-5.13,0-5.13S20.71,38.71,24,38.71Z"/><path class="cls-1" d="M12,48.84c3.3,0,3.3-5.13,0-5.13S8.67,48.84,12,48.84Z"/><path class="cls-1" d="M22.74,50.74c3.3,0,3.3-5.13,0-5.13S19.43,50.74,22.74,50.74Z"/><path class="cls-1" d="M15.77,62.78c3.3,0,3.3-5.13,0-5.13S12.47,62.78,15.77,62.78Z"/><path class="cls-1" d="M26.53,64.05c3.3,0,3.3-5.13,0-5.13S23.23,64.05,26.53,64.05Z"/><path class="cls-1" d="M22.74,77.36c3.3,0,3.3-5.13,0-5.13S19.43,77.36,22.74,77.36Z"/><path class="cls-1" d="M35.4,76.72c3.3,0,3.3-5.13,0-5.13S32.1,76.72,35.4,76.72Z"/><path class="cls-1" d="M51.23,78.62c3.3,0,3.3-5.13,0-5.13S47.93,78.62,51.23,78.62Z"/><path class="cls-1" d="M62.63,72.29c3.29,0,3.29-5.13,0-5.13S59.33,72.29,62.63,72.29Z"/><path class="cls-1" d="M48.06,72.29c3.3,0,3.3-5.13,0-5.13S44.76,72.29,48.06,72.29Z"/><path class="cls-1" d="M41.73,61.52c3.3,0,3.3-5.13,0-5.13S38.43,61.52,41.73,61.52Z"/><path class="cls-1" d="M58.2,55.81c3.29,0,3.29-5.13,0-5.13S54.88,55.81,58.2,55.81Z"/><path class="cls-1" d="M39.83,50.74c3.3,0,3.3-5.13,0-5.13S36.53,50.74,39.83,50.74Z"/><path class="cls-1" d="M32.24,38.07c3.29,0,3.29-5.13,0-5.13S28.94,38.07,32.24,38.07Z"/><path class="cls-1" d="M27.79,26c3.3,0,3.3-5.13,0-5.13S24.5,26,27.79,26Z"/><path class="cls-1" d="M34.76,19.69c3.3,0,3.3-5.13,0-5.13S31.46,19.69,34.76,19.69Z"/><path class="cls-1" d="M40.47,26c3.3,0,3.3-5.13,0-5.13S37.15,26,40.47,26Z"/><path class="cls-1" d="M46.8,17.8c3.3,0,3.3-5.13,0-5.13S43.5,17.8,46.8,17.8Z"/><path class="cls-1" d="M57.56,18.42c3.3,0,3.3-5.13,0-5.13S54.26,18.42,57.56,18.42Z"/><path class="cls-1" d="M64.53,22.87c3.29,0,3.29-5.13,0-5.13S61.23,22.87,64.53,22.87Z"/><path class="cls-1" d="M69.58,31.09c3.3,0,3.3-5.13,0-5.13S66.28,31.09,69.58,31.09Z"/><path class="cls-1" d="M68.31,44.4c3.3,0,3.3-5.13,0-5.13S65,44.4,68.31,44.4Z"/><path class="cls-1" d="M68.31,57.07c3.3,0,3.3-5.13,0-5.13S65,57.07,68.31,57.07Z"/><path class="cls-1" d="M58.2,43.78c3.29,0,3.29-5.13,0-5.13S54.88,43.78,58.2,43.78Z"/><path class="cls-1" d="M54.42,45.64V45a1.82,1.82,0,0,0-.22-1,1.79,1.79,0,0,0-.54-.82,2.71,2.71,0,0,0-1.79-.76l-.69.09a2.54,2.54,0,0,0-1.13.66l-.4.52A2.55,2.55,0,0,0,49.3,45v.64a1.82,1.82,0,0,0,.22,1,1.91,1.91,0,0,0,.53.82,2,2,0,0,0,.82.53,1.89,1.89,0,0,0,1,.23l.69-.09a2.46,2.46,0,0,0,1.12-.66l.41-.52A2.47,2.47,0,0,0,54.42,45.64Z"/><path class="cls-1" d="M43.63,40.6c3.3,0,3.3-5.13,0-5.13S40.32,40.6,43.63,40.6Z"/><path class="cls-1" d="M51.23,33.64c3.3,0,3.3-5.13,0-5.13S47.93,33.64,51.23,33.64Z"/><path class="cls-1" d="M55.65,66.58c3.3,0,3.3-5.13,0-5.13S52.35,66.58,55.65,66.58Z"/><path class="cls-1" d="M69.58,69.12c3.3,0,3.3-5.13,0-5.13S66.28,69.12,69.58,69.12Z"/><path class="cls-1" d="M87.3,61.52c3.3,0,3.3-5.13,0-5.13S84,61.52,87.3,61.52Z"/></g></g></svg>