<svg xmlns="http://www.w3.org/2000/svg" viewBox="0 0 95 99"><defs><style>.cls-1{fill:#ceeeec;fill-rule:evenodd;}</style></defs><g id="Layer_2" data-name="Layer 2"><g id="Layer_1-2" data-name="Layer 1"><path class="cls-1" d="M62.21,41.45c2.2,1.61,5.26,1.2,7.66.28,4-1.53,7.53-4,9.53-7.83a13.07,13.07,0,0,0,1.37-3.55l-.09-.1c-1-1.16-3.13-1.22-4.55-1.1a20.14,20.14,0,0,0-7,2.13C65.71,33,60.46,37,62.21,41.45Zm-2.43-6.66a19.41,19.41,0,0,1,7.94-6.6A24.69,24.69,0,0,1,74.86,26a19.91,19.91,0,0,0-9.77,2.18C62.56,29.55,60.15,31.82,59.78,34.79ZM40.56,68.56h0a3.13,3.13,0,0,0-.93.33c-2.2,1.22-2.73,5-2.69,7.23.07,3,1.5,9.66,5.87,6.7C47.68,79.49,47.68,69,40.56,68.56ZM17.68,45.42c-2.5,1.71-5,7.82-5.06,10.67-.08,2.22.69,4.53,2.92,5.36a5.17,5.17,0,0,0,5.24-1.24,12,12,0,0,0,3.1-5.62C25.19,49.66,24.2,43.58,17.68,45.42ZM32.07,20.85a6.93,6.93,0,0,0-3.08,2C27.18,25,27.3,27.54,30.5,27.81c2.11.18,4.86,0,6.59-1.38,1.42-1.09,3-3.51,1.15-5a6.67,6.67,0,0,0-.68-.45,1.41,1.41,0,0,1-.53-.12,6.71,6.71,0,0,0-2.2-.46,8.92,8.92,0,0,0-2,.34A1.41,1.41,0,0,1,32.07,20.85Zm32.16-5.63a3.38,3.38,0,0,0,1.24-2.93c-1-4.07-13.68-5.83-14.51.09a3.8,3.8,0,0,0,.62,2.8c1.58,2.16,5.54,2.66,8,2.12A9.31,9.31,0,0,0,64.23,15.22ZM11.56,71.76c2.7,2.18,3.65,6,6.38,8.42,1.63,1.45,4-1,2.32-2.45-2.65-2.36-3.51-6.12-6.44-8.46C12.12,67.9,9.84,70.38,11.56,71.76ZM18,23.25c-4.58,1.24-7.28,6.27-9.36,10.14-3,5.56-4.69,12-3.52,18.34.41,2.18,3.7,1.36,3.31-.76-1-5.49.66-11.07,3.16-15.93,1.5-2.9,3.88-7.61,7.3-8.52A1.69,1.69,0,0,0,18,23.25ZM78,22.85a.58.58,0,0,0-.15-.06,17.38,17.38,0,0,0-8.45-.11C64,23.91,58.28,27.75,56.68,33.28a9.65,9.65,0,0,0,1.82,9.37,10.63,10.63,0,0,0,10,3A20.33,20.33,0,0,0,83.71,32.41C85.33,27.58,82.6,24.17,78,22.85ZM40.11,65.22l-.17,0C32.28,66.53,31.47,82.41,37.78,86a6.48,6.48,0,0,0,5.51.27c9.68-3.4,7.94-20.53-2.64-21.13A2.48,2.48,0,0,0,40.11,65.22ZM20.56,41.72a.31.31,0,0,0-.13,0,.15.15,0,0,0-.09,0,6.89,6.89,0,0,0-4,.65l-.18.09c-4,2.15-6.23,8.35-6.83,12.59-.93,6.64,4.3,11.83,10.93,9.41C29.73,61,30.94,42.47,20.56,41.72ZM38.34,17.61s-.1,0-.15-.07l-.06,0-.22-.06a10.14,10.14,0,0,0-4.45-.26,11.75,11.75,0,0,0-8.16,5c-2.58,4.06,0,8.32,4.55,8.9s9.82-1,12-5.43A5.71,5.71,0,0,0,40.54,19,6.66,6.66,0,0,0,38.34,17.61ZM48.23,10c-3.12,5.7,2.91,10.28,8.07,10.83,5,.53,13.19-2.51,13-8.49a4.9,4.9,0,0,0-.07-.77,7.85,7.85,0,0,0-4-5A14.75,14.75,0,0,0,58,4.59,12.6,12.6,0,0,0,54,5.21,10.15,10.15,0,0,0,48.23,10ZM88.37,21A19.91,19.91,0,0,0,80.53,9.46a28.67,28.67,0,0,0-9.26-4.25,51.09,51.09,0,0,0-21.74-.78A46.74,46.74,0,0,0,38,8.07C27.11,13.22,15.35,21,8.68,31.3a30.92,30.92,0,0,0-4.4,11c-3.62,18.77,9,40.9,27.05,47.35,10.13,3.64,23.21,5,31.35-3.52a31.22,31.22,0,0,0,7.61-13.74c1.42-5.5,1.68-11.2,3.44-16.63a64.17,64.17,0,0,1,7.74-15.93c1.19-1.77,2.42-3.51,3.56-5.33C87.57,30.41,89.61,25.91,88.37,21ZM52.17,95.46a21.91,21.91,0,0,0,9.3-2.6,26.68,26.68,0,0,0,10-10c4.24-7,6.41-15.67,7.42-23.71.83-6.57,3.12-10.41,6.64-15.73a86.69,86.69,0,0,0,4.67-7.73,13.27,13.27,0,0,0,1.3-7.32,21.42,21.42,0,0,1-2.61,6.36C85,41,80.44,46.86,78,53.84c-2,5.52-2.52,11.35-3.82,17-2,8.73-6.69,17.89-15,22.12A28.59,28.59,0,0,1,52.17,95.46Zm35.13-84a.68.68,0,0,1,.12.12c3.18,3.93,6,8.64,7.06,13.6a17.61,17.61,0,0,1-1.24,12.1,92,92,0,0,1-4.85,8c-3.18,4.83-5.34,8.32-6.08,14.24-1.07,8.54-3.41,17.67-7.9,25.1A30.47,30.47,0,0,1,63.13,95.91,27.07,27.07,0,0,1,46.5,98.74c-7.21-.9-14.29-4-20.54-7.59-7.48-3.87-14.47-10-18.39-17.52C2.7,64.29-1.12,53.88.3,43.21c1-7.73,5.44-14.87,10.61-20.54A71.84,71.84,0,0,1,32.51,6.82c16.46-8,38.43-11,52.94,2.49l0,0C86.11,10,86.73,10.73,87.3,11.46Z"/></g></g></svg>