<svg xmlns="http://www.w3.org/2000/svg" viewBox="0 0 46.32 153.48"><defs><style>.cls-1{fill:#ffd7d2;}</style></defs><g id="Layer_2" data-name="Layer 2"><g id="Layer_1-2" data-name="Layer 1"><path class="cls-1" d="M31.88,153.27c5.17-2.24,8.24-7.38,8.8-12.87.64-6-1.72-11.79-4.53-17-5.28-9.82-13.71-23-26.8-19C5,105.82,1,109.29.36,114c-.74,5.24,2.89,9.91,7.53,12,10.9,4.79,22.37-5.19,28.2-13.47A46,46,0,0,0,44.21,80,46.41,46.41,0,0,0,27.42,50.66c-4.19-3.38-9.54-6.8-15-7.42A10.77,10.77,0,0,0,.56,50.81a12.66,12.66,0,0,0,4.82,14c4.84,3.51,11,3.88,16.56,2,11.4-3.74,19.93-15.06,23-26.3A40.85,40.85,0,0,0,33.94.66c-2.21-2.21-5.18,1.65-3,3.85A36.83,36.83,0,0,1,41.51,29.29,36.21,36.21,0,0,1,30.77,55.54c-3.34,3.31-7.57,6.26-12.22,7.26-4.38.93-9.55-.1-12.31-3.91C4.11,56,4.36,51,7.62,48.89c3.64-2.33,8.67.32,11.93,2.22,16.34,9.52,24.13,29.89,18,47.76-2.9,8.48-8.65,16.76-16.6,21.2-3.67,2.05-8.27,3.14-12.12.89-3.12-1.8-4.9-5.59-2.62-8.73s7-4.31,10.57-3.3c5.68,1.6,9.48,7.21,12.36,12s5.91,9.94,6.61,15.51c.62,4.73-1,10.33-5.72,12.36C27.18,150,29,154.51,31.88,153.27Z"/></g></g></svg>