<svg xmlns="http://www.w3.org/2000/svg" viewBox="0 0 111 87"><defs><style>.cls-1{fill:#ffd5af;}</style></defs><g id="Layer_2" data-name="Layer 2"><g id="Layer_1-2" data-name="Layer 1"><path class="cls-1" d="M1.08,85.48c4.46,2.45,9.83,1.78,14.05-.86,4.61-2.88,7.44-7.79,9.58-12.68,4.08-9.24,8.8-22.6-1.33-29.72-3.36-2.36-8-3.27-11.73-1.16-4.15,2.38-5.46,7.57-4.35,12C9.92,63.56,23.38,66.21,32.51,65.78A41.4,41.4,0,0,0,60.13,53.56,42.16,42.16,0,0,0,71.74,25.23c.09-4.88-.44-10.61-3-14.88A9.68,9.68,0,0,0,56.76,6.09a11.47,11.47,0,0,0-7.32,11.25c.18,5.41,3.33,10,7.7,13,9,6.08,21.77,5.89,31.47,1.83A37.27,37.27,0,0,0,109.35,9.62,37.93,37.93,0,0,0,111,2.1c.35-2.82-4-2.79-4.4,0A33.41,33.41,0,0,1,94.77,23.43a32.57,32.57,0,0,1-24.66,6.91c-4.21-.54-8.65-1.93-11.93-4.71-3.09-2.61-5.22-6.89-4-11,.91-3.16,4.59-5.74,7.88-4.58,3.68,1.32,4.58,6.4,5,9.78,2.26,17-7.94,33.89-24.05,39.45C35.36,62,26.27,62.43,18.7,59.22,15.21,57.72,11.89,55,11.36,51c-.44-3.24,1.27-6.62,4.78-6.73S23.07,46.9,24.33,50c2,5,.12,10.79-1.68,15.5s-3.81,9.76-7.39,13.36c-3,3.07-7.93,5-12,2.78C.82,80.28-1.39,84.1,1.08,85.48Z"/></g></g></svg>