<svg xmlns="http://www.w3.org/2000/svg" viewBox="0 0 166 212"><defs><style>.cls-1{fill:#b8ddd9;fill-rule:evenodd;}</style></defs><g id="Layer_2" data-name="Layer 2"><g id="Layer_1-2" data-name="Layer 1"><path class="cls-1" d="M110,.74a.44.44,0,0,1,0-.62.45.45,0,0,1,.62,0L117,6.7a.44.44,0,0,1,0,.62.43.43,0,0,1-.62,0Z"/><path class="cls-1" d="M116.4.14a.43.43,0,0,1,.62,0,.45.45,0,0,1,0,.62l-6.38,6.57a.43.43,0,1,1-.62-.61Z"/><path class="cls-1" d="M113.51,2.3a1.36,1.36,0,1,1-1.36,1.36A1.36,1.36,0,0,1,113.51,2.3Z"/><path class="cls-1" d="M122.24.74a.45.45,0,0,1,0-.62.45.45,0,0,1,.62,0l6.37,6.57a.44.44,0,0,1-.63.61Z"/><path class="cls-1" d="M128.61.14a.43.43,0,0,1,.62,0,.43.43,0,0,1,0,.62l-6.37,6.57a.44.44,0,0,1-.62,0,.45.45,0,0,1,0-.62Z"/><path class="cls-1" d="M125.72,2.3a1.36,1.36,0,1,1-1.36,1.36A1.36,1.36,0,0,1,125.72,2.3Z"/><path class="cls-1" d="M73.39,15.34a.45.45,0,0,1,0-.62.44.44,0,0,1,.62,0l6.37,6.57a.43.43,0,1,1-.62.61Z"/><path class="cls-1" d="M79.77,14.73a.43.43,0,1,1,.62.61L74,21.91a.44.44,0,0,1-.62,0,.45.45,0,0,1,0-.62Z"/><path class="cls-1" d="M76.87,16.9a1.36,1.36,0,1,1-1.36,1.35A1.35,1.35,0,0,1,76.87,16.9Z"/><path class="cls-1" d="M85.61,15.34a.43.43,0,1,1,.62-.61L92.6,21.3a.44.44,0,0,1-.63.61Z"/><path class="cls-1" d="M92,14.73a.44.44,0,0,1,.62,0,.45.45,0,0,1,0,.62l-6.37,6.57a.44.44,0,0,1-.63-.61Z"/><path class="cls-1" d="M89.08,16.9a1.36,1.36,0,1,1-1.36,1.35A1.36,1.36,0,0,1,89.08,16.9Z"/><path class="cls-1" d="M97.82,15.34a.44.44,0,1,1,.63-.61l6.37,6.57a.44.44,0,0,1-.63.61Z"/><path class="cls-1" d="M104.19,14.73a.44.44,0,0,1,.62,0,.45.45,0,0,1,0,.62l-6.38,6.57a.43.43,0,1,1-.62-.61Z"/><path class="cls-1" d="M101.29,16.9a1.36,1.36,0,1,1,0,2.71,1.36,1.36,0,1,1,0-2.71Z"/><path class="cls-1" d="M85.61.74a.43.43,0,0,1,0-.62.44.44,0,0,1,.61,0L92.6,6.7a.44.44,0,0,1,0,.62.43.43,0,0,1-.62,0Z"/><path class="cls-1" d="M92,.14a.43.43,0,0,1,.62,0,.45.45,0,0,1,0,.62L86.24,7.32a.44.44,0,0,1-.63-.61Z"/><path class="cls-1" d="M89.08,2.3a1.36,1.36,0,1,1-1.36,1.36A1.36,1.36,0,0,1,89.08,2.3Z"/><path class="cls-1" d="M97.82.74a.44.44,0,0,1,0-.62.45.45,0,0,1,.62,0l6.37,6.57a.44.44,0,0,1,0,.62.43.43,0,0,1-.62,0Z"/><path class="cls-1" d="M104.19.14a.43.43,0,0,1,.62,0,.45.45,0,0,1,0,.62L98.44,7.32a.43.43,0,1,1-.62-.61Z"/><path class="cls-1" d="M101.29,2.3a1.36,1.36,0,1,1-1.36,1.36A1.37,1.37,0,0,1,101.29,2.3Z"/><path class="cls-1" d="M110,15.34a.44.44,0,0,1,.63-.61L117,21.3a.44.44,0,1,1-.63.61Z"/><path class="cls-1" d="M116.4,14.73a.44.44,0,0,1,.62,0,.45.45,0,0,1,0,.62l-6.38,6.57a.43.43,0,1,1-.62-.61Z"/><path class="cls-1" d="M113.51,16.9a1.36,1.36,0,1,1-1.36,1.35A1.35,1.35,0,0,1,113.51,16.9Z"/><path class="cls-1" d="M122.24,15.34a.45.45,0,0,1,0-.62.44.44,0,0,1,.62,0l6.37,6.57a.43.43,0,0,1,0,.62.44.44,0,0,1-.62,0Z"/><path class="cls-1" d="M128.61,14.73a.44.44,0,0,1,.62,0,.43.43,0,0,1,0,.62l-6.37,6.57a.44.44,0,0,1-.62,0,.45.45,0,0,1,0-.62Z"/><path class="cls-1" d="M125.72,16.9a1.36,1.36,0,1,1-1.36,1.35A1.35,1.35,0,0,1,125.72,16.9Z"/><path class="cls-1" d="M134.45,15.34a.44.44,0,1,1,.63-.61l6.37,6.57a.44.44,0,0,1-.63.61Z"/><path class="cls-1" d="M140.82,14.73a.44.44,0,0,1,.63.61l-6.37,6.57a.44.44,0,1,1-.63-.61Z"/><path class="cls-1" d="M137.93,16.9a1.36,1.36,0,1,1-1.36,1.35A1.35,1.35,0,0,1,137.93,16.9Z"/><path class="cls-1" d="M146.67,15.34a.43.43,0,1,1,.62-.61l6.37,6.57a.43.43,0,1,1-.62.61Z"/><path class="cls-1" d="M153,14.73a.43.43,0,1,1,.62.61l-6.37,6.57a.43.43,0,1,1-.62-.61Z"/><path class="cls-1" d="M150.14,16.9a1.36,1.36,0,1,1-1.36,1.35A1.35,1.35,0,0,1,150.14,16.9Z"/><path class="cls-1" d="M61.18,29.93a.44.44,0,1,1,.63-.61l6.37,6.57a.43.43,0,0,1,0,.62.42.42,0,0,1-.61,0Z"/><path class="cls-1" d="M67.56,29.32a.44.44,0,0,1,.61,0,.43.43,0,0,1,0,.62L61.81,36.5a.43.43,0,0,1-.62,0,.45.45,0,0,1,0-.62Z"/><path class="cls-1" d="M64.66,31.49a1.36,1.36,0,1,1-1.36,1.36A1.36,1.36,0,0,1,64.66,31.49Z"/><path class="cls-1" d="M73.39,29.93a.44.44,0,0,1,.63-.61l6.37,6.57a.43.43,0,0,1,0,.62.42.42,0,0,1-.61,0Z"/><path class="cls-1" d="M79.77,29.32a.44.44,0,0,1,.61,0,.43.43,0,0,1,0,.62L74,36.5a.43.43,0,0,1-.62,0,.45.45,0,0,1,0-.62Z"/><path class="cls-1" d="M76.87,31.49a1.36,1.36,0,1,1-1.36,1.36A1.36,1.36,0,0,1,76.87,31.49Z"/><path class="cls-1" d="M85.61,29.93a.43.43,0,0,1,0-.62.44.44,0,0,1,.61,0l6.37,6.57a.44.44,0,0,1,0,.62.43.43,0,0,1-.62,0Z"/><path class="cls-1" d="M92,29.32a.44.44,0,1,1,.63.61L86.24,36.5a.43.43,0,0,1-.62,0,.44.44,0,0,1,0-.62Z"/><path class="cls-1" d="M89.08,31.49a1.36,1.36,0,1,1-1.36,1.36A1.36,1.36,0,0,1,89.08,31.49Z"/><path class="cls-1" d="M97.82,29.93a.44.44,0,0,1,0-.62.45.45,0,0,1,.62,0l6.37,6.57a.44.44,0,0,1,0,.62.43.43,0,0,1-.62,0Z"/><path class="cls-1" d="M104.19,29.32a.44.44,0,0,1,.63.61L98.44,36.5a.42.42,0,0,1-.61,0,.43.43,0,0,1,0-.62Z"/><path class="cls-1" d="M101.29,31.49a1.36,1.36,0,0,1,0,2.72,1.36,1.36,0,1,1,0-2.72Z"/><path class="cls-1" d="M110,29.93a.44.44,0,0,1,0-.62.45.45,0,0,1,.62,0L117,35.89a.44.44,0,0,1,0,.62.43.43,0,0,1-.62,0Z"/><path class="cls-1" d="M116.4,29.32a.44.44,0,1,1,.63.61l-6.38,6.57a.42.42,0,0,1-.61,0,.43.43,0,0,1,0-.62Z"/><path class="cls-1" d="M113.51,31.49a1.36,1.36,0,1,1-1.36,1.36A1.36,1.36,0,0,1,113.51,31.49Z"/><path class="cls-1" d="M122.24,29.93a.44.44,0,1,1,.63-.61l6.37,6.57a.44.44,0,0,1-.63.61Z"/><path class="cls-1" d="M128.61,29.32a.45.45,0,0,1,.62,0,.43.43,0,0,1,0,.62l-6.37,6.57a.43.43,0,0,1-.62,0,.45.45,0,0,1,0-.62Z"/><path class="cls-1" d="M125.72,31.49a1.36,1.36,0,1,1-1.36,1.36A1.36,1.36,0,0,1,125.72,31.49Z"/><path class="cls-1" d="M134.45,29.93a.44.44,0,0,1,0-.62.45.45,0,0,1,.62,0l6.37,6.57a.44.44,0,0,1,0,.62.43.43,0,0,1-.62,0Z"/><path class="cls-1" d="M140.82,29.32a.45.45,0,0,1,.62,0,.44.44,0,0,1,0,.62l-6.37,6.57a.43.43,0,0,1-.62,0,.44.44,0,0,1,0-.62Z"/><path class="cls-1" d="M137.93,31.49a1.36,1.36,0,1,1-1.36,1.36A1.36,1.36,0,0,1,137.93,31.49Z"/><path class="cls-1" d="M146.67,29.93a.43.43,0,0,1,0-.62.44.44,0,0,1,.61,0l6.37,6.57a.44.44,0,0,1,0,.62.43.43,0,0,1-.62,0Z"/><path class="cls-1" d="M153,29.32a.45.45,0,0,1,.62,0,.44.44,0,0,1,0,.62l-6.37,6.57a.42.42,0,0,1-.61,0,.43.43,0,0,1,0-.62Z"/><path class="cls-1" d="M150.14,31.49a1.36,1.36,0,1,1-1.36,1.36A1.36,1.36,0,0,1,150.14,31.49Z"/><path class="cls-1" d="M158.58,29.86a.44.44,0,0,1,.63-.6l6.37,6.57a.44.44,0,0,1,0,.62.45.45,0,0,1-.62,0Z"/><path class="cls-1" d="M165,29.26a.44.44,0,0,1,.63.61l-6.37,6.57a.44.44,0,1,1-.63-.61Z"/><path class="cls-1" d="M162.06,31.42a1.37,1.37,0,0,1,0,2.73,1.37,1.37,0,0,1,0-2.73Z"/><path class="cls-1" d="M49,44.52a.43.43,0,0,1,0-.62.45.45,0,0,1,.62,0L56,50.48a.45.45,0,0,1,0,.62.43.43,0,0,1-.62,0Z"/><path class="cls-1" d="M55.34,43.91a.44.44,0,0,1,.63.61L49.6,51.09a.44.44,0,0,1-.63-.61Z"/><path class="cls-1" d="M52.45,46.08a1.36,1.36,0,1,1-1.37,1.36A1.36,1.36,0,0,1,52.45,46.08Z"/><path class="cls-1" d="M61.18,44.52a.44.44,0,0,1,.63-.61l6.37,6.57a.43.43,0,0,1,0,.62.42.42,0,0,1-.61,0Z"/><path class="cls-1" d="M67.56,43.91a.44.44,0,0,1,.61,0,.43.43,0,0,1,0,.62l-6.37,6.57a.43.43,0,0,1-.62,0,.45.45,0,0,1,0-.62Z"/><path class="cls-1" d="M64.66,46.08a1.36,1.36,0,1,1-1.36,1.36A1.36,1.36,0,0,1,64.66,46.08Z"/><path class="cls-1" d="M73.39,44.52a.44.44,0,0,1,.63-.61l6.37,6.57a.43.43,0,0,1,0,.62.42.42,0,0,1-.61,0Z"/><path class="cls-1" d="M79.77,43.91a.44.44,0,0,1,.61,0,.43.43,0,0,1,0,.62L74,51.09a.43.43,0,0,1-.62,0,.45.45,0,0,1,0-.62Z"/><path class="cls-1" d="M76.87,46.08a1.36,1.36,0,1,1-1.36,1.36A1.36,1.36,0,0,1,76.87,46.08Z"/><path class="cls-1" d="M85.61,44.52a.43.43,0,0,1,0-.62.44.44,0,0,1,.61,0l6.37,6.57a.44.44,0,0,1,0,.62.43.43,0,0,1-.62,0Z"/><path class="cls-1" d="M92,43.91a.44.44,0,0,1,.63.61l-6.37,6.57a.43.43,0,0,1-.62,0,.44.44,0,0,1,0-.62Z"/><path class="cls-1" d="M89.08,46.08a1.36,1.36,0,1,1-1.36,1.36A1.36,1.36,0,0,1,89.08,46.08Z"/><path class="cls-1" d="M97.82,44.52a.44.44,0,0,1,0-.62.45.45,0,0,1,.62,0l6.37,6.57a.44.44,0,0,1,0,.62.43.43,0,0,1-.62,0Z"/><path class="cls-1" d="M104.19,43.91a.44.44,0,1,1,.63.61l-6.38,6.57a.42.42,0,0,1-.61,0,.43.43,0,0,1,0-.62Z"/><path class="cls-1" d="M101.29,46.08a1.36,1.36,0,1,1-1.36,1.36A1.37,1.37,0,0,1,101.29,46.08Z"/><path class="cls-1" d="M110,44.52a.44.44,0,0,1,0-.62.45.45,0,0,1,.62,0L117,50.48a.44.44,0,0,1,0,.62.43.43,0,0,1-.62,0Z"/><path class="cls-1" d="M116.4,43.91a.44.44,0,1,1,.63.61l-6.38,6.57a.42.42,0,0,1-.61,0,.43.43,0,0,1,0-.62Z"/><path class="cls-1" d="M113.51,46.08a1.36,1.36,0,1,1-1.36,1.36A1.36,1.36,0,0,1,113.51,46.08Z"/><path class="cls-1" d="M122.24,44.52a.44.44,0,1,1,.63-.61l6.37,6.57a.44.44,0,0,1-.63.61Z"/><path class="cls-1" d="M128.61,43.91a.45.45,0,0,1,.62,0,.43.43,0,0,1,0,.62l-6.37,6.57a.43.43,0,0,1-.62,0,.45.45,0,0,1,0-.62Z"/><path class="cls-1" d="M125.72,46.08a1.36,1.36,0,1,1-1.36,1.36A1.36,1.36,0,0,1,125.72,46.08Z"/><path class="cls-1" d="M134.45,44.52a.44.44,0,0,1,0-.62.45.45,0,0,1,.62,0l6.37,6.57a.44.44,0,0,1,0,.62.43.43,0,0,1-.62,0Z"/><path class="cls-1" d="M140.82,43.91a.45.45,0,0,1,.62,0,.44.44,0,0,1,0,.62l-6.37,6.57a.43.43,0,0,1-.62,0,.44.44,0,0,1,0-.62Z"/><path class="cls-1" d="M137.93,46.08a1.36,1.36,0,1,1-1.36,1.36A1.36,1.36,0,0,1,137.93,46.08Z"/><path class="cls-1" d="M146.67,44.52a.43.43,0,0,1,0-.62.44.44,0,0,1,.61,0l6.37,6.57a.44.44,0,0,1,0,.62.43.43,0,0,1-.62,0Z"/><path class="cls-1" d="M153,43.91a.45.45,0,0,1,.62,0,.44.44,0,0,1,0,.62l-6.37,6.57a.42.42,0,0,1-.61,0,.43.43,0,0,1,0-.62Z"/><path class="cls-1" d="M150.14,46.08a1.36,1.36,0,1,1-1.36,1.36A1.36,1.36,0,0,1,150.14,46.08Z"/><path class="cls-1" d="M158.88,44.52a.44.44,0,0,1,0-.62.45.45,0,0,1,.62,0l6.37,6.57a.44.44,0,0,1,0,.62.43.43,0,0,1-.62,0Z"/><path class="cls-1" d="M165.25,43.91a.45.45,0,0,1,.62,0,.44.44,0,0,1,0,.62l-6.37,6.57a.43.43,0,0,1-.62,0,.44.44,0,0,1,0-.62Z"/><path class="cls-1" d="M162.36,46.08A1.36,1.36,0,1,1,161,47.44,1.36,1.36,0,0,1,162.36,46.08Z"/><path class="cls-1" d="M49,59.12a.43.43,0,0,1,0-.62.44.44,0,0,1,.62,0L56,65.08a.45.45,0,0,1,0,.62.44.44,0,0,1-.62,0Z"/><path class="cls-1" d="M55.34,58.51a.44.44,0,0,1,.62,0,.45.45,0,0,1,0,.62L49.6,65.69a.44.44,0,0,1-.62,0,.43.43,0,0,1,0-.62Z"/><path class="cls-1" d="M52.45,60.67A1.36,1.36,0,1,1,51.08,62,1.36,1.36,0,0,1,52.45,60.67Z"/><path class="cls-1" d="M61.18,59.12a.45.45,0,0,1,0-.62.44.44,0,0,1,.62,0l6.37,6.57a.43.43,0,1,1-.62.61Z"/><path class="cls-1" d="M67.56,58.51a.43.43,0,1,1,.62.61l-6.37,6.57a.44.44,0,0,1-.62,0,.45.45,0,0,1,0-.62Z"/><path class="cls-1" d="M64.66,60.67A1.36,1.36,0,1,1,63.3,62,1.36,1.36,0,0,1,64.66,60.67Z"/><path class="cls-1" d="M73.39,59.12a.45.45,0,0,1,0-.62.44.44,0,0,1,.62,0l6.37,6.57a.43.43,0,1,1-.62.61Z"/><path class="cls-1" d="M79.77,58.51a.43.43,0,1,1,.62.61L74,65.69a.44.44,0,0,1-.62,0,.45.45,0,0,1,0-.62Z"/><path class="cls-1" d="M76.87,60.67A1.36,1.36,0,1,1,75.51,62,1.36,1.36,0,0,1,76.87,60.67Z"/><path class="cls-1" d="M85.61,59.12a.43.43,0,1,1,.62-.61l6.37,6.57a.44.44,0,0,1-.63.61Z"/><path class="cls-1" d="M92,58.51a.44.44,0,0,1,.62,0,.45.45,0,0,1,0,.62l-6.37,6.57a.44.44,0,0,1-.63-.61Z"/><path class="cls-1" d="M89.08,60.67A1.36,1.36,0,1,1,87.72,62,1.36,1.36,0,0,1,89.08,60.67Z"/><path class="cls-1" d="M97.82,59.12a.44.44,0,1,1,.63-.61l6.37,6.57a.44.44,0,0,1-.63.61Z"/><path class="cls-1" d="M104.19,58.51a.44.44,0,0,1,.62,0,.45.45,0,0,1,0,.62l-6.38,6.57a.43.43,0,1,1-.62-.61Z"/><path class="cls-1" d="M101.29,60.67A1.36,1.36,0,1,1,99.93,62,1.37,1.37,0,0,1,101.29,60.67Z"/><path class="cls-1" d="M110,59.12a.44.44,0,1,1,.63-.61L117,65.08a.44.44,0,0,1-.63.61Z"/><path class="cls-1" d="M116.4,58.51a.44.44,0,0,1,.62,0,.45.45,0,0,1,0,.62l-6.38,6.57a.43.43,0,1,1-.62-.61Z"/><path class="cls-1" d="M113.51,60.67A1.36,1.36,0,1,1,112.15,62,1.36,1.36,0,0,1,113.51,60.67Z"/><path class="cls-1" d="M122.24,59.12a.45.45,0,0,1,0-.62.44.44,0,0,1,.62,0l6.37,6.57a.43.43,0,0,1,0,.62.44.44,0,0,1-.62,0Z"/><path class="cls-1" d="M128.61,58.51a.44.44,0,0,1,.62,0,.43.43,0,0,1,0,.62l-6.37,6.57a.44.44,0,0,1-.62,0,.45.45,0,0,1,0-.62Z"/><path class="cls-1" d="M125.72,60.67A1.36,1.36,0,1,1,124.36,62,1.36,1.36,0,0,1,125.72,60.67Z"/><path class="cls-1" d="M134.45,59.12a.44.44,0,1,1,.63-.61l6.37,6.57a.44.44,0,0,1-.63.61Z"/><path class="cls-1" d="M140.82,58.51a.44.44,0,1,1,.63.61l-6.37,6.57a.44.44,0,1,1-.63-.61Z"/><path class="cls-1" d="M137.93,60.67A1.36,1.36,0,1,1,136.57,62,1.36,1.36,0,0,1,137.93,60.67Z"/><path class="cls-1" d="M146.67,59.12a.43.43,0,1,1,.62-.61l6.37,6.57a.43.43,0,1,1-.62.61Z"/><path class="cls-1" d="M153,58.51a.43.43,0,1,1,.62.61l-6.37,6.57a.43.43,0,1,1-.62-.61Z"/><path class="cls-1" d="M150.14,60.67A1.36,1.36,0,1,1,148.78,62,1.36,1.36,0,0,1,150.14,60.67Z"/><path class="cls-1" d="M158.88,59.12a.44.44,0,0,1,.63-.61l6.37,6.57a.44.44,0,0,1-.63.61Z"/><path class="cls-1" d="M165.25,58.51a.44.44,0,1,1,.63.61l-6.37,6.57a.44.44,0,1,1-.63-.61Z"/><path class="cls-1" d="M162.36,60.67A1.36,1.36,0,1,1,161,62,1.36,1.36,0,0,1,162.36,60.67Z"/><path class="cls-1" d="M36.76,73.71a.44.44,0,0,1,.63-.61l6.37,6.57a.44.44,0,1,1-.63.61Z"/><path class="cls-1" d="M43.13,73.1a.44.44,0,1,1,.63.61l-6.37,6.57a.44.44,0,0,1-.63-.61Z"/><path class="cls-1" d="M40.24,75.27a1.36,1.36,0,1,1-1.36,1.36A1.36,1.36,0,0,1,40.24,75.27Z"/><path class="cls-1" d="M49,73.71a.43.43,0,0,1,0-.62.44.44,0,0,1,.62,0L56,79.67a.45.45,0,0,1,0,.62.44.44,0,0,1-.62,0Z"/><path class="cls-1" d="M55.34,73.1a.44.44,0,0,1,.62,0,.45.45,0,0,1,0,.62L49.6,80.28a.44.44,0,0,1-.62,0,.43.43,0,0,1,0-.62Z"/><path class="cls-1" d="M52.45,75.27a1.36,1.36,0,1,1-1.37,1.36A1.36,1.36,0,0,1,52.45,75.27Z"/><path class="cls-1" d="M61.18,73.71a.45.45,0,0,1,0-.62.44.44,0,0,1,.62,0l6.37,6.57a.43.43,0,1,1-.62.61Z"/><path class="cls-1" d="M67.56,73.1a.43.43,0,1,1,.62.61l-6.37,6.57a.44.44,0,0,1-.62,0,.45.45,0,0,1,0-.62Z"/><path class="cls-1" d="M64.66,75.27a1.36,1.36,0,1,1-1.36,1.36A1.36,1.36,0,0,1,64.66,75.27Z"/><path class="cls-1" d="M73.39,73.71a.45.45,0,0,1,0-.62.44.44,0,0,1,.62,0l6.37,6.57a.43.43,0,1,1-.62.61Z"/><path class="cls-1" d="M79.77,73.1a.43.43,0,1,1,.62.61L74,80.28a.44.44,0,0,1-.62,0,.45.45,0,0,1,0-.62Z"/><path class="cls-1" d="M76.87,75.27a1.36,1.36,0,1,1-1.36,1.36A1.36,1.36,0,0,1,76.87,75.27Z"/><path class="cls-1" d="M85.61,73.71a.43.43,0,1,1,.62-.61l6.37,6.57a.44.44,0,0,1-.63.61Z"/><path class="cls-1" d="M92,73.1a.44.44,0,0,1,.62,0,.45.45,0,0,1,0,.62l-6.37,6.57a.44.44,0,0,1-.63-.61Z"/><path class="cls-1" d="M89.08,75.27a1.36,1.36,0,1,1-1.36,1.36A1.36,1.36,0,0,1,89.08,75.27Z"/><path class="cls-1" d="M97.82,73.71a.44.44,0,0,1,.63-.61l6.37,6.57a.44.44,0,0,1-.63.61Z"/><path class="cls-1" d="M104.19,73.1a.44.44,0,0,1,.62,0,.45.45,0,0,1,0,.62l-6.38,6.57a.43.43,0,1,1-.62-.61Z"/><path class="cls-1" d="M101.29,75.27a1.36,1.36,0,1,1-1.36,1.36A1.37,1.37,0,0,1,101.29,75.27Z"/><path class="cls-1" d="M110,73.71a.44.44,0,0,1,.63-.61L117,79.67a.44.44,0,1,1-.63.61Z"/><path class="cls-1" d="M116.4,73.1a.44.44,0,0,1,.62,0,.45.45,0,0,1,0,.62l-6.38,6.57a.43.43,0,1,1-.62-.61Z"/><path class="cls-1" d="M113.51,75.27a1.36,1.36,0,1,1-1.36,1.36A1.36,1.36,0,0,1,113.51,75.27Z"/><path class="cls-1" d="M122.24,73.71a.45.45,0,0,1,0-.62.44.44,0,0,1,.62,0l6.37,6.57a.43.43,0,0,1,0,.62.44.44,0,0,1-.62,0Z"/><path class="cls-1" d="M128.61,73.1a.44.44,0,0,1,.62,0,.43.43,0,0,1,0,.62l-6.37,6.57a.44.44,0,0,1-.62,0,.45.45,0,0,1,0-.62Z"/><path class="cls-1" d="M125.72,75.27a1.36,1.36,0,1,1-1.36,1.36A1.36,1.36,0,0,1,125.72,75.27Z"/><path class="cls-1" d="M134.45,73.71a.44.44,0,0,1,.63-.61l6.37,6.57a.44.44,0,0,1-.63.61Z"/><path class="cls-1" d="M140.82,73.1a.44.44,0,1,1,.63.61l-6.37,6.57a.44.44,0,1,1-.63-.61Z"/><path class="cls-1" d="M137.93,75.27a1.36,1.36,0,1,1-1.36,1.36A1.36,1.36,0,0,1,137.93,75.27Z"/><path class="cls-1" d="M146.67,73.71a.43.43,0,1,1,.62-.61l6.37,6.57a.43.43,0,1,1-.62.61Z"/><path class="cls-1" d="M153,73.1a.43.43,0,1,1,.62.61l-6.37,6.57a.43.43,0,1,1-.62-.61Z"/><path class="cls-1" d="M150.14,75.27a1.36,1.36,0,1,1-1.36,1.36A1.36,1.36,0,0,1,150.14,75.27Z"/><path class="cls-1" d="M158.88,73.71a.44.44,0,0,1,.63-.61l6.37,6.57a.44.44,0,0,1-.63.61Z"/><path class="cls-1" d="M165.25,73.1a.44.44,0,1,1,.63.61l-6.37,6.57a.44.44,0,1,1-.63-.61Z"/><path class="cls-1" d="M162.36,75.27A1.36,1.36,0,1,1,161,76.63,1.36,1.36,0,0,1,162.36,75.27Z"/><path class="cls-1" d="M12.34,88.3a.43.43,0,0,1,0-.62.44.44,0,0,1,.61,0l6.38,6.57a.45.45,0,0,1,0,.62.43.43,0,0,1-.62,0Z"/><path class="cls-1" d="M18.7,87.69a.45.45,0,0,1,.62,0,.44.44,0,0,1,0,.62L13,94.87a.43.43,0,0,1-.62,0,.44.44,0,0,1,0-.62Z"/><path class="cls-1" d="M15.82,89.86a1.36,1.36,0,1,1-1.36,1.36A1.36,1.36,0,0,1,15.82,89.86Z"/><path class="cls-1" d="M24.55,88.3a.44.44,0,0,1,0-.62.45.45,0,0,1,.62,0l6.37,6.57a.43.43,0,0,1,0,.62.42.42,0,0,1-.61,0Z"/><path class="cls-1" d="M30.91,87.69a.45.45,0,0,1,.62,0,.44.44,0,0,1,0,.62l-6.37,6.57a.43.43,0,0,1-.62,0,.44.44,0,0,1,0-.62Z"/><path class="cls-1" d="M28,89.86a1.36,1.36,0,1,1-1.36,1.36A1.36,1.36,0,0,1,28,89.86Z"/><path class="cls-1" d="M36.76,88.3a.44.44,0,0,1,0-.62.45.45,0,0,1,.62,0l6.37,6.57a.44.44,0,0,1,0,.62.43.43,0,0,1-.62,0Z"/><path class="cls-1" d="M43.13,87.69a.45.45,0,0,1,.62,0,.44.44,0,0,1,0,.62l-6.37,6.57a.43.43,0,0,1-.62,0,.44.44,0,0,1,0-.62Z"/><path class="cls-1" d="M40.24,89.86a1.36,1.36,0,1,1-1.36,1.36A1.36,1.36,0,0,1,40.24,89.86Z"/><path class="cls-1" d="M49,88.3a.43.43,0,0,1,0-.62.45.45,0,0,1,.62,0L56,94.26a.45.45,0,0,1,0,.62.43.43,0,0,1-.62,0Z"/><path class="cls-1" d="M55.34,87.69a.44.44,0,1,1,.63.61L49.6,94.87a.44.44,0,0,1-.63-.61Z"/><path class="cls-1" d="M52.45,89.86a1.36,1.36,0,1,1-1.37,1.36A1.36,1.36,0,0,1,52.45,89.86Z"/><path class="cls-1" d="M61.18,88.3a.44.44,0,0,1,.63-.61l6.37,6.57a.43.43,0,0,1,0,.62.42.42,0,0,1-.61,0Z"/><path class="cls-1" d="M67.56,87.69a.44.44,0,0,1,.61,0,.43.43,0,0,1,0,.62l-6.37,6.57a.43.43,0,0,1-.62,0,.45.45,0,0,1,0-.62Z"/><path class="cls-1" d="M64.66,89.86a1.36,1.36,0,1,1-1.36,1.36A1.36,1.36,0,0,1,64.66,89.86Z"/><path class="cls-1" d="M73.39,88.3a.44.44,0,0,1,.63-.61l6.37,6.57a.43.43,0,0,1,0,.62.42.42,0,0,1-.61,0Z"/><path class="cls-1" d="M79.77,87.69a.44.44,0,0,1,.61,0,.43.43,0,0,1,0,.62L74,94.87a.43.43,0,0,1-.62,0,.45.45,0,0,1,0-.62Z"/><path class="cls-1" d="M76.87,89.86a1.36,1.36,0,1,1-1.36,1.36A1.36,1.36,0,0,1,76.87,89.86Z"/><path class="cls-1" d="M85.61,88.3a.43.43,0,0,1,0-.62.44.44,0,0,1,.61,0l6.37,6.57a.44.44,0,0,1,0,.62.43.43,0,0,1-.62,0Z"/><path class="cls-1" d="M92,87.69a.44.44,0,1,1,.63.61l-6.37,6.57a.43.43,0,0,1-.62,0,.44.44,0,0,1,0-.62Z"/><path class="cls-1" d="M89.08,89.86a1.36,1.36,0,1,1-1.36,1.36A1.36,1.36,0,0,1,89.08,89.86Z"/><path class="cls-1" d="M97.82,88.3a.44.44,0,0,1,0-.62.45.45,0,0,1,.62,0l6.37,6.57a.44.44,0,0,1,0,.62.43.43,0,0,1-.62,0Z"/><path class="cls-1" d="M104.19,87.69a.44.44,0,1,1,.63.61l-6.38,6.57a.42.42,0,0,1-.61,0,.43.43,0,0,1,0-.62Z"/><path class="cls-1" d="M101.29,89.86a1.36,1.36,0,1,1-1.36,1.36A1.37,1.37,0,0,1,101.29,89.86Z"/><path class="cls-1" d="M110,88.3a.44.44,0,0,1,0-.62.45.45,0,0,1,.62,0L117,94.26a.44.44,0,0,1,0,.62.43.43,0,0,1-.62,0Z"/><path class="cls-1" d="M116.4,87.69a.44.44,0,1,1,.63.61l-6.38,6.57a.42.42,0,0,1-.61,0,.43.43,0,0,1,0-.62Z"/><path class="cls-1" d="M113.51,89.86a1.36,1.36,0,1,1-1.36,1.36A1.36,1.36,0,0,1,113.51,89.86Z"/><path class="cls-1" d="M122.24,88.3a.44.44,0,0,1,.63-.61l6.37,6.57a.44.44,0,1,1-.63.61Z"/><path class="cls-1" d="M128.61,87.69a.45.45,0,0,1,.62,0,.43.43,0,0,1,0,.62l-6.37,6.57a.43.43,0,0,1-.62,0,.45.45,0,0,1,0-.62Z"/><path class="cls-1" d="M125.72,89.86a1.36,1.36,0,1,1-1.36,1.36A1.36,1.36,0,0,1,125.72,89.86Z"/><path class="cls-1" d="M134.45,88.3a.44.44,0,0,1,0-.62.45.45,0,0,1,.62,0l6.37,6.57a.44.44,0,0,1,0,.62.43.43,0,0,1-.62,0Z"/><path class="cls-1" d="M140.82,87.69a.45.45,0,0,1,.62,0,.44.44,0,0,1,0,.62l-6.37,6.57a.43.43,0,0,1-.62,0,.44.44,0,0,1,0-.62Z"/><path class="cls-1" d="M137.93,89.86a1.36,1.36,0,1,1-1.36,1.36A1.36,1.36,0,0,1,137.93,89.86Z"/><path class="cls-1" d="M146.67,88.3a.43.43,0,0,1,0-.62.44.44,0,0,1,.61,0l6.37,6.57a.44.44,0,0,1,0,.62.43.43,0,0,1-.62,0Z"/><path class="cls-1" d="M153,87.69a.45.45,0,0,1,.62,0,.44.44,0,0,1,0,.62l-6.37,6.57a.42.42,0,0,1-.61,0,.43.43,0,0,1,0-.62Z"/><path class="cls-1" d="M150.14,89.86a1.36,1.36,0,1,1-1.36,1.36A1.36,1.36,0,0,1,150.14,89.86Z"/><path class="cls-1" d="M.13,102.89a.43.43,0,0,1,0-.62.44.44,0,0,1,.61,0l6.38,6.57a.45.45,0,0,1,0,.62.43.43,0,0,1-.62,0Z"/><path class="cls-1" d="M6.49,102.28a.45.45,0,0,1,.62,0,.44.44,0,0,1,0,.62L.75,109.46a.43.43,0,0,1-.62,0,.45.45,0,0,1,0-.62Z"/><path class="cls-1" d="M3.6,104.45a1.36,1.36,0,1,1-1.36,1.36A1.36,1.36,0,0,1,3.6,104.45Z"/><path class="cls-1" d="M12.34,102.89a.43.43,0,0,1,0-.62.44.44,0,0,1,.61,0l6.38,6.57a.45.45,0,0,1,0,.62.43.43,0,0,1-.62,0Z"/><path class="cls-1" d="M18.7,102.28a.45.45,0,0,1,.62,0,.44.44,0,0,1,0,.62L13,109.46a.43.43,0,0,1-.62,0,.44.44,0,0,1,0-.62Z"/><path class="cls-1" d="M15.82,104.45a1.36,1.36,0,1,1-1.36,1.36A1.36,1.36,0,0,1,15.82,104.45Z"/><path class="cls-1" d="M24.55,102.89a.44.44,0,0,1,0-.62.45.45,0,0,1,.62,0l6.37,6.57a.43.43,0,0,1,0,.62.42.42,0,0,1-.61,0Z"/><path class="cls-1" d="M30.91,102.28a.45.45,0,0,1,.62,0,.44.44,0,0,1,0,.62l-6.37,6.57a.43.43,0,0,1-.62,0,.44.44,0,0,1,0-.62Z"/><path class="cls-1" d="M28,104.45a1.36,1.36,0,1,1-1.36,1.36A1.36,1.36,0,0,1,28,104.45Z"/><path class="cls-1" d="M36.76,102.89a.44.44,0,0,1,0-.62.45.45,0,0,1,.62,0l6.37,6.57a.44.44,0,0,1,0,.62.43.43,0,0,1-.62,0Z"/><path class="cls-1" d="M43.13,102.28a.45.45,0,0,1,.62,0,.44.44,0,0,1,0,.62l-6.37,6.57a.43.43,0,0,1-.62,0,.44.44,0,0,1,0-.62Z"/><path class="cls-1" d="M40.24,104.45a1.36,1.36,0,1,1-1.36,1.36A1.36,1.36,0,0,1,40.24,104.45Z"/><path class="cls-1" d="M49,102.89a.43.43,0,0,1,0-.62.45.45,0,0,1,.62,0L56,108.85a.45.45,0,0,1,0,.62.43.43,0,0,1-.62,0Z"/><path class="cls-1" d="M55.34,102.28a.44.44,0,1,1,.63.61l-6.37,6.57a.44.44,0,0,1-.63-.61Z"/><path class="cls-1" d="M52.45,104.45a1.36,1.36,0,1,1-1.37,1.36A1.36,1.36,0,0,1,52.45,104.45Z"/><path class="cls-1" d="M61.18,102.89a.44.44,0,0,1,.63-.61l6.37,6.57a.43.43,0,0,1,0,.62.42.42,0,0,1-.61,0Z"/><path class="cls-1" d="M67.56,102.28a.44.44,0,0,1,.61,0,.43.43,0,0,1,0,.62l-6.37,6.57a.43.43,0,0,1-.62,0,.45.45,0,0,1,0-.62Z"/><path class="cls-1" d="M64.66,104.45a1.36,1.36,0,1,1-1.36,1.36A1.36,1.36,0,0,1,64.66,104.45Z"/><path class="cls-1" d="M73.39,102.89a.44.44,0,0,1,.63-.61l6.37,6.57a.43.43,0,0,1,0,.62.42.42,0,0,1-.61,0Z"/><path class="cls-1" d="M79.77,102.28a.44.44,0,0,1,.61,0,.43.43,0,0,1,0,.62L74,109.46a.43.43,0,0,1-.62,0,.45.45,0,0,1,0-.62Z"/><path class="cls-1" d="M76.87,104.45a1.36,1.36,0,1,1-1.36,1.36A1.36,1.36,0,0,1,76.87,104.45Z"/><path class="cls-1" d="M85.61,102.89a.43.43,0,0,1,0-.62.44.44,0,0,1,.61,0l6.37,6.57a.44.44,0,0,1,0,.62.43.43,0,0,1-.62,0Z"/><path class="cls-1" d="M92,102.28a.44.44,0,1,1,.63.61l-6.37,6.57a.43.43,0,0,1-.62,0,.44.44,0,0,1,0-.62Z"/><path class="cls-1" d="M89.08,104.45a1.36,1.36,0,1,1-1.36,1.36A1.36,1.36,0,0,1,89.08,104.45Z"/><path class="cls-1" d="M97.82,102.89a.44.44,0,0,1,0-.62.45.45,0,0,1,.62,0l6.37,6.57a.44.44,0,0,1,0,.62.43.43,0,0,1-.62,0Z"/><path class="cls-1" d="M104.19,102.28a.44.44,0,0,1,.63.61l-6.38,6.57a.42.42,0,0,1-.61,0,.43.43,0,0,1,0-.62Z"/><path class="cls-1" d="M101.29,104.45a1.36,1.36,0,1,1-1.36,1.36A1.37,1.37,0,0,1,101.29,104.45Z"/><path class="cls-1" d="M110,102.89a.44.44,0,0,1,0-.62.45.45,0,0,1,.62,0l6.37,6.57a.44.44,0,0,1,0,.62.43.43,0,0,1-.62,0Z"/><path class="cls-1" d="M116.4,102.28a.44.44,0,1,1,.63.61l-6.38,6.57a.42.42,0,0,1-.61,0,.43.43,0,0,1,0-.62Z"/><path class="cls-1" d="M113.51,104.45a1.36,1.36,0,1,1-1.36,1.36A1.36,1.36,0,0,1,113.51,104.45Z"/><path class="cls-1" d="M122.24,102.89a.44.44,0,0,1,.63-.61l6.37,6.57a.44.44,0,1,1-.63.61Z"/><path class="cls-1" d="M128.61,102.28a.45.45,0,0,1,.62,0,.43.43,0,0,1,0,.62l-6.37,6.57a.43.43,0,0,1-.62,0,.45.45,0,0,1,0-.62Z"/><path class="cls-1" d="M125.72,104.45a1.36,1.36,0,1,1-1.36,1.36A1.36,1.36,0,0,1,125.72,104.45Z"/><path class="cls-1" d="M134.45,102.89a.44.44,0,0,1,0-.62.45.45,0,0,1,.62,0l6.37,6.57a.44.44,0,0,1,0,.62.43.43,0,0,1-.62,0Z"/><path class="cls-1" d="M140.82,102.28a.45.45,0,0,1,.62,0,.44.44,0,0,1,0,.62l-6.37,6.57a.43.43,0,0,1-.62,0,.44.44,0,0,1,0-.62Z"/><path class="cls-1" d="M137.93,104.45a1.36,1.36,0,1,1-1.36,1.36A1.36,1.36,0,0,1,137.93,104.45Z"/><path class="cls-1" d="M146.67,102.89a.43.43,0,0,1,0-.62.44.44,0,0,1,.61,0l6.37,6.57a.44.44,0,0,1,0,.62.43.43,0,0,1-.62,0Z"/><path class="cls-1" d="M153,102.28a.45.45,0,0,1,.62,0,.44.44,0,0,1,0,.62l-6.37,6.57a.42.42,0,0,1-.61,0,.43.43,0,0,1,0-.62Z"/><path class="cls-1" d="M150.14,104.45a1.36,1.36,0,1,1-1.36,1.36A1.36,1.36,0,0,1,150.14,104.45Z"/><path class="cls-1" d="M.13,117.49a.43.43,0,0,1,0-.62.43.43,0,0,1,.61,0l6.38,6.57a.45.45,0,0,1,0,.62.44.44,0,0,1-.62,0Z"/><path class="cls-1" d="M6.49,116.88a.44.44,0,0,1,.63.61L.75,124.06a.44.44,0,0,1-.62,0,.45.45,0,0,1,0-.62Z"/><path class="cls-1" d="M3.6,119.05a1.36,1.36,0,1,1-1.36,1.35A1.36,1.36,0,0,1,3.6,119.05Z"/><path class="cls-1" d="M12.34,117.49a.43.43,0,1,1,.62-.61l6.38,6.57a.45.45,0,0,1,0,.62.44.44,0,0,1-.62,0Z"/><path class="cls-1" d="M18.7,116.88a.44.44,0,1,1,.63.61L13,124.06a.44.44,0,1,1-.63-.61Z"/><path class="cls-1" d="M15.82,119.05a1.36,1.36,0,1,1-1.36,1.35A1.36,1.36,0,0,1,15.82,119.05Z"/><path class="cls-1" d="M24.55,117.49a.43.43,0,1,1,.62-.61l6.37,6.57a.43.43,0,1,1-.62.61Z"/><path class="cls-1" d="M30.91,116.88a.44.44,0,1,1,.63.61l-6.37,6.57a.44.44,0,1,1-.63-.61Z"/><path class="cls-1" d="M28,119.05a1.36,1.36,0,1,1-1.36,1.35A1.36,1.36,0,0,1,28,119.05Z"/><path class="cls-1" d="M36.76,117.49a.44.44,0,0,1,.63-.61l6.37,6.57a.44.44,0,1,1-.63.61Z"/><path class="cls-1" d="M43.13,116.88a.44.44,0,1,1,.63.61l-6.37,6.57a.44.44,0,0,1-.63-.61Z"/><path class="cls-1" d="M40.24,119.05a1.36,1.36,0,1,1-1.36,1.35A1.36,1.36,0,0,1,40.24,119.05Z"/><path class="cls-1" d="M49,117.49a.43.43,0,0,1,0-.62.44.44,0,0,1,.62,0L56,123.45a.45.45,0,0,1,0,.62.44.44,0,0,1-.62,0Z"/><path class="cls-1" d="M55.34,116.88a.44.44,0,0,1,.62,0,.45.45,0,0,1,0,.62l-6.37,6.57a.44.44,0,0,1-.62,0,.43.43,0,0,1,0-.62Z"/><path class="cls-1" d="M52.45,119.05a1.36,1.36,0,1,1-1.37,1.35A1.36,1.36,0,0,1,52.45,119.05Z"/><path class="cls-1" d="M61.18,117.49a.45.45,0,0,1,0-.62.44.44,0,0,1,.62,0l6.37,6.57a.43.43,0,1,1-.62.61Z"/><path class="cls-1" d="M67.56,116.88a.43.43,0,1,1,.62.61l-6.37,6.57a.44.44,0,0,1-.62,0,.45.45,0,0,1,0-.62Z"/><path class="cls-1" d="M64.66,119.05a1.36,1.36,0,1,1-1.36,1.35A1.36,1.36,0,0,1,64.66,119.05Z"/><path class="cls-1" d="M73.39,117.49a.45.45,0,0,1,0-.62.44.44,0,0,1,.62,0l6.37,6.57a.43.43,0,1,1-.62.61Z"/><path class="cls-1" d="M79.77,116.88a.43.43,0,1,1,.62.61L74,124.06a.44.44,0,0,1-.62,0,.45.45,0,0,1,0-.62Z"/><path class="cls-1" d="M76.87,119.05a1.36,1.36,0,1,1-1.36,1.35A1.36,1.36,0,0,1,76.87,119.05Z"/><path class="cls-1" d="M85.61,117.49a.43.43,0,1,1,.62-.61l6.37,6.57a.44.44,0,1,1-.63.61Z"/><path class="cls-1" d="M92,116.88a.44.44,0,0,1,.62,0,.45.45,0,0,1,0,.62l-6.37,6.57a.44.44,0,0,1-.63-.61Z"/><path class="cls-1" d="M89.08,119.05a1.36,1.36,0,1,1-1.36,1.35A1.36,1.36,0,0,1,89.08,119.05Z"/><path class="cls-1" d="M97.82,117.49a.44.44,0,1,1,.63-.61l6.37,6.57a.44.44,0,1,1-.63.61Z"/><path class="cls-1" d="M104.19,116.88a.44.44,0,0,1,.62,0,.45.45,0,0,1,0,.62l-6.38,6.57a.43.43,0,1,1-.62-.61Z"/><path class="cls-1" d="M101.29,119.05a1.36,1.36,0,1,1,0,2.72,1.36,1.36,0,1,1,0-2.72Z"/><path class="cls-1" d="M110,117.49a.44.44,0,0,1,.63-.61l6.37,6.57a.44.44,0,1,1-.63.61Z"/><path class="cls-1" d="M116.4,116.88a.44.44,0,0,1,.62,0,.45.45,0,0,1,0,.62l-6.38,6.57a.43.43,0,1,1-.62-.61Z"/><path class="cls-1" d="M113.51,119.05a1.36,1.36,0,1,1-1.36,1.35A1.36,1.36,0,0,1,113.51,119.05Z"/><path class="cls-1" d="M122.24,117.49a.45.45,0,0,1,0-.62.44.44,0,0,1,.62,0l6.37,6.57a.43.43,0,0,1,0,.62.44.44,0,0,1-.62,0Z"/><path class="cls-1" d="M128.61,116.88a.44.44,0,0,1,.62,0,.43.43,0,0,1,0,.62l-6.37,6.57a.44.44,0,0,1-.62,0,.45.45,0,0,1,0-.62Z"/><path class="cls-1" d="M125.72,119.05a1.36,1.36,0,1,1-1.36,1.35A1.36,1.36,0,0,1,125.72,119.05Z"/><path class="cls-1" d="M134.45,117.49a.44.44,0,0,1,.63-.61l6.37,6.57a.44.44,0,1,1-.63.61Z"/><path class="cls-1" d="M140.82,116.88a.44.44,0,1,1,.63.61l-6.37,6.57a.44.44,0,0,1-.63-.61Z"/><path class="cls-1" d="M137.93,119.05a1.36,1.36,0,1,1-1.36,1.35A1.36,1.36,0,0,1,137.93,119.05Z"/><path class="cls-1" d="M146.67,117.49a.43.43,0,1,1,.62-.61l6.37,6.57a.43.43,0,1,1-.62.61Z"/><path class="cls-1" d="M153,116.88a.43.43,0,1,1,.62.61l-6.37,6.57a.43.43,0,1,1-.62-.61Z"/><path class="cls-1" d="M150.14,119.05a1.36,1.36,0,1,1-1.36,1.35A1.36,1.36,0,0,1,150.14,119.05Z"/><path class="cls-1" d="M.13,132.08a.43.43,0,0,1,0-.62.43.43,0,0,1,.61,0L7.13,138a.45.45,0,0,1,0,.62.44.44,0,0,1-.62,0Z"/><path class="cls-1" d="M6.49,131.47a.44.44,0,0,1,.63.61L.75,138.65a.44.44,0,0,1-.62,0,.45.45,0,0,1,0-.62Z"/><path class="cls-1" d="M3.6,133.64A1.36,1.36,0,1,1,2.24,135,1.36,1.36,0,0,1,3.6,133.64Z"/><path class="cls-1" d="M12.34,132.08a.43.43,0,1,1,.62-.61L19.34,138a.45.45,0,0,1,0,.62.44.44,0,0,1-.62,0Z"/><path class="cls-1" d="M18.7,131.47a.44.44,0,0,1,.63.61L13,138.65a.44.44,0,1,1-.63-.61Z"/><path class="cls-1" d="M15.82,133.64A1.36,1.36,0,1,1,14.46,135,1.36,1.36,0,0,1,15.82,133.64Z"/><path class="cls-1" d="M24.55,132.08a.43.43,0,1,1,.62-.61L31.54,138a.43.43,0,1,1-.62.61Z"/><path class="cls-1" d="M30.91,131.47a.44.44,0,0,1,.63.61l-6.37,6.57a.44.44,0,0,1-.63-.61Z"/><path class="cls-1" d="M28,133.64A1.36,1.36,0,1,1,26.67,135,1.36,1.36,0,0,1,28,133.64Z"/><path class="cls-1" d="M36.76,132.08a.44.44,0,0,1,.63-.61L43.76,138a.44.44,0,0,1-.63.61Z"/><path class="cls-1" d="M43.13,131.47a.44.44,0,0,1,.63.61l-6.37,6.57a.44.44,0,0,1-.63-.61Z"/><path class="cls-1" d="M40.24,133.64A1.36,1.36,0,1,1,38.88,135,1.36,1.36,0,0,1,40.24,133.64Z"/><path class="cls-1" d="M49,132.08a.43.43,0,0,1,0-.62.44.44,0,0,1,.62,0L56,138a.45.45,0,0,1,0,.62.44.44,0,0,1-.62,0Z"/><path class="cls-1" d="M55.34,131.47a.44.44,0,0,1,.62,0,.45.45,0,0,1,0,.62l-6.37,6.57a.44.44,0,0,1-.62,0,.43.43,0,0,1,0-.62Z"/><path class="cls-1" d="M52.45,133.64A1.36,1.36,0,1,1,51.08,135,1.36,1.36,0,0,1,52.45,133.64Z"/><path class="cls-1" d="M61.18,132.08a.45.45,0,0,1,0-.62.44.44,0,0,1,.62,0L68.18,138a.43.43,0,1,1-.62.61Z"/><path class="cls-1" d="M67.56,131.47a.43.43,0,1,1,.62.61l-6.37,6.57a.44.44,0,0,1-.62,0,.45.45,0,0,1,0-.62Z"/><path class="cls-1" d="M64.66,133.64A1.36,1.36,0,1,1,63.3,135,1.36,1.36,0,0,1,64.66,133.64Z"/><path class="cls-1" d="M73.39,132.08a.45.45,0,0,1,0-.62.44.44,0,0,1,.62,0L80.39,138a.43.43,0,1,1-.62.61Z"/><path class="cls-1" d="M79.77,131.47a.43.43,0,1,1,.62.61L74,138.65a.44.44,0,0,1-.62,0,.45.45,0,0,1,0-.62Z"/><path class="cls-1" d="M76.87,133.64A1.36,1.36,0,1,1,75.51,135,1.36,1.36,0,0,1,76.87,133.64Z"/><path class="cls-1" d="M85.61,132.08a.43.43,0,1,1,.62-.61L92.6,138a.44.44,0,1,1-.63.61Z"/><path class="cls-1" d="M92,131.47a.44.44,0,0,1,.62,0,.45.45,0,0,1,0,.62l-6.37,6.57a.44.44,0,0,1-.63-.61Z"/><path class="cls-1" d="M89.08,133.64A1.36,1.36,0,1,1,87.72,135,1.36,1.36,0,0,1,89.08,133.64Z"/><path class="cls-1" d="M97.82,132.08a.44.44,0,1,1,.63-.61l6.37,6.57a.44.44,0,1,1-.63.61Z"/><path class="cls-1" d="M104.19,131.47a.44.44,0,0,1,.62,0,.45.45,0,0,1,0,.62l-6.38,6.57a.43.43,0,1,1-.62-.61Z"/><path class="cls-1" d="M101.29,133.64a1.36,1.36,0,1,1,0,2.72,1.36,1.36,0,1,1,0-2.72Z"/><path class="cls-1" d="M110,132.08a.44.44,0,0,1,.63-.61L117,138a.44.44,0,1,1-.63.61Z"/><path class="cls-1" d="M116.4,131.47a.44.44,0,0,1,.62,0,.45.45,0,0,1,0,.62l-6.38,6.57A.43.43,0,1,1,110,138Z"/><path class="cls-1" d="M113.51,133.64a1.36,1.36,0,1,1-1.36,1.35A1.36,1.36,0,0,1,113.51,133.64Z"/><path class="cls-1" d="M122.24,132.08a.45.45,0,0,1,0-.62.44.44,0,0,1,.62,0l6.37,6.57a.43.43,0,0,1,0,.62.44.44,0,0,1-.62,0Z"/><path class="cls-1" d="M128.61,131.47a.44.44,0,0,1,.62,0,.43.43,0,0,1,0,.62l-6.37,6.57a.44.44,0,0,1-.62,0,.45.45,0,0,1,0-.62Z"/><path class="cls-1" d="M125.72,133.64a1.36,1.36,0,1,1-1.36,1.35A1.36,1.36,0,0,1,125.72,133.64Z"/><path class="cls-1" d="M134.45,132.08a.44.44,0,0,1,.63-.61l6.37,6.57a.44.44,0,1,1-.63.61Z"/><path class="cls-1" d="M140.82,131.47a.44.44,0,1,1,.63.61l-6.37,6.57a.44.44,0,0,1-.63-.61Z"/><path class="cls-1" d="M137.93,133.64a1.36,1.36,0,1,1-1.36,1.35A1.36,1.36,0,0,1,137.93,133.64Z"/><path class="cls-1" d="M146.67,132.08a.43.43,0,1,1,.62-.61l6.37,6.57a.43.43,0,1,1-.62.61Z"/><path class="cls-1" d="M153,131.47a.43.43,0,1,1,.62.61l-6.37,6.57a.43.43,0,1,1-.62-.61Z"/><path class="cls-1" d="M150.14,133.64a1.36,1.36,0,1,1-1.36,1.35A1.36,1.36,0,0,1,150.14,133.64Z"/><path class="cls-1" d="M12.34,146.67a.42.42,0,0,1,0-.61.43.43,0,0,1,.61,0l6.38,6.58a.44.44,0,0,1,0,.61.43.43,0,0,1-.62,0Z"/><path class="cls-1" d="M18.7,146.06a.44.44,0,0,1,.62,0,.43.43,0,0,1,0,.61L13,153.24a.44.44,0,0,1-.63-.6Z"/><path class="cls-1" d="M15.82,148.23a1.36,1.36,0,1,1-1.36,1.36A1.36,1.36,0,0,1,15.82,148.23Z"/><path class="cls-1" d="M24.55,146.67a.43.43,0,0,1,0-.61.44.44,0,0,1,.62,0l6.37,6.58a.43.43,0,1,1-.62.6Z"/><path class="cls-1" d="M30.91,146.06a.44.44,0,0,1,.62,0,.43.43,0,0,1,0,.61l-6.37,6.57a.44.44,0,0,1-.63-.6Z"/><path class="cls-1" d="M28,148.23a1.36,1.36,0,1,1-1.36,1.36A1.36,1.36,0,0,1,28,148.23Z"/><path class="cls-1" d="M36.76,146.67a.43.43,0,0,1,0-.61.44.44,0,0,1,.62,0l6.37,6.58a.44.44,0,0,1-.63.6Z"/><path class="cls-1" d="M43.13,146.06a.44.44,0,0,1,.62,0,.43.43,0,0,1,0,.61l-6.37,6.57a.44.44,0,0,1-.63-.6Z"/><path class="cls-1" d="M40.24,148.23a1.36,1.36,0,1,1-1.36,1.36A1.36,1.36,0,0,1,40.24,148.23Z"/><path class="cls-1" d="M49,146.67a.42.42,0,0,1,0-.61.44.44,0,0,1,.62,0L56,152.64a.44.44,0,0,1,0,.61.43.43,0,0,1-.62,0Z"/><path class="cls-1" d="M55.34,146.06a.44.44,0,0,1,.63.61l-6.37,6.57a.43.43,0,0,1-.62,0,.42.42,0,0,1,0-.61Z"/><path class="cls-1" d="M52.45,148.23a1.36,1.36,0,1,1-1.37,1.36A1.36,1.36,0,0,1,52.45,148.23Z"/><path class="cls-1" d="M61.18,146.67a.44.44,0,0,1,.63-.61l6.37,6.58a.43.43,0,0,1-.62.6Z"/><path class="cls-1" d="M67.56,146.06a.43.43,0,0,1,.61,0,.42.42,0,0,1,0,.61l-6.37,6.57a.43.43,0,0,1-.62,0,.44.44,0,0,1,0-.61Z"/><path class="cls-1" d="M64.66,148.23a1.36,1.36,0,1,1-1.36,1.36A1.36,1.36,0,0,1,64.66,148.23Z"/><path class="cls-1" d="M73.39,146.67a.44.44,0,0,1,.63-.61l6.37,6.58a.43.43,0,0,1-.62.6Z"/><path class="cls-1" d="M79.77,146.06a.43.43,0,0,1,.61,0,.42.42,0,0,1,0,.61L74,153.24a.43.43,0,0,1-.62,0,.44.44,0,0,1,0-.61Z"/><path class="cls-1" d="M76.87,148.23a1.36,1.36,0,1,1-1.36,1.36A1.36,1.36,0,0,1,76.87,148.23Z"/><path class="cls-1" d="M85.61,146.67a.42.42,0,0,1,0-.61.43.43,0,0,1,.61,0l6.37,6.58a.44.44,0,0,1-.63.6Z"/><path class="cls-1" d="M92,146.06a.44.44,0,0,1,.63.61l-6.37,6.57a.44.44,0,0,1-.63-.6Z"/><path class="cls-1" d="M89.08,148.23a1.36,1.36,0,1,1-1.36,1.36A1.36,1.36,0,0,1,89.08,148.23Z"/><path class="cls-1" d="M97.82,146.67a.43.43,0,0,1,0-.61.44.44,0,0,1,.62,0l6.37,6.58a.44.44,0,0,1-.63.6Z"/><path class="cls-1" d="M104.19,146.06a.44.44,0,0,1,.63.61l-6.38,6.57a.43.43,0,1,1-.62-.6Z"/><path class="cls-1" d="M101.29,148.23a1.36,1.36,0,1,1-1.36,1.36A1.37,1.37,0,0,1,101.29,148.23Z"/><path class="cls-1" d="M110,146.67a.43.43,0,0,1,0-.61.44.44,0,0,1,.62,0l6.37,6.58a.44.44,0,0,1-.63.6Z"/><path class="cls-1" d="M116.4,146.06a.44.44,0,0,1,.63.61l-6.38,6.57a.43.43,0,1,1-.62-.6Z"/><path class="cls-1" d="M113.51,148.23a1.36,1.36,0,1,1-1.36,1.36A1.36,1.36,0,0,1,113.51,148.23Z"/><path class="cls-1" d="M122.24,146.67a.44.44,0,0,1,.63-.61l6.37,6.58a.42.42,0,0,1,0,.61.43.43,0,0,1-.62,0Z"/><path class="cls-1" d="M128.61,146.06a.44.44,0,0,1,.62,0,.42.42,0,0,1,0,.61l-6.37,6.57a.43.43,0,0,1-.62,0,.44.44,0,0,1,0-.61Z"/><path class="cls-1" d="M125.72,148.23a1.36,1.36,0,1,1-1.36,1.36A1.36,1.36,0,0,1,125.72,148.23Z"/><path class="cls-1" d="M134.45,146.67a.43.43,0,0,1,0-.61.44.44,0,0,1,.62,0l6.37,6.58a.44.44,0,0,1-.63.6Z"/><path class="cls-1" d="M140.82,146.06a.44.44,0,0,1,.62,0,.43.43,0,0,1,0,.61l-6.37,6.57a.44.44,0,0,1-.63-.6Z"/><path class="cls-1" d="M137.93,148.23a1.36,1.36,0,1,1-1.36,1.36A1.36,1.36,0,0,1,137.93,148.23Z"/><path class="cls-1" d="M146.67,146.67a.42.42,0,0,1,0-.61.43.43,0,0,1,.61,0l6.37,6.58a.43.43,0,1,1-.62.6Z"/><path class="cls-1" d="M153,146.06a.44.44,0,0,1,.62,0,.43.43,0,0,1,0,.61l-6.37,6.57a.43.43,0,1,1-.62-.6Z"/><path class="cls-1" d="M150.14,148.23a1.36,1.36,0,1,1-1.36,1.36A1.36,1.36,0,0,1,150.14,148.23Z"/><path class="cls-1" d="M158.6,146.61a.44.44,0,0,1,.63-.61l6.37,6.57a.45.45,0,0,1,0,.62.44.44,0,0,1-.62,0Z"/><path class="cls-1" d="M165,146a.44.44,0,0,1,.62,0,.45.45,0,0,1,0,.62l-6.37,6.57a.44.44,0,0,1-.63-.61Z"/><path class="cls-1" d="M162.08,148.17a1.36,1.36,0,1,1-1.36,1.36A1.36,1.36,0,0,1,162.08,148.17Z"/><path class="cls-1" d="M49,161.27a.43.43,0,0,1,0-.62.44.44,0,0,1,.62,0L56,167.23a.45.45,0,0,1,0,.62.44.44,0,0,1-.62,0Z"/><path class="cls-1" d="M55.34,160.65a.44.44,0,0,1,.63.61l-6.37,6.57a.43.43,0,0,1-.62,0,.42.42,0,0,1,0-.61Z"/><path class="cls-1" d="M52.45,162.82a1.36,1.36,0,1,1-1.37,1.37A1.36,1.36,0,0,1,52.45,162.82Z"/><path class="cls-1" d="M61.18,161.27a.45.45,0,0,1,0-.62.44.44,0,0,1,.62,0l6.37,6.57a.43.43,0,1,1-.62.61Z"/><path class="cls-1" d="M67.56,160.65a.43.43,0,0,1,.61,0,.42.42,0,0,1,0,.61l-6.37,6.57a.43.43,0,0,1-.62,0,.44.44,0,0,1,0-.61Z"/><path class="cls-1" d="M64.66,162.82a1.36,1.36,0,1,1-1.36,1.37A1.36,1.36,0,0,1,64.66,162.82Z"/><path class="cls-1" d="M73.39,161.27a.45.45,0,0,1,0-.62.44.44,0,0,1,.62,0l6.37,6.57a.43.43,0,1,1-.62.61Z"/><path class="cls-1" d="M79.77,160.65a.43.43,0,0,1,.61,0,.42.42,0,0,1,0,.61L74,167.83a.43.43,0,0,1-.62,0,.44.44,0,0,1,0-.61Z"/><path class="cls-1" d="M76.87,162.82a1.36,1.36,0,1,1-1.36,1.37A1.36,1.36,0,0,1,76.87,162.82Z"/><path class="cls-1" d="M85.61,161.27a.43.43,0,1,1,.62-.61l6.37,6.57a.44.44,0,1,1-.63.61Z"/><path class="cls-1" d="M92,160.65a.44.44,0,0,1,.63.61l-6.37,6.57a.44.44,0,0,1-.63-.6Z"/><path class="cls-1" d="M89.08,162.82a1.36,1.36,0,1,1-1.36,1.37A1.37,1.37,0,0,1,89.08,162.82Z"/><path class="cls-1" d="M97.82,161.27a.44.44,0,0,1,.63-.61l6.37,6.57a.44.44,0,1,1-.63.61Z"/><path class="cls-1" d="M104.19,160.65a.44.44,0,0,1,.63.61l-6.38,6.57a.43.43,0,1,1-.62-.6Z"/><path class="cls-1" d="M101.29,162.82a1.36,1.36,0,1,1-1.36,1.37A1.38,1.38,0,0,1,101.29,162.82Z"/><path class="cls-1" d="M110,161.27a.44.44,0,0,1,.63-.61l6.37,6.57a.44.44,0,1,1-.63.61Z"/><path class="cls-1" d="M116.4,160.65a.44.44,0,0,1,.63.61l-6.38,6.57a.43.43,0,1,1-.62-.6Z"/><path class="cls-1" d="M113.51,162.82a1.36,1.36,0,1,1-1.36,1.37A1.36,1.36,0,0,1,113.51,162.82Z"/><path class="cls-1" d="M122.24,161.27a.45.45,0,0,1,0-.62.44.44,0,0,1,.62,0l6.37,6.57a.43.43,0,0,1,0,.62.44.44,0,0,1-.62,0Z"/><path class="cls-1" d="M128.61,160.65a.44.44,0,0,1,.62,0,.42.42,0,0,1,0,.61l-6.37,6.57a.43.43,0,0,1-.62,0,.44.44,0,0,1,0-.61Z"/><path class="cls-1" d="M125.72,162.82a1.36,1.36,0,1,1-1.36,1.37A1.36,1.36,0,0,1,125.72,162.82Z"/><path class="cls-1" d="M134.45,161.27a.44.44,0,0,1,.63-.61l6.37,6.57a.44.44,0,1,1-.63.61Z"/><path class="cls-1" d="M140.82,160.65a.44.44,0,0,1,.62,0,.43.43,0,0,1,0,.61l-6.37,6.57a.44.44,0,0,1-.63-.6Z"/><path class="cls-1" d="M137.93,162.82a1.36,1.36,0,1,1-1.36,1.37A1.36,1.36,0,0,1,137.93,162.82Z"/><path class="cls-1" d="M146.67,161.27a.43.43,0,1,1,.62-.61l6.37,6.57a.43.43,0,1,1-.62.61Z"/><path class="cls-1" d="M153,160.65a.44.44,0,0,1,.62,0,.43.43,0,0,1,0,.61l-6.37,6.57a.43.43,0,1,1-.62-.6Z"/><path class="cls-1" d="M150.14,162.82a1.36,1.36,0,1,1-1.36,1.37A1.36,1.36,0,0,1,150.14,162.82Z"/><path class="cls-1" d="M158.88,161.27a.44.44,0,0,1,.63-.61l6.37,6.57a.44.44,0,1,1-.63.61Z"/><path class="cls-1" d="M165.25,160.65a.44.44,0,0,1,.62,0,.43.43,0,0,1,0,.61l-6.37,6.57a.44.44,0,0,1-.63-.6Z"/><path class="cls-1" d="M162.36,162.82a1.36,1.36,0,1,1-1.36,1.37A1.36,1.36,0,0,1,162.36,162.82Z"/><path class="cls-1" d="M61.18,175.86a.45.45,0,0,1,0-.62.44.44,0,0,1,.62,0l6.37,6.57a.43.43,0,1,1-.62.61Z"/><path class="cls-1" d="M67.56,175.25a.43.43,0,1,1,.62.61l-6.37,6.57a.44.44,0,0,1-.62,0,.45.45,0,0,1,0-.62Z"/><path class="cls-1" d="M64.66,177.42a1.36,1.36,0,1,1-1.36,1.36A1.36,1.36,0,0,1,64.66,177.42Z"/><path class="cls-1" d="M73.39,175.86a.45.45,0,0,1,0-.62.44.44,0,0,1,.62,0l6.37,6.57a.43.43,0,1,1-.62.61Z"/><path class="cls-1" d="M79.77,175.25a.43.43,0,1,1,.62.61L74,182.43a.44.44,0,0,1-.62,0,.45.45,0,0,1,0-.62Z"/><path class="cls-1" d="M76.87,177.42a1.36,1.36,0,1,1-1.36,1.36A1.36,1.36,0,0,1,76.87,177.42Z"/><path class="cls-1" d="M85.61,175.86a.43.43,0,1,1,.62-.61l6.37,6.57a.44.44,0,1,1-.63.61Z"/><path class="cls-1" d="M92,175.25a.44.44,0,0,1,.62,0,.45.45,0,0,1,0,.62l-6.37,6.57a.44.44,0,0,1-.63-.61Z"/><path class="cls-1" d="M89.08,177.42a1.36,1.36,0,1,1-1.36,1.36A1.36,1.36,0,0,1,89.08,177.42Z"/><path class="cls-1" d="M97.82,175.86a.44.44,0,0,1,.63-.61l6.37,6.57a.44.44,0,1,1-.63.61Z"/><path class="cls-1" d="M104.19,175.25a.44.44,0,0,1,.62,0,.45.45,0,0,1,0,.62l-6.38,6.57a.43.43,0,1,1-.62-.61Z"/><path class="cls-1" d="M101.29,177.42a1.36,1.36,0,1,1-1.36,1.36A1.37,1.37,0,0,1,101.29,177.42Z"/><path class="cls-1" d="M110,175.86a.44.44,0,0,1,.63-.61l6.37,6.57a.44.44,0,1,1-.63.61Z"/><path class="cls-1" d="M116.4,175.25a.44.44,0,0,1,.62,0,.45.45,0,0,1,0,.62l-6.38,6.57a.43.43,0,1,1-.62-.61Z"/><path class="cls-1" d="M113.51,177.42a1.36,1.36,0,1,1-1.36,1.36A1.36,1.36,0,0,1,113.51,177.42Z"/><path class="cls-1" d="M122.24,175.86a.45.45,0,0,1,0-.62.44.44,0,0,1,.62,0l6.37,6.57a.43.43,0,0,1,0,.62.44.44,0,0,1-.62,0Z"/><path class="cls-1" d="M128.61,175.25a.44.44,0,0,1,.62,0,.43.43,0,0,1,0,.62l-6.37,6.57a.44.44,0,0,1-.62,0,.45.45,0,0,1,0-.62Z"/><path class="cls-1" d="M125.72,177.42a1.36,1.36,0,1,1-1.36,1.36A1.36,1.36,0,0,1,125.72,177.42Z"/><path class="cls-1" d="M134.45,175.86a.44.44,0,0,1,.63-.61l6.37,6.57a.44.44,0,1,1-.63.61Z"/><path class="cls-1" d="M140.82,175.25a.44.44,0,1,1,.63.61l-6.37,6.57a.44.44,0,0,1-.63-.61Z"/><path class="cls-1" d="M137.93,177.42a1.36,1.36,0,1,1-1.36,1.36A1.36,1.36,0,0,1,137.93,177.42Z"/><path class="cls-1" d="M146.67,175.86a.43.43,0,1,1,.62-.61l6.37,6.57a.43.43,0,1,1-.62.61Z"/><path class="cls-1" d="M153,175.25a.43.43,0,1,1,.62.61l-6.37,6.57a.43.43,0,1,1-.62-.61Z"/><path class="cls-1" d="M150.14,177.42a1.36,1.36,0,1,1-1.36,1.36A1.36,1.36,0,0,1,150.14,177.42Z"/><path class="cls-1" d="M158.88,175.86a.44.44,0,0,1,.63-.61l6.37,6.57a.44.44,0,1,1-.63.61Z"/><path class="cls-1" d="M165.25,175.25a.44.44,0,1,1,.63.61l-6.37,6.57a.44.44,0,0,1-.63-.61Z"/><path class="cls-1" d="M162.36,177.42a1.36,1.36,0,1,1-1.36,1.36A1.36,1.36,0,0,1,162.36,177.42Z"/><path class="cls-1" d="M85.61,190.57a.42.42,0,0,1,0-.61.43.43,0,0,1,.61,0l6.37,6.58a.43.43,0,0,1,0,.61.44.44,0,0,1-.62,0Z"/><path class="cls-1" d="M92,190a.44.44,0,0,1,.63.61l-6.37,6.58a.44.44,0,0,1-.62,0,.43.43,0,0,1,0-.61Z"/><path class="cls-1" d="M89.08,192.13a1.37,1.37,0,1,1-1.36,1.36A1.36,1.36,0,0,1,89.08,192.13Z"/><path class="cls-1" d="M97.82,190.57a.43.43,0,0,1,0-.61.44.44,0,0,1,.62,0l6.37,6.58a.43.43,0,0,1,0,.61.44.44,0,0,1-.62,0Z"/><path class="cls-1" d="M104.19,190a.44.44,0,0,1,.63.61l-6.38,6.58a.43.43,0,0,1-.61,0,.42.42,0,0,1,0-.61Z"/><path class="cls-1" d="M101.29,192.13a1.37,1.37,0,0,1,0,2.73,1.37,1.37,0,0,1,0-2.73Z"/><path class="cls-1" d="M110,190.57a.43.43,0,0,1,0-.61.44.44,0,0,1,.62,0l6.37,6.58a.43.43,0,0,1,0,.61.44.44,0,0,1-.62,0Z"/><path class="cls-1" d="M116.4,190a.44.44,0,0,1,.63.61l-6.38,6.58a.43.43,0,0,1-.61,0,.42.42,0,0,1,0-.61Z"/><path class="cls-1" d="M113.51,192.13a1.37,1.37,0,1,1-1.36,1.36A1.36,1.36,0,0,1,113.51,192.13Z"/><path class="cls-1" d="M122.24,190.57a.44.44,0,0,1,.63-.61l6.37,6.58a.42.42,0,0,1,0,.61.44.44,0,0,1-.62,0Z"/><path class="cls-1" d="M128.61,190a.44.44,0,0,1,.62,0,.42.42,0,0,1,0,.61l-6.37,6.58a.44.44,0,0,1-.63-.61Z"/><path class="cls-1" d="M125.72,192.13a1.37,1.37,0,1,1-1.36,1.36A1.36,1.36,0,0,1,125.72,192.13Z"/><path class="cls-1" d="M134.45,190.57a.43.43,0,0,1,0-.61.44.44,0,0,1,.62,0l6.37,6.58a.43.43,0,0,1,0,.61.44.44,0,0,1-.62,0Z"/><path class="cls-1" d="M140.82,190a.44.44,0,0,1,.62,0,.43.43,0,0,1,0,.61l-6.37,6.58a.44.44,0,0,1-.62,0,.43.43,0,0,1,0-.61Z"/><path class="cls-1" d="M137.93,192.13a1.37,1.37,0,1,1-1.36,1.36A1.36,1.36,0,0,1,137.93,192.13Z"/><path class="cls-1" d="M146.67,190.57a.42.42,0,0,1,0-.61.43.43,0,0,1,.61,0l6.37,6.58a.43.43,0,0,1,0,.61.44.44,0,0,1-.62,0Z"/><path class="cls-1" d="M153,190a.44.44,0,0,1,.62,0,.43.43,0,0,1,0,.61l-6.37,6.58a.43.43,0,0,1-.61,0,.42.42,0,0,1,0-.61Z"/><path class="cls-1" d="M150.14,192.13a1.37,1.37,0,1,1-1.36,1.36A1.36,1.36,0,0,1,150.14,192.13Z"/><path class="cls-1" d="M122.24,205.29a.45.45,0,0,1,0-.62.44.44,0,0,1,.62,0l6.37,6.57a.43.43,0,0,1,0,.62.44.44,0,0,1-.62,0Z"/><path class="cls-1" d="M128.61,204.68a.44.44,0,0,1,.62,0,.42.42,0,0,1,0,.61l-6.37,6.57a.43.43,0,0,1-.62,0,.44.44,0,0,1,0-.61Z"/><path class="cls-1" d="M125.72,206.85a1.36,1.36,0,1,1-1.36,1.36A1.36,1.36,0,0,1,125.72,206.85Z"/><path class="cls-1" d="M134.45,205.29a.44.44,0,0,1,.63-.61l6.37,6.57a.44.44,0,1,1-.63.61Z"/><path class="cls-1" d="M140.82,204.68a.44.44,0,0,1,.62,0,.43.43,0,0,1,0,.61l-6.37,6.57a.44.44,0,0,1-.63-.6Z"/><path class="cls-1" d="M137.93,206.85a1.36,1.36,0,1,1-1.36,1.36A1.36,1.36,0,0,1,137.93,206.85Z"/></g></g></svg>