<svg xmlns="http://www.w3.org/2000/svg" viewBox="0 0 93 73"><defs><style>.cls-1{fill:#6ec9c3;}</style></defs><g id="Layer_2" data-name="Layer 2"><g id="Layer_1-2" data-name="Layer 1"><path class="cls-1" d="M.91,71.72A11.6,11.6,0,0,0,12.67,71c3.87-2.41,6.24-6.54,8-10.64,3.41-7.75,7.36-19-1.12-24.93-2.81-2-6.73-2.75-9.83-1-3.47,2-4.58,6.36-3.64,10.1,2.19,8.78,13.47,11,21.12,10.65A34.67,34.67,0,0,0,50.38,44.94a35.42,35.42,0,0,0,9.73-23.77c.07-4.1-.37-8.9-2.55-12.48a8.12,8.12,0,0,0-10-3.58,9.62,9.62,0,0,0-6.12,9.44,13.86,13.86,0,0,0,6.44,10.9c7.53,5.1,18.24,4.94,26.37,1.53A31.24,31.24,0,0,0,91.62,8.07,31.06,31.06,0,0,0,93,1.77c.3-2.37-3.39-2.35-3.68,0a28,28,0,0,1-9.9,17.89,27.27,27.27,0,0,1-20.66,5.8,19.47,19.47,0,0,1-10-3.95c-2.59-2.19-4.37-5.79-3.37-9.22.76-2.65,3.84-4.81,6.6-3.84,3.09,1.11,3.84,5.37,4.22,8.2C58.08,30.91,49.53,45.09,36,49.76c-6.41,2.22-14,2.63-20.36-.07-2.92-1.25-5.71-3.51-6.15-6.87-.37-2.71,1.07-5.54,4-5.64s5.81,2.18,6.87,4.8c1.68,4.16.09,9.06-1.42,13s-3.19,8.18-6.19,11.21c-2.54,2.57-6.64,4.2-10,2.33C.69,67.36-1.17,70.57.91,71.72Z"/></g></g></svg>