<svg xmlns="http://www.w3.org/2000/svg" viewBox="0 0 26.67 26.67"><defs><style>.cls-1{fill:#5eb9b3;}</style></defs><g id="Layer_2" data-name="Layer 2"><g id="Layer_1-2" data-name="Layer 1"><path class="cls-1" d="M7.53,25.21l-.13,0a13.31,13.31,0,0,1-6-6s0-.09,0-.13a42,42,0,0,0,5,1.12A43.61,43.61,0,0,0,7.53,25.21Z"/><path class="cls-1" d="M25.25,19.27a13.45,13.45,0,0,1-6.2,6.09,40,40,0,0,0,1.21-5.12,41.41,41.41,0,0,0,5-1.12C25.21,19.17,25.25,19.23,25.25,19.27Z"/><path class="cls-1" d="M25.36,7.61a42.92,42.92,0,0,0-5.1-1.21,36.93,36.93,0,0,0-1.21-5.09A13.4,13.4,0,0,1,25.36,7.61Z"/><path class="cls-1" d="M7.53,1.45a41.82,41.82,0,0,0-1.11,5A40.38,40.38,0,0,0,1.3,7.61a13.47,13.47,0,0,1,6.1-6.2S7.49,1.45,7.53,1.45Z"/><path class="cls-1" d="M18,6.12a41.41,41.41,0,0,0-9.31,0A37.24,37.24,0,0,1,10,.71c0-.11,0-.19,0-.3A14,14,0,0,1,13.33,0a14,14,0,0,1,3.26.41,1.54,1.54,0,0,0,0,.3A38.93,38.93,0,0,1,18,6.12Z"/><path class="cls-1" d="M6.12,18A38.23,38.23,0,0,1,.71,16.63a1.53,1.53,0,0,0-.3,0A14,14,0,0,1,0,13.33a13.91,13.91,0,0,1,.41-3.25,1.54,1.54,0,0,0,.3,0A38.58,38.58,0,0,1,6.12,8.68,43.9,43.9,0,0,0,6.12,18Z"/><path class="cls-1" d="M26.67,13.33a13.5,13.5,0,0,1-.42,3.27,1.5,1.5,0,0,0-.29,0A42.39,42.39,0,0,1,20.55,18a42.62,42.62,0,0,0,0-9.31A37.57,37.57,0,0,1,26,10a1,1,0,0,0,.29,0A13.46,13.46,0,0,1,26.67,13.33Z"/><path class="cls-1" d="M18,20.55A38.23,38.23,0,0,1,16.63,26a1.55,1.55,0,0,0,0,.29,13.48,13.48,0,0,1-3.26.42,13.48,13.48,0,0,1-3.26-.42c0-.1,0-.18,0-.29a38.58,38.58,0,0,1-1.36-5.41,42.52,42.52,0,0,0,4.65.29A42.55,42.55,0,0,0,18,20.55Z"/><path class="cls-1" d="M18.35,18.35a40.08,40.08,0,0,1-10,0,39.15,39.15,0,0,1,0-10,40.08,40.08,0,0,1,10,0A40.08,40.08,0,0,1,18.35,18.35Z"/></g></g></svg>