<svg xmlns="http://www.w3.org/2000/svg" viewBox="0 0 104 127"><defs><style>.cls-1{fill:#f8cbc5;fill-rule:evenodd;}</style></defs><g id="Layer_2" data-name="Layer 2"><g id="Layer_1-2" data-name="Layer 1"><path class="cls-1" d="M43.83,54.55a40,40,0,0,1,.62-8.4c1.38-7.58,7.71-12.06,14.25-13.21a16.1,16.1,0,0,1,11.36,1.93,11.77,11.77,0,0,1,4.72,5.7,14.59,14.59,0,0,1,1.07,8.61,11.24,11.24,0,0,1-3.65,6c-5.77,5.16-15.86,6.26-20.46,4.1A49.59,49.59,0,0,1,43.83,54.55Zm-2.38-1.8a44.8,44.8,0,0,1,.71-7.43A19.7,19.7,0,0,1,58.41,29.61C66,28.29,73.82,31.3,76.84,38.92A19.08,19.08,0,0,1,78.11,50.2,14.69,14.69,0,0,1,73.46,58C67.13,63.66,56.05,64.82,51,62.45a49.76,49.76,0,0,1-6.85-3.94c1.28,9.91,6,19.29,12.34,27.75,13.74,18.38,35.07,32.33,46.68,37.46a1.88,1.88,0,0,1,.78,2.1c-.2.88-.86,1.38-1.48,1.1-11.85-5.23-33.59-19.47-47.6-38.22-7.24-9.68-12.4-20.57-13.28-32C25.22,44.25,11.78,21.73.29,2.77A2.19,2.19,0,0,1,.41.41,1,1,0,0,1,2.08.58C13.1,18.76,25.9,40.39,41.45,52.75Z"/></g></g></svg>