<svg xmlns="http://www.w3.org/2000/svg" viewBox="0 0 101 84"><defs><style>.cls-1{fill:#ceeeec;}</style></defs><g id="Layer_2" data-name="Layer 2"><g id="Layer_1-2" data-name="Layer 1"><path class="cls-1" d="M73.44,67.55V23.78h8.27V67.55Zm-19,0V33.14h8.26V67.55Zm-19,0V42.48h8.27V67.55Zm64,0H84.7V23.29a2.49,2.49,0,0,0-2.49-2.48H72.94a2.49,2.49,0,0,0-2.49,2.48V67.55H65.73V32.64a2.49,2.49,0,0,0-2.5-2.47H54a2.49,2.49,0,0,0-2.5,2.47V67.55H46.75V42a2.49,2.49,0,0,0-2.49-2.48H35A2.49,2.49,0,0,0,32.5,42V67.55H16.78V1.48a1.5,1.5,0,0,0-3,0V67.55H1.5a1.49,1.49,0,1,0,0,3H13.78v12a1.5,1.5,0,0,0,3,0v-12H99.5a1.49,1.49,0,1,0,0-3Z"/></g></g></svg>