<svg xmlns="http://www.w3.org/2000/svg" viewBox="0 0 68.92 95.53"><defs><style>.cls-1{fill:#ffb200;}</style></defs><g id="Layer_2" data-name="Layer 2"><g id="Layer_1-2" data-name="Layer 1"><path class="cls-1" d="M8.74,93.58a71.27,71.27,0,0,1-5.4-33c.76-10,3.87-22.48,13.22-28.11,5.65-3.41,11.4,1.05,15.57,4.78,3.63,3.24,8,7.92,9,12.87.52,2.72-.86,5-3.89,4.62s-5-3.35-6.18-5.91A27.48,27.48,0,0,1,28.75,34C30.24,21.44,40.64,11.5,53.19,10.06c2.87-.33,2.9-4.84,0-4.48-14,1.74-26,12-28.44,26a32.09,32.09,0,0,0,2.14,18.56c2.33,5.29,7.42,10.76,13.84,8.42,5.67-2.06,5.39-8.46,3.23-13-3.07-6.4-8.71-12-14.75-15.62s-11.85-3.48-17.36,1.33C7,35.63,3.94,41.7,2.22,47.86c-4.31,15.44-2.06,32.52,4.3,47C7.17,96.37,9.37,95.07,8.74,93.58Z"/><path class="cls-1" d="M42.44,4.48c8,.52,16.08.37,24.07.18L64.26,1.73a57.72,57.72,0,0,1-10.5,16.89c-1.9,2.14,1.24,5.25,3.18,3.11A64.18,64.18,0,0,0,68.79,2.92C69.37,1.52,67.91,0,66.55,0A212.93,212.93,0,0,0,42.07,1.52C40.29,1.76,40.83,4.37,42.44,4.48Z"/></g></g></svg>