<svg xmlns="http://www.w3.org/2000/svg" viewBox="0 0 104 143"><defs><style>.cls-1{fill:#ffe5df;}</style></defs><g id="Layer_2" data-name="Layer 2"><g id="Layer_1-2" data-name="Layer 1"><path class="cls-1" d="M11.69,28.06A52.67,52.67,0,0,1,42.22,4.65l1.72,6.29c-.47.14-.92.3-1.37.45l-.61.19c-1,.36-2.07.76-3.08,1.19l-.75.34c-1,.44-2,.91-2.93,1.42l-.54.31c-.91.5-1.8,1-2.67,1.59l-.39.24c-1,.64-1.91,1.32-2.83,2l-.35.27c-1,.75-1.89,1.56-2.78,2.39l0,0a46.26,46.26,0,0,0-5.74,6.43l-1.08,1.41,0,0q-.69,1-1.32,2.07A44.81,44.81,0,0,0,12.44,66,45.46,45.46,0,0,0,33.76,94c.72.42,1.45.8,2.19,1.18l-.05.07,2.4,1.07.24.09c.61.27,1.21.52,1.82.76l.65.25c.62.24,1.25.46,1.87.67l.54.17c1,.31,2.07.61,3.11.86.45.11.89.22,1.34.31s.79.16,1.18.23c.57.09,1.13.19,1.7.27.33.06.67.1,1,.14.68.09,1.37.15,2,.21l.72.06c1,0,1.92.09,2.88.09a48,48,0,0,0,9.37-1l1.65,6.33a53.48,53.48,0,0,1-38.18-6.17,52,52,0,0,1-24.36-32A51.12,51.12,0,0,1,11.69,28.06ZM97.86,42.41,80.49,46.78A75.64,75.64,0,0,0,70,24a45.83,45.83,0,0,0,6.42-6.42c.91.44,1.79.91,2.67,1.43A41.25,41.25,0,0,1,97.86,42.41Zm-4,33.49c-.5.84-1,1.66-1.63,2.48a46.16,46.16,0,0,0-8.78-2.59,75,75,0,0,0-1.89-25l17.38-4.37A40.66,40.66,0,0,1,93.83,75.9Zm-41-47.53L49.14,14.15l.21,0c4.74,0,9.92,3.37,14.63,9A41.87,41.87,0,0,1,52.83,28.37ZM59,52.15,53.87,32.39a46.55,46.55,0,0,0,12.66-5.91,72.58,72.58,0,0,1,9.85,21.31ZM69.91,94.21,66.22,80a42.36,42.36,0,0,1,12.33-.66C77.16,86.6,74.17,92.05,69.91,94.21ZM62.12,81l3.69,14.23C61,95.34,55.75,92,51,86.22A43.1,43.1,0,0,1,62.12,81ZM56,57.21,61.09,77a47,47,0,0,0-12.66,5.9,72.84,72.84,0,0,1-9.85-21.31Zm-10.91-42,3.69,14.23a42.68,42.68,0,0,1-12.33.67C37.81,22.78,40.78,17.33,45.05,15.16Zm-9.26,19c1.49.14,3,.23,4.5.23a48,48,0,0,0,9.5-1L54.9,53.18,37.52,57.55A72.33,72.33,0,0,1,35.79,34.2Zm49.28,52a1.12,1.12,0,0,0-.2.18c-.75.62-1.51,1.22-2.3,1.8l-.41.29q-1,.69-2,1.32l-.58.36-.38.21a35.25,35.25,0,0,0,3.59-10.43,42.17,42.17,0,0,1,6.71,1.89A46,46,0,0,1,85.07,86.2Zm-5.91-11a47.18,47.18,0,0,0-14,.75L60.05,56.19l17.38-4.37A72,72,0,0,1,79.16,75.16ZM62.63,13.43l.45,0c1,.14,2.06.32,3.07.52l.24.06c.94.21,1.88.43,2.82.71a1.57,1.57,0,0,1,.35.11c.9.26,1.79.55,2.68.88l.15.06a40.94,40.94,0,0,1-5,4.81,36.14,36.14,0,0,0-8.21-7.46l.93,0C61,13.24,61.8,13.31,62.63,13.43ZM30.1,23c.74-.63,1.52-1.24,2.31-1.8a3.89,3.89,0,0,1,.39-.28c.67-.47,1.33-.92,2-1.33.18-.11.36-.24.55-.35l.38-.22a35.37,35.37,0,0,0-3.6,10.42,42,42,0,0,1-6.7-1.88,41.06,41.06,0,0,1,4.45-4.4Zm-9,10.45c.52-.86,1.07-1.68,1.64-2.48a46.68,46.68,0,0,0,8.78,2.59,74.84,74.84,0,0,0,1.89,25L16.06,62.94A40.68,40.68,0,0,1,21.13,33.47Zm14.77,57A41.44,41.44,0,0,1,17.09,67L34.47,62.6A76,76,0,0,0,45,85.45a46.44,46.44,0,0,0-6.43,6.42C37.68,91.41,36.78,90.94,35.9,90.44Zm18.79,5.74c-.82-.06-1.63-.13-2.45-.24l-.45,0c-1-.14-2-.3-2.92-.5a1.8,1.8,0,0,1-.22-.06,43.73,43.73,0,0,1-6.07-1.76,41.76,41.76,0,0,1,5-4.81,35.8,35.8,0,0,0,8.23,7.46,3.31,3.31,0,0,1-.45,0Zm22.1,35.54a3.26,3.26,0,0,1,1,2.35l0,4.61-40.2-.34,0-4.6a3.35,3.35,0,0,1,3.38-3.3h0l33.43.28A3.41,3.41,0,0,1,76.79,131.72ZM28.1,103.22a57.79,57.79,0,0,0,27.27,7.86v15.34L41,126.3h-.07a7.56,7.56,0,0,0-7.62,7.41l0,5.13H29.9a2.08,2.08,0,1,0,0,4.16H86.64a2.08,2.08,0,1,0,0-4.16H81.92l0-4.72a7.42,7.42,0,0,0-2.19-5.31,7.61,7.61,0,0,0-5.36-2.24l-14.84-.12V111.06a58.16,58.16,0,0,0,11.94-1.7,2.15,2.15,0,0,0,1.3-1,2.07,2.07,0,0,0,.22-1.58l-2.17-8.36c.51-.15,1-.31,1.51-.48l.62-.21c1-.36,2.07-.76,3.07-1.19l.76-.33c1-.45,2-.92,2.94-1.43l.55-.31c.9-.5,1.79-1,2.66-1.59l.39-.25c1-.64,1.91-1.32,2.84-2,.11-.1.24-.18.35-.28,1-.75,1.89-1.55,2.78-2.39l0,0a46.26,46.26,0,0,0,5.74-6.43L96.2,80.1l-.06,0c.47-.68.91-1.37,1.33-2.07a44.79,44.79,0,0,0,5.07-34.63,45.48,45.48,0,0,0-21.32-28c-.72-.41-1.44-.82-2.17-1.19l0-.06-1.65-.73a47,47,0,0,0-8.1-2.92l-.13,0c-.52-.14-1-.25-1.55-.38l-.59-.12-1.29-.25-1-.17c-.34-.05-.66-.11-1-.15s-1-.12-1.46-.17l-.57,0c-1.45-.14-2.92-.2-4.38-.2h-.19c-.64,0-1.31,0-2,.06l-.45,0c-.56,0-1.14.08-1.71.14l-.56.05c-.53.06-1.07.13-1.59.21l-.62.08-1.59.28-.58.11H48L45.76,1.55A2.14,2.14,0,0,0,43.19.06,56.91,56.91,0,0,0,8.05,25.93,55.18,55.18,0,0,0,1.81,68.65,56.06,56.06,0,0,0,28.1,103.22Z"/></g></g></svg>