<svg xmlns="http://www.w3.org/2000/svg" viewBox="0 0 71 73"><defs><style>.cls-1{fill:#2b3640;fill-rule:evenodd;}</style></defs><g id="Layer_2" data-name="Layer 2"><g id="Layer_1-2" data-name="Layer 1"><path class="cls-1" d="M45.85,62.72a20,20,0,0,0,5.25-2.66,16.25,16.25,0,0,0,4-3.39c1.34,1.89,2.69,3.78,3.85,5.8C58.16,65.58,54,68.58,50.86,68,48.48,67.65,47.16,64.8,45.85,62.72Zm11.3,6.88a10.69,10.69,0,0,0,1.51-1A3.17,3.17,0,0,1,57.15,69.6ZM45.5,59.47a6.2,6.2,0,0,1-2.12.48.87.87,0,0,0-.26-.08c-2.56-3.29-4.95-5.85-9.24-6.75s-8.66-1.07-12.4-3.73c-8.79-6.22-8.32-19.57-.75-26.57,3.9-3.6,9.16-6.23,14.54-6s13.74,3.45,15,9.58c1,5.11-.45,10.53-.74,15.66-.2,3.34-.18,6.39,1.75,9.22a21.91,21.91,0,0,1,1.81,2.9,5,5,0,0,1-.31.42q-3-5.13-6-10.34c-1.42-2.51-2.83-5-4.17-7.59,1.47-1.59,2.69-3.65,2.12-5.89-.7-2.77-4.84-7.41-7.09-3.2-.92,1.73.63,5.87,1.44,7.92,0,0,0,0-.06.05a48.09,48.09,0,0,1-3.87,3.24c-1.38-2.2-3.47-5.77-6.23-6a3.53,3.53,0,0,0-2.08.49c-3.61,2.12-2.33,7.74.59,9.85,2.17,1.57,4.51,1.16,6.7,0C37.84,48.64,42,53.87,45.5,59.47Zm-13-19.07a10.23,10.23,0,0,1-1.2.46c-1.42.41-2.93-1.17-3.25-2.51.32-.57,1.05-1.77,1.54-1.74.19,0,.45.33.55.47s0,0,0,.05A27.72,27.72,0,0,1,32.45,40.4ZM41,33.45A6.87,6.87,0,0,1,40.42,32c-.05-.21-.17-.92.11-1.05s.78.14,1,.35a1.19,1.19,0,0,1,0,1.53C41.32,33,41.16,33.24,41,33.45Zm9.16,23.47c-.53.36-1.09.68-1.64,1l-.16.1c-3.59-5.7-7.73-11-11.46-16.63.63-.45,1.23-.94,1.86-1.42l1.72-1.31c.71,1.61,1.49,3.2,2.27,4.78,1.58,3.2,3.27,6.35,5,9.45C48.39,54,49,55,49.66,56.07A6.08,6.08,0,0,0,50.16,56.92Zm2.09,14.56h0a6.09,6.09,0,0,0,7.69.26,5.94,5.94,0,0,0,1.68-7.31c1-2.31.79-3.19-.69-5.36-.93-1.33-1.9-2.65-2.85-3.95l-2.63-3.52c-.48-.65-1-1.37-1.48-2-2.19-3.42-1.22-7.84-.81-11.62.61-5.76,1.65-11.82-2.12-16.82C43.7,11.38,29.57,12,20.49,18.84a22.86,22.86,0,0,0-7.19,9.59A21.76,21.76,0,0,0,12,40.58,17.32,17.32,0,0,0,14.66,47a20.07,20.07,0,0,0,10.86,7.85c2.84.83,5.85.76,8.63,1.63,6.39,2,8.32,9.72,13,13.64A6.25,6.25,0,0,0,52.25,71.48ZM29.52,62.91a12.77,12.77,0,0,1-1.45,3.89,1.48,1.48,0,0,1-1.25.78,1.6,1.6,0,0,1-1.49-2.39,10.24,10.24,0,0,0,1.12-3C26.87,60.09,30,60.87,29.52,62.91ZM63,46.3a13,13,0,0,0,5.67.85c2-.33,2.75,2.78.69,3.12a15.51,15.51,0,0,1-7.23-.88C60.15,48.77,61,45.7,63,46.3Zm.21-20.39c1.62,0,4,.49,5.39-.41,1.75-1.12,3.38,1.63,1.65,2.74-2.15,1.38-4.66.91-7.05.88A1.61,1.61,0,0,1,63.22,25.91Zm-9.82-14A14.08,14.08,0,0,0,57.6,8c1.25-1.64,3.91.1,2.64,1.76A17.3,17.3,0,0,1,55,14.62a1.49,1.49,0,0,1-1.5,0A1.59,1.59,0,0,1,53.4,11.87ZM35.7,6.07A44.56,44.56,0,0,0,37,1.17C37.45-.85,40.53,0,40,2a48.43,48.43,0,0,1-1.31,5C38,9,35,8,35.7,6.07ZM17.37,11a21.47,21.47,0,0,0-2.58-3.16c-1.31-1.61,1-3.78,2.35-2.15a23.2,23.2,0,0,1,3,3.76A1.59,1.59,0,0,1,17.37,11ZM7.17,32.57a22.61,22.61,0,0,0-5.2,1,1.6,1.6,0,0,1-.82-3.1,26.92,26.92,0,0,1,6-1.14A1.61,1.61,0,0,1,7.17,32.57ZM9.39,51.3A12.91,12.91,0,0,1,5.58,54,1.49,1.49,0,0,1,4.09,54,1.61,1.61,0,0,1,4,51.22,11.63,11.63,0,0,0,7,49.13C8.4,47.52,10.71,49.7,9.39,51.3Z"/></g></g></svg>