<svg xmlns="http://www.w3.org/2000/svg" viewBox="0 0 75 67"><defs><style>.cls-1{fill:#ffd5af;}</style></defs><g id="Layer_2" data-name="Layer 2"><g id="Layer_1-2" data-name="Layer 1"><path class="cls-1" d="M55.64,63.3c-3.89,2.37-9.81.7-16-3.81a60.23,60.23,0,0,0,7.84-8.17,60.1,60.1,0,0,0,12.24-2.86C60.64,55.49,59.35,61,55.64,63.3Zm-36.27,0c-3.71-2.26-5-7.82-4.11-14.84a60.15,60.15,0,0,0,12.23,2.86,60.9,60.9,0,0,0,7.85,8.17C29.18,64,23.26,65.67,19.37,63.3ZM2.63,33.5c0-4.34,4.08-8.33,10.54-11.22a58.78,58.78,0,0,0,3.6,11.22,58.78,58.78,0,0,0-3.6,11.22C6.7,41.83,2.63,37.84,2.63,33.5ZM19.37,3.7c3.89-2.36,9.8-.7,16,3.81a60.84,60.84,0,0,0-7.84,8.17,60.1,60.1,0,0,0-12.24,2.86C14.37,11.52,15.66,6,19.37,3.7ZM51.52,2.63A7.83,7.83,0,0,1,55.63,3.7c3.71,2.26,5,7.82,4.11,14.84a60.15,60.15,0,0,0-12.23-2.86,61.51,61.51,0,0,0-7.85-8.17C43.93,4.39,48.08,2.63,51.52,2.63Zm1.75,40.48q1.9-3.15,3.44-6.29a54,54,0,0,1,2.59,8.94,56.19,56.19,0,0,1-9.47,2.53Q51.62,45.82,53.27,43.11ZM49.84,18.72a55.26,55.26,0,0,1,9.47,2.53,55.52,55.52,0,0,1-2.59,8.94c-1-2.09-2.17-4.18-3.44-6.29C52.17,22.09,51,20.37,49.84,18.72ZM31.29,15.28A57.89,57.89,0,0,1,37.5,9.2a58.85,58.85,0,0,1,6.21,6.08c-2-.15-4.09-.24-6.21-.24S33.31,15.13,31.29,15.28Zm-13,14.9a54,54,0,0,1-2.59-8.94,55.28,55.28,0,0,1,9.47-2.52c-1.19,1.64-2.33,3.36-3.44,5.17C20.46,26,19.31,28.09,18.29,30.18Zm6.87,18.1a54.36,54.36,0,0,1-9.47-2.53,55.52,55.52,0,0,1,2.59-8.94c1,2.09,2.17,4.18,3.44,6.29Q23.39,45.82,25.16,48.28Zm18.55,3.45A56.85,56.85,0,0,1,37.5,57.8a56.85,56.85,0,0,1-6.21-6.07c2,.15,4.09.24,6.21.24S41.69,51.88,43.71,51.73ZM37.5,49.35a70.94,70.94,0,0,1-8.62-.51A72.26,72.26,0,0,1,24,41.74a71.62,71.62,0,0,1-4.32-8.24A74.09,74.09,0,0,1,24,25.26a68.7,68.7,0,0,1,4.91-7.09,70.91,70.91,0,0,1,8.62-.52,69,69,0,0,1,8.62.52A70.93,70.93,0,0,1,51,25.26a71.62,71.62,0,0,1,4.32,8.24A74.09,74.09,0,0,1,51,41.74a70,70,0,0,1-4.91,7.1A73,73,0,0,1,37.5,49.35ZM72.38,33.5c0,4.34-4.08,8.33-10.54,11.22a59.5,59.5,0,0,0-3.6-11.22,59.5,59.5,0,0,0,3.6-11.22C68.3,25.17,72.38,29.17,72.38,33.5Zm-10.07,14C70.13,44.08,75,39.12,75,33.5S70.13,22.92,62.31,19.55c1.2-8.42-.5-15.16-5.31-18.08C52-1.6,44.77.28,37.5,5.78,30.23.29,23-1.59,18,1.47c-4.8,2.92-6.5,9.67-5.31,18.08C4.87,22.92,0,27.88,0,33.5s4.87,10.58,12.69,14c-1.2,8.42.5,15.16,5.31,18.08A10.41,10.41,0,0,0,23.51,67c4.2,0,9.07-2.06,14-5.77,4.92,3.71,9.8,5.77,14,5.77A10.41,10.41,0,0,0,57,65.53C61.81,62.61,63.51,55.87,62.31,47.45Z"/></g></g></svg>