<svg xmlns="http://www.w3.org/2000/svg" viewBox="0 0 43 43"><defs><style>.cls-1{fill:#ffd5af;}</style></defs><g id="Layer_2" data-name="Layer 2"><g id="Layer_1-2" data-name="Layer 1"><path class="cls-1" d="M21.49,31.78A21.65,21.65,0,0,0,11.21,21.5,21.65,21.65,0,0,0,21.49,11.22,21.59,21.59,0,0,0,31.76,21.5,21.71,21.71,0,0,0,21.49,31.78ZM40.94,19.45A17.4,17.4,0,0,1,23.56,2.06a2.06,2.06,0,0,0-4.12,0A17.4,17.4,0,0,1,2.06,19.45a2.06,2.06,0,1,0,0,4.11A17.39,17.39,0,0,1,19.44,41a2.06,2.06,0,0,0,4.12,0A17.39,17.39,0,0,1,40.94,23.56a2.06,2.06,0,1,0,0-4.11Z"/></g></g></svg>