<svg xmlns="http://www.w3.org/2000/svg" viewBox="0 0 97 110"><defs><style>.cls-1{fill:#ffe0dc;fill-rule:evenodd;}</style></defs><g id="Layer_2" data-name="Layer 2"><g id="Layer_1-2" data-name="Layer 1"><path class="cls-1" d="M6.76,64.83l.33,0a89,89,0,0,1,.32-37.73c.75-3.19,1.65-6.42,2.55-9.57.7-2.44,1.43-5,2.34-7.43-.61-.41-1.53-.94-2-.83s-.62.92-.7,1.23C7.6,19,5.7,27.59,4.48,36.31,3.52,43.1,1.64,59.14,6.76,64.83ZM9,56.5c.13-1.36.26-2.56.35-3.38a204.53,204.53,0,0,1,3.46-20.53c1-4.58,2.13-9.16,3.52-13.65a71.56,71.56,0,0,1,4-10.52A5,5,0,0,0,19.8,8a1.58,1.58,0,0,0-1.39-.26c-.83.39-1.54,2.33-2,3.14a1,1,0,0,1-.26.31c-1.07,3-2.1,6-3.07,9-.56,1.69-1.11,3.4-1.62,5.12a32.54,32.54,0,0,0-.91,3.59A108.78,108.78,0,0,0,9,56.5Zm3.43,4.64a194,194,0,0,1,9.87-30.25c1.72-4.07,3.57-8.07,5.46-12,1.52-3.19,3.08-6.38,4.54-9.6C31.44,8.43,30,7.12,29.06,7s-2,.85-2.61,1.44c-.85.82-1.17,2-2.57,1.94a75.3,75.3,0,0,0-5.77,15.4,164.48,164.48,0,0,0-4.39,21.72C13.11,52,12.66,56.58,12.46,61.14ZM39.05,9.65c-.3-.14-.6-.28-.9-.4s-1.76-.71-2.24-.4a.59.59,0,0,0-.2.38,1.7,1.7,0,0,1-.24.55c-1.39,3.87-3.06,7.66-4.77,11.41-2,4.3-4,8.56-5.86,12.89a142.61,142.61,0,0,0-9.66,28.8c2.13-1.92,3.52-7,4.61-9.23,3-6.19,6.39-12.22,9.49-18.37a117.72,117.72,0,0,0,9-22.3A33.13,33.13,0,0,0,39.05,9.65ZM47.8,8.23a48,48,0,0,0-4.47-3.55c-.19,1.38-.47,2.74-.6,4.1-.34,3.7-1.73,7.3-3,10.79a165.37,165.37,0,0,1-9.32,21q-5.22,9.94-10,20.11l.56.48c.43.33.89.77,1.28,1.11l2.53,2.19C33,45.87,39,26.48,47.8,8.23ZM37.36,64.61c.75.65,2,1.44,2.88.79,3-2.35,6.14-9.43,7.58-13,1.37-3.33,2.59-6.77,3.63-10.21a34.23,34.23,0,0,0,1.28-5.35c-.17-.19-.33-.42-.49-.61-.33-.42-.66-.84-1-1.25-.2-.25-.73-.91-1.12-1.3C47.52,37.66,37.68,61.36,37.36,64.61ZM35,66.91l.05,0c1.75,1.7,4.45,3.94,6.9,2.1,3.73-2.82,7.25-10.53,9-14.77,1.36-3.2,2.59-6.47,3.7-9.78a59.4,59.4,0,0,0,2-6.92.35.35,0,0,0,0-.06c.33-2.77-3.3-5.11-5-7-.52-.6-1.89-1.44-2.64-.85C47.8,30.71,45.78,34.5,45,36c-2,3.71-3.79,7.55-5.44,11.43C37.71,51.75,34,61.1,34.38,65.73v0A1.61,1.61,0,0,0,35,66.91ZM48.4,72.1A12.89,12.89,0,0,1,49,70.45c.46-1.22.93-2.44,1.42-3.66q2.09-5.24,4.27-10.43,2.06-4.95,4.18-9.85c.52-1.21,1-2.41,1.6-3.6.3-.64.6-1.34,1-2,1-1.89-1.6-4.21-2.69-2.25-.39.7-.74,1.5-1.07,2.24-.57,1.25-1.12,2.51-1.68,3.8-1.47,3.39-2.89,6.81-4.29,10.24-1.52,3.69-3,7.39-4.42,11.13-.37.92-2,5.11-2,6A1.58,1.58,0,1,0,48.4,72.1ZM86.83,39.19c-6.19-5.38-12.37-11.35-19.46-15.51A75.66,75.66,0,0,1,54,14c-1.2-1.11-2.4-2.25-3.6-3.36C41.74,28.87,35.69,48.23,27.51,66.71c2.92,2.5,5.84,5,8.8,7.49,2.56,2.16,5.11,4.3,7.7,6.43,1.93,1.58,3.87,3.17,5.88,4.66a133.65,133.65,0,0,1,11.34,9.24s0,0,0-.06c.28-.69.58-1.36.88-2,1-2.22,2-4.44,3-6.64Q69.54,76.07,74,66.38,78,57.89,82,49.42C83.54,46,85.14,42.55,86.83,39.19ZM12.16,70.29c3.47-.84,6.79-2.22,10.2-3.28-1.12-1.07-2.24-2.15-3.36-3.21-1.79,3.61-5.64,4-9.29,4.35C10.53,68.85,11.35,69.57,12.16,70.29Zm29.69,28.3c5.42-.11,11-1.39,16.31-2.44a167.06,167.06,0,0,0-14.9-11.43A170.75,170.75,0,0,1,25.49,70c-3.41,1-6.73,2.26-10.16,3.19C24.38,81.41,32.94,90.18,41.85,98.59Zm19.61.66c-5.29.94-10.56,2.25-15.93,2.78,1.59,1.46,3.19,2.91,4.82,4.33,5.59.27,11.19-.46,16.77-.76A67,67,0,0,0,61.46,99.25ZM89.75,41.66c-1.61,3.21-3.14,6.47-4.67,9.7q-4.06,8.51-8,17Q72.55,78,68.13,87.55q-1.51,3.28-3,6.57c-.3.67-.6,1.33-.88,2a7.76,7.76,0,0,0-.35.86.38.38,0,0,1,0,.1,74.38,74.38,0,0,1,5.88,6.67c3-7.5,6.16-14.9,9.35-22.31C81.58,75.65,84,69.87,86.32,64q3.8-9.63,7-19.48C92.1,43.6,90.92,42.65,89.75,41.66ZM48.33,109C33.4,95.84,20.09,81,4.78,68.29a2.11,2.11,0,0,1-.45-.53C-2,61.11.13,43.52,1.31,35.3c.85-5.93,2-11.81,3.28-17.66.89-4.05,1.88-8.1,2.75-12.15a1.43,1.43,0,0,1,1.91-1A29.12,29.12,0,0,1,12,6.07c.28.16,2.38,1.38,2.62.85A4.71,4.71,0,0,1,15.92,4.7c2.35-1.58,4.37-.41,6.39,1.06l.21.14a1.26,1.26,0,0,1,.57.22c1.4.19,2.84-2.79,5.21-2.93a6.38,6.38,0,0,1,2.15.43,5.85,5.85,0,0,1,2.29,1.56,1.42,1.42,0,0,1,1.4-.58,29.57,29.57,0,0,1,5.4,1.67c.05-.45.1-.9.13-1.34a15.55,15.55,0,0,1,.7-3.88,2,2,0,0,1,.09-.2l0,0a3,3,0,0,1,.17-.28A.94.94,0,0,1,41,.22a1.43,1.43,0,0,1,1.53,0C47.12,2.83,51,6.74,54.85,10.29A81.09,81.09,0,0,0,68.78,20.6c10.06,6,18,15,27.4,21.92a2,2,0,0,1,.8,1.91.69.69,0,0,1,0,.2s0,0,0,.08a350,350,0,0,1-14,38.62c-3.61,8.38-7.46,16.65-11.23,24.94a1.39,1.39,0,0,1-1.61.92c-6.64.15-13.14,1.07-19.81.74a1.45,1.45,0,0,1-1-.14A2.53,2.53,0,0,1,48.33,109Z"/></g></g></svg>