<svg xmlns="http://www.w3.org/2000/svg" viewBox="0 0 41.82 41.68"><defs><style>.cls-1{fill:#8bdfda;}</style></defs><g id="Layer_2" data-name="Layer 2"><g id="Layer_1-2" data-name="Layer 1"><path class="cls-1" d="M18.22,28.12A3,3,0,0,1,17,27.65a3,3,0,0,1-.82-4.13l8.75-13a3,3,0,0,1,4.16-.81,3,3,0,0,1,.82,4.13L21.18,26.83A3,3,0,0,1,18.22,28.12Z"/><path class="cls-1" d="M3.57,21.56a3,3,0,0,1-3-2.88L0,3.08A3,3,0,0,1,2.9,0,3,3,0,0,1,6,2.88l.56,15.6a3,3,0,0,1-2.9,3.08Z"/><path class="cls-1" d="M23,35.71,38.67,35a3,3,0,1,1,.27,6l-15.7.72a3,3,0,1,1-.27-6Z"/></g></g></svg>