<svg xmlns="http://www.w3.org/2000/svg" viewBox="0 0 102 102"><defs><style>.cls-1{fill:#2b3640;}</style></defs><g id="Layer_2" data-name="Layer 2"><g id="Layer_1-2" data-name="Layer 1"><path class="cls-1" d="M91,95.64,95.61,91l1.25,5.89ZM4.47,20a9,9,0,0,1,2.62-6.35l6.52-6.52a9,9,0,0,1,12.69,0L28.61,9.4,19,19l-9.6,9.6L7.09,26.3A8.94,8.94,0,0,1,4.47,20Zm22.16,9.83L79.39,82.56l-8,8L18.6,37.82ZM90.56,71.38l-8,8L29.79,26.63l8-8Zm-78-39.61,9.61-9.61,9.6-9.6,2.88,2.87L25.05,25l-9.61,9.61ZM75.85,92.41l1.71-1.72L92.39,75.86l2.12,10-8.73,8.73ZM95.91,70.94h0v0l0,0a2.51,2.51,0,0,0-.16-.46.91.91,0,0,1-.07-.14l-.24-.34-.09-.1a.13.13,0,0,1,0,0l-62-62L29.46,3.93a13.46,13.46,0,0,0-19,0L3.93,10.46a13.45,13.45,0,0,0,0,19l3.89,3.89,62,62,0,0a2.48,2.48,0,0,0,.64.43,1,1,0,0,0,.2.06,1.84,1.84,0,0,0,.25.09l28.41,6a2.49,2.49,0,0,0,.47,0A2.25,2.25,0,0,0,102,99.3Z"/></g></g></svg>