<svg xmlns="http://www.w3.org/2000/svg" viewBox="0 0 26.67 26.67"><defs><style>.cls-1{fill:#db272b;}</style></defs><g id="Layer_2" data-name="Layer 2"><g id="Layer_1-2" data-name="Layer 1"><rect class="cls-1" x="9.69" width="7.28" height="5.81"/><path class="cls-1" d="M19,0V5.81h7.52C25.81,2.15,23.11,0,19,0Z"/><path class="cls-1" d="M16.59,18.91l-2.78,1.6a3.47,3.47,0,0,1-1.69.5A2.13,2.13,0,0,1,11,20.73a2.71,2.71,0,0,1-1.2-2.52V15A2.72,2.72,0,0,1,11,12.49a2.7,2.7,0,0,1,2.78.23l2.78,1.6a2.74,2.74,0,0,1,1.58,2.31A2.75,2.75,0,0,1,16.59,18.91ZM0,7.81V18.92c0,4.85,2.89,7.75,7.75,7.75H18.92c4.85,0,7.75-2.9,7.75-7.75V7.81Z"/><path class="cls-1" d="M7.69,0C3.56,0,.85,2.15.17,5.81H7.69Z"/></g></g></svg>