<svg xmlns="http://www.w3.org/2000/svg" viewBox="0 0 104 112"><defs><style>.cls-1{fill:#f2c6c0;}</style></defs><g id="Layer_2" data-name="Layer 2"><g id="Layer_1-2" data-name="Layer 1"><path class="cls-1" d="M33.82,36.48c-6.3,0-6.32,9.84,0,9.84S40.14,36.48,33.82,36.48Z"/><path class="cls-1" d="M38.19,68.22c6.31,0,6.32-9.84,0-9.84S31.87,68.22,38.19,68.22Z"/><path class="cls-1" d="M57.09,43.78c-6.3,0-6.32,9.84,0,9.84S63.41,43.78,57.09,43.78Z"/><path class="cls-1" d="M55.64,20.43c-6.3,0-6.32,9.84,0,9.84S62,20.43,55.64,20.43Z"/><path class="cls-1" d="M76,30.64c-6.3,0-6.32,9.84,0,9.84S82.32,30.64,76,30.64Z"/><path class="cls-1" d="M78.91,55.46c-6.3,0-6.32,9.84,0,9.84S85.23,55.46,78.91,55.46Z"/><path class="cls-1" d="M57.09,67.14c-6.3,0-6.32,9.83,0,9.83S63.41,67.14,57.09,67.14Z"/><path class="cls-1" d="M47.47,81.71l-1-.77A4.83,4.83,0,0,0,44,80.26H42.57a3.68,3.68,0,0,0-1.89.42,4,4,0,0,0-1.58,1,3.8,3.8,0,0,0-1,1.58,3.74,3.74,0,0,0-.42,1.89c0,.44.12.88.17,1.3a5.21,5.21,0,0,0,1.26,2.18c.34.25.66.5,1,.77a4.86,4.86,0,0,0,2.48.68H44a3.66,3.66,0,0,0,1.88-.42,3.8,3.8,0,0,0,1.58-1,3.67,3.67,0,0,0,1-1.59,3.55,3.55,0,0,0,.42-1.89c0-.44-.11-.88-.16-1.3A5,5,0,0,0,47.47,81.71Z"/><path class="cls-1" d="M17.83,80.26c-6.3,0-6.32,9.84,0,9.84S24.15,80.26,17.83,80.26Z"/><path class="cls-1" d="M6.2,39.4c-6.31,0-6.32,9.83,0,9.83S12.52,39.4,6.2,39.4Z"/><path class="cls-1" d="M4.73,61.3c-6.3,0-6.32,9.83,0,9.83S11.06,61.3,4.73,61.3Z"/><path class="cls-1" d="M12,19c-6.31,0-6.33,9.84,0,9.84S18.34,19,12,19Z"/><path class="cls-1" d="M29.47,7.29c-6.31,0-6.33,9.84,0,9.84S35.79,7.29,29.47,7.29Z"/><path class="cls-1" d="M51.27,9.84c6.31,0,6.32-9.84,0-9.84S45,9.84,51.27,9.84Z"/><path class="cls-1" d="M76,17.13c6.31,0,6.32-9.84,0-9.84S69.68,17.13,76,17.13Z"/><path class="cls-1" d="M94.9,40.48c6.31,0,6.32-9.84,0-9.84S88.6,40.48,94.9,40.48Z"/><path class="cls-1" d="M99.27,56.91c-6.3,0-6.32,9.84,0,9.84S105.58,56.91,99.27,56.91Z"/><path class="cls-1" d="M90.55,80.26c-6.31,0-6.32,9.84,0,9.84S96.85,80.26,90.55,80.26Z"/><path class="cls-1" d="M67.28,91.94c-6.31,0-6.32,9.84,0,9.84S73.6,91.94,67.28,91.94Z"/><path class="cls-1" d="M35.28,102.16c-6.3,0-6.32,9.84,0,9.84S41.6,102.16,35.28,102.16Z"/></g></g></svg>